999
dxfrw 0.6.3
  0
SECTION
  2
HEADER
  9
$ACADVER
  1
AC1021
  9
$DWGCODEPAGE
  3
ANSI_1252
  9
$INSBASE
 10
0
 20
0
 30
0
  9
$EXTMIN
 10
0
 20
0
 30
0
  9
$EXTMAX
 10
0
 20
0
 30
0
  9
$LIMMIN
 10
0
 20
0
  9
$LIMMAX
 10
420
 20
297
  9
$ORTHOMODE
 70
    0
  9
$REGENMODE
 70
    1
  9
$FILLMODE
 70
    1
  9
$QTEXTMODE
 70
    0
  9
$MIRRTEXT
 70
    0
  9
$LTSCALE
 40
1
  9
$ATTMODE
 70
    0
  9
$TEXTSIZE
 40
2.5
  9
$TRACEWID
 40
15.68
  9
$TEXTSTYLE
  7
STANDARD
  9
$CLAYER
  8
holes
  9
$CELTYPE
  6
BYLAYER
  9
$CECOLOR
 62
  256
  9
$CELTSCALE
 40
1
  9
$DISPSILH
 70
    0
  9
$DIMSCALE
 40
2.5
  9
$DIMASZ
 40
2.5
  9
$DIMEXO
 40
0.625
  9
$DIMDLI
 40
3.75
  9
$DIMRND
 40
0
  9
$DIMDLE
 40
0
  9
$DIMEXE
 40
1.25
  9
$DIMTP
 40
0
  9
$DIMTM
 40
0
  9
$DIMTXT
 40
2.5
  9
$DIMCEN
 40
2.5
  9
$DIMTSZ
 40
0
  9
$DIMTOL
 70
    0
  9
$DIMLIM
 70
    0
  9
$DIMTIH
 70
    0
  9
$DIMTOH
 70
    0
  9
$DIMSE1
 70
    0
  9
$DIMSE2
 70
    0
  9
$DIMTAD
 70
    1
  9
$DIMZIN
 70
    8
  9
$DIMBLK
  1

  9
$DIMASO
 70
    1
  9
$DIMSHO
 70
    1
  9
$DIMPOST
  1

  9
$DIMAPOST
  1

  9
$DIMALT
 70
    0
  9
$DIMALTD
 70
    3
  9
$DIMALTF
 40
0.03937
  9
$DIMLFAC
 40
1
  9
$DIMTOFL
 70
    1
  9
$DIMTVP
 40
0
  9
$DIMTIX
 70
    0
  9
$DIMSOXD
 70
    0
  9
$DIMSAH
 70
    0
  9
$DIMBLK1
  1

  9
$DIMBLK2
  1

  9
$DIMSTYLE
  2
STANDARD
  9
$DIMCLRD
 70
    0
  9
$DIMCLRE
 70
    0
  9
$DIMCLRT
 70
    0
  9
$DIMTFAC
 40
1
  9
$DIMGAP
 40
0.625
  9
$DIMJUST
 70
    0
  9
$DIMSD1
 70
    0
  9
$DIMSD2
 70
    0
  9
$DIMTOLJ
 70
    0
  9
$DIMTZIN
 70
    8
  9
$DIMALTZ
 70
    0
  9
$DIMALTTZ
 70
    0
  9
$DIMUPT
 70
    0
  9
$DIMDEC
 70
    2
  9
$DIMTDEC
 70
    2
  9
$DIMALTU
 70
    2
  9
$DIMALTTD
 70
    3
  9
$DIMTXSTY
  7
STANDARD
  9
$DIMAUNIT
 70
    0
  9
$DIMADEC
 70
    0
  9
$DIMALTRND
 40
0
  9
$DIMAZIN
 70
    0
  9
$DIMDSEP
 70
   44
  9
$DIMATFIT
 70
    3
  9
$DIMFRAC
 70
    0
  9
$DIMLDRBLK
  1
STANDARD
  9
$DIMLUNIT
 70
    2
  9
$DIMLWD
 70
   -2
  9
$DIMLWE
 70
   -2
  9
$DIMTMOVE
 70
    0
  9
$DIMFXL
 40
1
  9
$DIMFXLON
 70
    0
  9
$DIMJOGANG
 40
0.7854
  9
$DIMTFILL
 70
    0
  9
$DIMTFILLCLR
 70
    0
  9
$DIMARCSYM
 70
    0
  9
$DIMLTYPE
  6

  9
$DIMLTEX1
  6

  9
$DIMLTEX2
  6

  9
$LUNITS
 70
    2
  9
$LUPREC
 70
    4
  9
$SKETCHINC
 40
1
  9
$FILLETRAD
 40
0
  9
$AUNITS
 70
    0
  9
$AUPREC
 70
    2
  9
$MENU
  1
.
  9
$ELEVATION
 40
0
  9
$PELEVATION
 40
0
  9
$THICKNESS
 40
0
  9
$LIMCHECK
 70
    0
  9
$CHAMFERA
 40
0
  9
$CHAMFERB
 40
0
  9
$CHAMFERC
 40
0
  9
$CHAMFERD
 40
0
  9
$SKPOLY
 70
    0
  9
$USRTIMER
 70
    1
  9
$ANGBASE
 50
0
  9
$ANGDIR
 70
    0
  9
$PDMODE
 70
   34
  9
$PDSIZE
 40
0
  9
$PLINEWID
 40
0
  9
$SPLFRAME
 70
    0
  9
$SPLINETYPE
 70
    2
  9
$SPLINESEGS
 70
    8
  9
$HANDSEED
  5
20000
  9
$SURFTAB1
 70
    6
  9
$SURFTAB2
 70
    6
  9
$SURFTYPE
 70
    6
  9
$SURFU
 70
    6
  9
$SURFV
 70
    6
  9
$UCSBASE
  2

  9
$UCSNAME
  2

  9
$UCSORG
 10
0
 20
0
 30
0
  9
$UCSXDIR
 10
1
 20
0
 30
0
  9
$UCSYDIR
 10
0
 20
1
 30
0
  9
$UCSORTHOREF
  2

  9
$UCSORTHOVIEW
 70
    0
  9
$UCSORGTOP
 10
0
 20
0
 30
0
  9
$UCSORGBOTTOM
 10
0
 20
0
 30
0
  9
$UCSORGLEFT
 10
0
 20
0
 30
0
  9
$UCSORGRIGHT
 10
0
 20
0
 30
0
  9
$UCSORGFRONT
 10
0
 20
0
 30
0
  9
$UCSORGBACK
 10
0
 20
0
 30
0
  9
$PUCSBASE
  2

  9
$PUCSNAME
  2

  9
$PUCSORG
 10
0
 20
0
 30
0
  9
$PUCSXDIR
 10
1
 20
0
 30
0
  9
$PUCSYDIR
 10
0
 20
1
 30
0
  9
$PUCSORTHOREF
  2

  9
$PUCSORTHOVIEW
 70
    0
  9
$PUCSORGTOP
 10
0
 20
0
 30
0
  9
$PUCSORGBOTTOM
 10
0
 20
0
 30
0
  9
$PUCSORGLEFT
 10
0
 20
0
 30
0
  9
$PUCSORGRIGHT
 10
0
 20
0
 30
0
  9
$PUCSORGFRONT
 10
0
 20
0
 30
0
  9
$PUCSORGBACK
 10
0
 20
0
 30
0
  9
$USERI1
 70
    0
  9
$USERI2
 70
    0
  9
$USERI3
 70
    0
  9
$USERI4
 70
    0
  9
$USERI5
 70
    0
  9
$USERR1
 40
0
  9
$USERR2
 40
0
  9
$USERR3
 40
0
  9
$USERR4
 40
0
  9
$USERR5
 40
0
  9
$WORLDVIEW
 70
    1
  9
$SHADEDGE
 70
    3
  9
$SHADEDIF
 70
   70
  9
$TILEMODE
 70
    1
  9
$MAXACTVP
 70
   64
  9
$PINSBASE
 10
0
 20
0
 30
0
  9
$PLIMCHECK
 70
    0
  9
$PEXTMIN
 10
0
 20
0
 30
0
  9
$PEXTMAX
 10
0
 20
0
 30
0
  9
$GRIDMODE
 70
    1
  9
$SNAPSTYLE
 70
    0
  9
$PLIMMIN
 10
0
 20
0
  9
$PLIMMAX
 10
420
 20
297
  9
$UNITMODE
 70
    0
  9
$VISRETAIN
 70
    1
  9
$PLINEGEN
 70
    0
  9
$PSLTSCALE
 70
    1
  9
$TREEDEPTH
 70
 3020
  9
$CMLSTYLE
  2
Standard
  9
$CMLJUST
 70
    0
  9
$CMLSCALE
 40
20
  9
$PROXYGRAPHICS
 70
    1
  9
$MEASUREMENT
 70
    1
  9
$CELWEIGHT
370
   -1
  9
$ENDCAPS
280
    0
  9
$JOINSTYLE
280
    0
  9
$LWDISPLAY
290
    0
  9
$INSUNITS
 70
    4
  9
$HYPERLINKBASE
  1

  9
$STYLESHEET
  1

  9
$XEDIT
290
    1
  9
$CEPSNTYPE
380
    0
  9
$PSTYLEMODE
290
    1
  9
$EXTNAMES
290
    1
  9
$PSVPSCALE
 40
1
  9
$OLESTARTUP
290
    0
  9
$SORTENTS
280
  127
  9
$INDEXCTL
280
    0
  9
$HIDETEXT
280
    1
  9
$XCLIPFRAME
290
    0
  9
$HALOGAP
280
    0
  9
$OBSCOLOR
 70
  257
  9
$OBSLTYPE
280
    0
  9
$INTERSECTIONDISPLAY
280
    0
  9
$INTERSECTIONCOLOR
 70
  257
  9
$DIMASSOC
280
    1
  9
$PROJECTNAME
  1

  9
$CAMERADISPLAY
290
    0
  9
$LENSLENGTH
 40
50
  9
$CAMERAHEIGHT
 40
0
  9
$STEPSPERSEC
 40
2
  9
$STEPSIZE
 40
50
  9
$3DDWFPREC
 40
2
  9
$PSOLWIDTH
 40
5
  9
$PSOLHEIGHT
 40
80
  9
$LOFTANG1
 40
1.570796326794897
  9
$LOFTANG2
 40
1.570796326794897
  9
$LOFTMAG1
 40
0
  9
$LOFTMAG2
 40
0
  9
$LOFTPARAM
 70
    7
  9
$LOFTNORMALS
280
    1
  9
$LATITUDE
 40
1
  9
$LONGITUDE
 40
1
  9
$NORTHDIRECTION
 40
0
  9
$TIMEZONE
 70
-8000
  9
$LIGHTGLYPHDISPLAY
280
    1
  9
$TILEMODELIGHTSYNCH
280
    1
  9
$SOLIDHIST
280
    1
  9
$SHOWHIST
280
    1
  9
$DWFFRAME
280
    2
  9
$DGNFRAME
280
    0
  9
$REALWORLDSCALE
290
    1
  9
$INTERFERECOLOR
 62
    1
  9
$CSHADOW
280
    0
  9
$SHADOWPLANELOCATION
 40
0
  0
ENDSEC
  0
SECTION
  2
CLASSES
  0
ENDSEC
  0
SECTION
  2
TABLES
  0
TABLE
  2
VPORT
  5
8
330
0
100
AcDbSymbolTable
 70
    1
  0
VPORT
  5
31
330
2
100
AcDbSymbolTableRecord
100
AcDbViewportTableRecord
  2
*ACTIVE
 70
    0
 10
0
 20
0
 11
1
 21
1
 12
496.8643188476985
 22
238.895416259786
 13
0
 23
0
 14
10
 24
10
 15
10
 25
10
 16
0
 26
0
 36
1
 17
0
 27
0
 37
0
 40
788.6886596680359
 41
1.883917775090689
 42
50
 43
0
 44
0
 50
0
 51
0
 71
    0
 72
  100
 73
    1
 74
    3
 75
    0
 76
    1
 77
    0
 78
    0
281
    0
 65
    1
110
0
120
0
130
0
111
1
121
0
131
0
112
0
122
1
132
0
 79
    0
146
0
348
10020
 60
    7
 61
    5
292
1
282
    1
141
0
142
0
 63
  250
421
3358443
  0
ENDTAB
  0
TABLE
  2
LTYPE
  5
5
330
0
100
AcDbSymbolTable
 70
    4
  0
LTYPE
  5
14
330
5
100
AcDbSymbolTableRecord
100
AcDbLinetypeTableRecord
  2
ByBlock
 70
    0
  3

 72
   65
 73
    0
 40
0
  0
LTYPE
  5
15
330
5
100
AcDbSymbolTableRecord
100
AcDbLinetypeTableRecord
  2
ByLayer
 70
    0
  3

 72
   65
 73
    0
 40
0
  0
LTYPE
  5
16
330
5
100
AcDbSymbolTableRecord
100
AcDbLinetypeTableRecord
  2
Continuous
 70
    0
  3
Solid line
 72
   65
 73
    0
 40
0
  0
LTYPE
  5
32
330
5
100
AcDbSymbolTableRecord
100
AcDbLinetypeTableRecord
  2
DOT
 70
    0
  3
Dot . . . . . . . . . . . . . . . . . . . . . .
 72
   65
 73
    2
 40
6.35
 49
0
 74
    0
 49
-6.35
 74
    0
  0
LTYPE
  5
33
330
5
100
AcDbSymbolTableRecord
100
AcDbLinetypeTableRecord
  2
DOTTINY
 70
    0
  3
Dot (.15x) .....................................
 72
   65
 73
    2
 40
0.9525
 49
0
 74
    0
 49
-0.9525
 74
    0
  0
LTYPE
  5
34
330
5
100
AcDbSymbolTableRecord
100
AcDbLinetypeTableRecord
  2
DOT2
 70
    0
  3
Dot (.5x) .....................................
 72
   65
 73
    2
 40
3.175
 49
0
 74
    0
 49
-3.175
 74
    0
  0
LTYPE
  5
35
330
5
100
AcDbSymbolTableRecord
100
AcDbLinetypeTableRecord
  2
DOTX2
 70
    0
  3
Dot (2x) .  .  .  .  .  .  .  .  .  .  .  .  .
 72
   65
 73
    2
 40
12.7
 49
0
 74
    0
 49
-12.7
 74
    0
  0
LTYPE
  5
36
330
5
100
AcDbSymbolTableRecord
100
AcDbLinetypeTableRecord
  2
DASHED
 70
    0
  3
Dashed _ _ _ _ _ _ _ _ _ _ _ _ _ _ _ _ _
 72
   65
 73
    2
 40
19.05
 49
12.7
 74
    0
 49
-6.35
 74
    0
  0
LTYPE
  5
37
330
5
100
AcDbSymbolTableRecord
100
AcDbLinetypeTableRecord
  2
DASHEDTINY
 70
    0
  3
Dashed (.15x) _ _ _ _ _ _ _ _ _ _ _ _ _ _ _ _ _
 72
   65
 73
    2
 40
2.8575
 49
1.905
 74
    0
 49
-0.9525
 74
    0
  0
LTYPE
  5
38
330
5
100
AcDbSymbolTableRecord
100
AcDbLinetypeTableRecord
  2
DASHED2
 70
    0
  3
Dashed (.5x) _ _ _ _ _ _ _ _ _ _ _ _ _ _ _ _ _
 72
   65
 73
    2
 40
9.524999999999999
 49
6.35
 74
    0
 49
-3.175
 74
    0
  0
LTYPE
  5
39
330
5
100
AcDbSymbolTableRecord
100
AcDbLinetypeTableRecord
  2
DASHEDX2
 70
    0
  3
Dashed (2x) ____  ____  ____  ____  ____  ___
 72
   65
 73
    2
 40
38.09999999999999
 49
25.4
 74
    0
 49
-12.7
 74
    0
  0
LTYPE
  5
3A
330
5
100
AcDbSymbolTableRecord
100
AcDbLinetypeTableRecord
  2
DASHDOT
 70
    0
  3
Dash dot __ . __ . __ . __ . __ . __ . __ . __
 72
   65
 73
    4
 40
25.4
 49
12.7
 74
    0
 49
-6.35
 74
    0
 49
0
 74
    0
 49
-6.35
 74
    0
  0
LTYPE
  5
3B
330
5
100
AcDbSymbolTableRecord
100
AcDbLinetypeTableRecord
  2
DASHDOTTINY
 70
    0
  3
Dash dot (.15x) _._._._._._._._._._._._._._._.
 72
   65
 73
    4
 40
3.81
 49
1.905
 74
    0
 49
-0.9525
 74
    0
 49
0
 74
    0
 49
-0.9525
 74
    0
  0
LTYPE
  5
3C
330
5
100
AcDbSymbolTableRecord
100
AcDbLinetypeTableRecord
  2
DASHDOT2
 70
    0
  3
Dash dot (.5x) _._._._._._._._._._._._._._._.
 72
   65
 73
    4
 40
12.7
 49
6.35
 74
    0
 49
-3.175
 74
    0
 49
0
 74
    0
 49
-3.175
 74
    0
  0
LTYPE
  5
3D
330
5
100
AcDbSymbolTableRecord
100
AcDbLinetypeTableRecord
  2
DASHDOTX2
 70
    0
  3
Dash dot (2x) ____  .  ____  .  ____  .  ___
 72
   65
 73
    4
 40
50.8
 49
25.4
 74
    0
 49
-12.7
 74
    0
 49
0
 74
    0
 49
-12.7
 74
    0
  0
LTYPE
  5
3E
330
5
100
AcDbSymbolTableRecord
100
AcDbLinetypeTableRecord
  2
DIVIDE
 70
    0
  3
Divide ____ . . ____ . . ____ . . ____ . . ____
 72
   65
 73
    6
 40
31.75
 49
12.7
 74
    0
 49
-6.35
 74
    0
 49
0
 74
    0
 49
-6.35
 74
    0
 49
0
 74
    0
 49
-6.35
 74
    0
  0
LTYPE
  5
3F
330
5
100
AcDbSymbolTableRecord
100
AcDbLinetypeTableRecord
  2
DIVIDETINY
 70
    0
  3
Divide (.15x) __..__..__..__..__..__..__..__.._
 72
   65
 73
    6
 40
4.7625
 49
1.905
 74
    0
 49
-0.9525
 74
    0
 49
0
 74
    0
 49
-0.9525
 74
    0
 49
0
 74
    0
 49
-0.9525
 74
    0
  0
LTYPE
  5
40
330
5
100
AcDbSymbolTableRecord
100
AcDbLinetypeTableRecord
  2
DIVIDE2
 70
    0
  3
Divide (.5x) __..__..__..__..__..__..__..__.._
 72
   65
 73
    6
 40
15.875
 49
6.35
 74
    0
 49
-3.175
 74
    0
 49
0
 74
    0
 49
-3.175
 74
    0
 49
0
 74
    0
 49
-3.175
 74
    0
  0
LTYPE
  5
41
330
5
100
AcDbSymbolTableRecord
100
AcDbLinetypeTableRecord
  2
DIVIDEX2
 70
    0
  3
Divide (2x) ________  .  .  ________  .  .  _
 72
   65
 73
    6
 40
63.5
 49
25.4
 74
    0
 49
-12.7
 74
    0
 49
0
 74
    0
 49
-12.7
 74
    0
 49
0
 74
    0
 49
-12.7
 74
    0
  0
LTYPE
  5
42
330
5
100
AcDbSymbolTableRecord
100
AcDbLinetypeTableRecord
  2
BORDER
 70
    0
  3
Border __ __ . __ __ . __ __ . __ __ . __ __ .
 72
   65
 73
    6
 40
44.45
 49
12.7
 74
    0
 49
-6.35
 74
    0
 49
12.7
 74
    0
 49
-6.35
 74
    0
 49
0
 74
    0
 49
-6.35
 74
    0
  0
LTYPE
  5
43
330
5
100
AcDbSymbolTableRecord
100
AcDbLinetypeTableRecord
  2
BORDERTINY
 70
    0
  3
Border (.15x) __.__.__.__.__.__.__.__.__.__.__.
 72
   65
 73
    6
 40
6.6675
 49
1.905
 74
    0
 49
-0.9525
 74
    0
 49
1.905
 74
    0
 49
-0.9525
 74
    0
 49
0
 74
    0
 49
-0.9525
 74
    0
  0
LTYPE
  5
44
330
5
100
AcDbSymbolTableRecord
100
AcDbLinetypeTableRecord
  2
BORDER2
 70
    0
  3
Border (.5x) __.__.__.__.__.__.__.__.__.__.__.
 72
   65
 73
    6
 40
22.225
 49
6.35
 74
    0
 49
-3.175
 74
    0
 49
6.35
 74
    0
 49
-3.175
 74
    0
 49
0
 74
    0
 49
-3.175
 74
    0
  0
LTYPE
  5
45
330
5
100
AcDbSymbolTableRecord
100
AcDbLinetypeTableRecord
  2
BORDERX2
 70
    0
  3
Border (2x) ____  ____  .  ____  ____  .  ___
 72
   65
 73
    6
 40
88.89999999999999
 49
25.4
 74
    0
 49
-12.7
 74
    0
 49
25.4
 74
    0
 49
-12.7
 74
    0
 49
0
 74
    0
 49
-12.7
 74
    0
  0
LTYPE
  5
46
330
5
100
AcDbSymbolTableRecord
100
AcDbLinetypeTableRecord
  2
CENTER
 70
    0
  3
Center ____ _ ____ _ ____ _ ____ _ ____ _ ____
 72
   65
 73
    4
 40
50.8
 49
31.75
 74
    0
 49
-6.35
 74
    0
 49
6.35
 74
    0
 49
-6.35
 74
    0
  0
LTYPE
  5
47
330
5
100
AcDbSymbolTableRecord
100
AcDbLinetypeTableRecord
  2
CENTERTINY
 70
    0
  3
Center (.15x) ___ _ ___ _ ___ _ ___ _ ___ _ ___
 72
   65
 73
    4
 40
7.619999999999999
 49
4.7625
 74
    0
 49
-0.9525
 74
    0
 49
0.9525
 74
    0
 49
-0.9525
 74
    0
  0
LTYPE
  5
48
330
5
100
AcDbSymbolTableRecord
100
AcDbLinetypeTableRecord
  2
CENTER2
 70
    0
  3
Center (.5x) ___ _ ___ _ ___ _ ___ _ ___ _ ___
 72
   65
 73
    4
 40
28.575
 49
19.05
 74
    0
 49
-3.175
 74
    0
 49
3.175
 74
    0
 49
-3.175
 74
    0
  0
LTYPE
  5
49
330
5
100
AcDbSymbolTableRecord
100
AcDbLinetypeTableRecord
  2
CENTERX2
 70
    0
  3
Center (2x) ________  __  ________  __  _____
 72
   65
 73
    4
 40
101.6
 49
63.5
 74
    0
 49
-12.7
 74
    0
 49
12.7
 74
    0
 49
-12.7
 74
    0
  0
ENDTAB
  0
TABLE
  2
LAYER
  5
2
330
0
100
AcDbSymbolTable
 70
    1
  0
LAYER
  5
10
330
2
100
AcDbSymbolTableRecord
100
AcDbLayerTableRecord
  2
0
 70
    0
 62
    7
  6
CONTINUOUS
370
    0
390
F
  0
LAYER
  5
4A
330
2
100
AcDbSymbolTableRecord
100
AcDbLayerTableRecord
  2
holes
 70
    0
 62
    7
  6
CONTINUOUS
370
    0
390
F
  0
ENDTAB
  0
TABLE
  2
STYLE
  5
3
330
0
100
AcDbSymbolTable
 70
    3
  0
STYLE
  5
4B
330
2
100
AcDbSymbolTableRecord
100
AcDbTextStyleTableRecord
  2
Standard
 70
    0
 40
0
 41
1
 50
0
 71
    0
 42
1
  3
txt
  4

  0
ENDTAB
  0
TABLE
  2
VIEW
  5
6
330
0
100
AcDbSymbolTable
 70
    0
  0
ENDTAB
  0
TABLE
  2
UCS
  5
7
330
0
100
AcDbSymbolTable
 70
    0
  0
ENDTAB
  0
TABLE
  2
APPID
  5
9
330
0
100
AcDbSymbolTable
 70
    1
  0
APPID
  5
12
330
9
100
AcDbSymbolTableRecord
100
AcDbRegAppTableRecord
  2
ACAD
 70
    0
  0
APPID
  5
4C
330
9
100
AcDbSymbolTableRecord
100
AcDbRegAppTableRecord
  2
LibreCad
 70
    0
  0
ENDTAB
  0
TABLE
  2
DIMSTYLE
  5
A
330
0
100
AcDbSymbolTable
 70
    1
100
AcDbDimStyleTable
 71
    1
  0
DIMSTYLE
105
4D
330
A
100
AcDbSymbolTableRecord
100
AcDbDimStyleTableRecord
  2
Standard
 70
    0
 40
1
 41
2.5
 42
0.625
 43
0.38
 44
1.25
 45
0
 46
0
 47
0
 48
0
 49
1
140
2.5
141
0.09
142
2.5
143
25.4
144
1
145
0
146
1
147
0.625
148
0
 71
    0
 72
    0
 73
    0
 74
    1
 75
    0
 76
    0
 77
    0
 78
    1
 79
    0
170
    0
171
    2
172
    0
173
    0
174
    0
175
    0
176
    0
177
    0
178
    0
179
    0
271
    2
272
    4
273
    2
274
    2
275
    0
276
    0
277
    2
278
    0
279
    0
280
    0
281
    0
282
    0
283
    1
284
    0
285
    0
286
    0
288
    0
289
    3
340
standard
341

371
   -2
372
   -2
  0
ENDTAB
  0
TABLE
  2
BLOCK_RECORD
  5
1
330
0
100
AcDbSymbolTable
 70
    2
  0
BLOCK_RECORD
  5
1F
330
1
100
AcDbSymbolTableRecord
100
AcDbBlockTableRecord
  2
*Model_Space
 70
    0
280
    1
281
    0
  0
BLOCK_RECORD
  5
1E
330
1
100
AcDbSymbolTableRecord
100
AcDbBlockTableRecord
  2
*Paper_Space
 70
    0
280
    1
281
    0
  0
BLOCK_RECORD
  5
4E
330
1
100
AcDbSymbolTableRecord
100
AcDbBlockTableRecord
  2
bottom
 70
    0
280
    1
281
    0
  0
ENDTAB
  0
ENDSEC
  0
SECTION
  2
BLOCKS
  0
BLOCK
  5
20
330
1F
100
AcDbEntity
  8
0
100
AcDbBlockBegin
  2
*Model_Space
 70
    0
 10
0
 20
0
 30
0
  3
*Model_Space
  1

  0
ENDBLK
  5
21
330
1F
100
AcDbEntity
  8
0
100
AcDbBlockEnd
  0
BLOCK
  5
1C
330
1B
100
AcDbEntity
  8
0
100
AcDbBlockBegin
  2
*Paper_Space
 70
    0
 10
0
 20
0
 30
0
  3
*Paper_Space
  1

  0
ENDBLK
  5
1D
330
1F
100
AcDbEntity
  8
0
100
AcDbBlockEnd
  0
BLOCK
  5
4F
330
4E
100
AcDbEntity
  8
0
100
AcDbBlockBegin
  2
bottom
 70
    0
 10
0
 20
0
  3
bottom
  1

  0
LINE
  5
51
100
AcDbEntity
  8
0
  6
CONTINUOUS
 62
    7
370
   18
100
AcDbLine
 10
0
 20
62.49999999999
 11
0
 21
68.39999999998989
  0
LINE
  5
52
100
AcDbEntity
  8
0
  6
CONTINUOUS
 62
    7
370
   18
100
AcDbLine
 10
0
 20
71.39999999998989
 11
0
 21
77.39999999998989
  0
LINE
  5
53
100
AcDbEntity
  8
0
  6
CONTINUOUS
 62
    7
370
   18
100
AcDbLine
 10
0
 20
77.39999999998989
 11
-5.999999999999147
 21
77.39999999998989
  0
LINE
  5
54
100
AcDbEntity
  8
0
  6
CONTINUOUS
 62
    7
370
   18
100
AcDbLine
 10
0
 20
62.49999999999
 11
-6
 21
62.49999999999
  0
LINE
  5
55
100
AcDbEntity
  8
0
  6
CONTINUOUS
 62
    7
370
   18
100
AcDbLine
 10
-5.999999999999147
 20
53.39999999998989
 11
0
 21
53.39999999998989
  0
LINE
  5
56
100
AcDbEntity
  8
0
  6
CONTINUOUS
 62
    7
370
   18
100
AcDbLine
 10
-5.999999999999147
 20
77.39999999998989
 11
-5.999999999999147
 21
86.49999999999
  0
LINE
  5
57
100
AcDbEntity
  8
0
  6
CONTINUOUS
 62
    7
370
   18
100
AcDbLine
 10
-5.999999999999147
 20
53.39999999998989
 11
-5.999999999999147
 21
62.49999999999
  0
LINE
  5
58
100
AcDbEntity
  8
0
  6
CONTINUOUS
 62
    7
370
   18
100
AcDbLine
 10
-5.999999999999147
 20
86.49999999999
 11
0
 21
86.49999999999
  0
LINE
  5
59
100
AcDbEntity
  8
0
  6
CONTINUOUS
 62
    7
370
   18
100
AcDbLine
 10
0
 20
172.4499999999898
 11
-5.999999999999147
 21
172.4499999999898
  0
LINE
  5
5A
100
AcDbEntity
  8
0
  6
CONTINUOUS
 62
    7
370
   18
100
AcDbLine
 10
0
 20
157.54999999999
 11
-5.999999999999147
 21
157.54999999999
  0
LINE
  5
5B
100
AcDbEntity
  8
0
  6
CONTINUOUS
 62
    7
370
   18
100
AcDbLine
 10
-5.999999999999147
 20
148.4499999999898
 11
0
 21
148.4499999999898
  0
LINE
  5
5C
100
AcDbEntity
  8
0
  6
CONTINUOUS
 62
    7
370
   18
100
AcDbLine
 10
-5.999999999999147
 20
172.4499999999898
 11
-5.999999999999147
 21
181.5499999999888
  0
LINE
  5
5D
100
AcDbEntity
  8
0
  6
CONTINUOUS
 62
    7
370
   18
100
AcDbLine
 10
-5.999999999999147
 20
148.4499999999898
 11
-5.999999999999147
 21
157.54999999999
  0
LINE
  5
5E
100
AcDbEntity
  8
0
  6
CONTINUOUS
 62
    7
370
   18
100
AcDbLine
 10
-5.999999999999147
 20
181.5499999999888
 11
0
 21
181.5499999999888
  0
LINE
  5
5F
100
AcDbEntity
  8
0
  6
CONTINUOUS
 62
    7
370
   18
100
AcDbLine
 10
0
 20
252.49999999999
 11
0
 21
258.3999999999899
  0
LINE
  5
60
100
AcDbEntity
  8
0
  6
CONTINUOUS
 62
    7
370
   18
100
AcDbLine
 10
0
 20
261.3999999999899
 11
0
 21
267.3999999999899
  0
LINE
  5
61
100
AcDbEntity
  8
0
  6
CONTINUOUS
 62
    7
370
   18
100
AcDbLine
 10
0
 20
267.3999999999899
 11
-5.999999999999147
 21
267.3999999999899
  0
LINE
  5
62
100
AcDbEntity
  8
0
  6
CONTINUOUS
 62
    7
370
   18
100
AcDbLine
 10
0
 20
252.49999999999
 11
-5.999999999999147
 21
252.49999999999
  0
LINE
  5
63
100
AcDbEntity
  8
0
  6
CONTINUOUS
 62
    7
370
   18
100
AcDbLine
 10
-5.999999999999147
 20
243.3999999999899
 11
0
 21
243.3999999999899
  0
LINE
  5
64
100
AcDbEntity
  8
0
  6
CONTINUOUS
 62
    7
370
   18
100
AcDbLine
 10
-5.999999999999147
 20
267.3999999999899
 11
-5.999999999999147
 21
276.49999999999
  0
LINE
  5
65
100
AcDbEntity
  8
0
  6
CONTINUOUS
 62
    7
370
   18
100
AcDbLine
 10
-5.999999999999147
 20
243.3999999999899
 11
-5.999999999999147
 21
252.49999999999
  0
LINE
  5
66
100
AcDbEntity
  8
0
  6
CONTINUOUS
 62
    7
370
   18
100
AcDbLine
 10
-5.999999999999147
 20
276.49999999999
 11
0
 21
276.49999999999
  0
LINE
  5
67
100
AcDbEntity
  8
0
  6
CONTINUOUS
 62
    7
370
   18
100
AcDbLine
 10
87.35000000000116
 20
329.899999999991
 11
93.25000000000085
 21
329.899999999991
  0
LINE
  5
68
100
AcDbEntity
  8
0
  6
CONTINUOUS
 62
    7
370
   18
100
AcDbLine
 10
96.25000000000085
 20
329.899999999991
 11
102.2500000000009
 21
329.899999999991
  0
LINE
  5
69
100
AcDbEntity
  8
0
  6
CONTINUOUS
 62
    7
370
   18
100
AcDbLine
 10
102.2500000000009
 20
329.899999999991
 11
102.2500000000009
 21
335.8999999999899
  0
LINE
  5
6A
100
AcDbEntity
  8
0
  6
CONTINUOUS
 62
    7
370
   18
100
AcDbLine
 10
87.35000000000116
 20
329.899999999991
 11
87.35000000000116
 21
335.8999999999899
  0
LINE
  5
6B
100
AcDbEntity
  8
0
  6
CONTINUOUS
 62
    7
370
   18
100
AcDbLine
 10
78.25000000000085
 20
335.8999999999899
 11
78.25000000000085
 21
329.899999999991
  0
LINE
  5
6C
100
AcDbEntity
  8
0
  6
CONTINUOUS
 62
    7
370
   18
100
AcDbLine
 10
102.2500000000009
 20
335.8999999999899
 11
111.3500000000012
 21
335.8999999999899
  0
LINE
  5
6D
100
AcDbEntity
  8
0
  6
CONTINUOUS
 62
    7
370
   18
100
AcDbLine
 10
78.25000000000085
 20
335.8999999999899
 11
87.35000000000116
 21
335.8999999999899
  0
LINE
  5
6E
100
AcDbEntity
  8
0
  6
CONTINUOUS
 62
    7
370
   18
100
AcDbLine
 10
111.3500000000012
 20
335.8999999999899
 11
111.3500000000012
 21
329.899999999991
  0
LINE
  5
6F
100
AcDbEntity
  8
0
  6
CONTINUOUS
 62
    7
370
   18
100
AcDbLine
 10
177.3500000000012
 20
329.899999999991
 11
183.2500000000009
 21
329.899999999991
  0
LINE
  5
70
100
AcDbEntity
  8
0
  6
CONTINUOUS
 62
    7
370
   18
100
AcDbLine
 10
186.2500000000009
 20
329.899999999991
 11
192.2500000000009
 21
329.899999999991
  0
LINE
  5
71
100
AcDbEntity
  8
0
  6
CONTINUOUS
 62
    7
370
   18
100
AcDbLine
 10
192.2500000000009
 20
329.899999999991
 11
192.2500000000009
 21
335.8999999999899
  0
LINE
  5
72
100
AcDbEntity
  8
0
  6
CONTINUOUS
 62
    7
370
   18
100
AcDbLine
 10
177.3500000000012
 20
329.899999999991
 11
177.3500000000012
 21
335.8999999999899
  0
LINE
  5
73
100
AcDbEntity
  8
0
  6
CONTINUOUS
 62
    7
370
   18
100
AcDbLine
 10
168.25
 20
335.8999999999899
 11
168.25
 21
329.899999999991
  0
LINE
  5
74
100
AcDbEntity
  8
0
  6
CONTINUOUS
 62
    7
370
   18
100
AcDbLine
 10
192.2500000000009
 20
335.8999999999899
 11
201.3500000000012
 21
335.8999999999899
  0
LINE
  5
75
100
AcDbEntity
  8
0
  6
CONTINUOUS
 62
    7
370
   18
100
AcDbLine
 10
168.25
 20
335.8999999999899
 11
177.3500000000012
 21
335.8999999999899
  0
LINE
  5
76
100
AcDbEntity
  8
0
  6
CONTINUOUS
 62
    7
370
   18
100
AcDbLine
 10
201.3500000000012
 20
335.8999999999899
 11
201.3500000000012
 21
329.899999999991
  0
LINE
  5
77
100
AcDbEntity
  8
0
  6
CONTINUOUS
 62
    7
370
   18
100
AcDbLine
 10
0
 20
0
 11
0
 21
53.39999999998989
  0
LINE
  5
78
100
AcDbEntity
  8
0
  6
CONTINUOUS
 62
    7
370
   18
100
AcDbLine
 10
0
 20
329.8999999999899
 11
0
 21
276.49999999999
  0
LINE
  5
79
100
AcDbEntity
  8
0
  6
CONTINUOUS
 62
    7
370
   18
100
AcDbLine
 10
0
 20
86.49999999999
 11
8.526512829121202e-13
 21
123
  0
LINE
  5
7A
100
AcDbEntity
  8
0
  6
CONTINUOUS
 62
    7
370
   18
100
AcDbLine
 10
-2.285105438204482e-11
 20
130
 11
0
 21
148.4499999999898
  0
LINE
  5
7B
100
AcDbEntity
  8
0
  6
CONTINUOUS
 62
    7
370
   18
100
AcDbLine
 10
0
 20
157.54999999999
 11
0
 21
163.4499999999898
  0
LINE
  5
7C
100
AcDbEntity
  8
0
  6
CONTINUOUS
 62
    7
370
   18
100
AcDbLine
 10
0
 20
166.4499999999898
 11
0
 21
172.4499999999898
  0
LINE
  5
7D
100
AcDbEntity
  8
0
  6
CONTINUOUS
 62
    7
370
   18
100
AcDbLine
 10
0
 20
181.5499999999888
 11
0
 21
243.3999999999899
  0
LINE
  5
7E
100
AcDbEntity
  8
0
  6
CONTINUOUS
 62
    7
370
   18
100
AcDbLine
 10
0
 20
329.899999999991
 11
78.25000000000085
 21
329.899999999991
  0
LINE
  5
7F
100
AcDbEntity
  8
0
  6
CONTINUOUS
 62
    7
370
   18
100
AcDbLine
 10
279.600000000024
 20
329.8999999999899
 11
201.3500000000012
 21
329.899999999991
  0
LINE
  5
80
100
AcDbEntity
  8
0
  6
CONTINUOUS
 62
    7
370
   18
100
AcDbLine
 10
111.3500000000012
 20
329.899999999991
 11
168.25
 21
329.899999999991
  0
LINE
  5
81
100
AcDbEntity
  8
0
  6
CONTINUOUS
 62
    7
370
   18
100
AcDbLine
 10
279.600000000024
 20
62.49999999999
 11
279.600000000024
 21
68.39999999998989
  0
LINE
  5
82
100
AcDbEntity
  8
0
  6
CONTINUOUS
 62
    7
370
   18
100
AcDbLine
 10
279.600000000024
 20
71.39999999998989
 11
279.600000000024
 21
77.39999999998989
  0
LINE
  5
83
100
AcDbEntity
  8
0
  6
CONTINUOUS
 62
    7
370
   18
100
AcDbLine
 10
279.600000000024
 20
77.39999999998989
 11
285.600000000024
 21
77.39999999998989
  0
LINE
  5
84
100
AcDbEntity
  8
0
  6
CONTINUOUS
 62
    7
370
   18
100
AcDbLine
 10
279.600000000024
 20
62.49999999999
 11
285.600000000024
 21
62.49999999999
  0
LINE
  5
85
100
AcDbEntity
  8
0
  6
CONTINUOUS
 62
    7
370
   18
100
AcDbLine
 10
285.600000000024
 20
53.39999999998989
 11
279.600000000024
 21
53.39999999998989
  0
LINE
  5
86
100
AcDbEntity
  8
0
  6
CONTINUOUS
 62
    7
370
   18
100
AcDbLine
 10
285.600000000024
 20
77.39999999998989
 11
285.600000000024
 21
86.49999999999
  0
LINE
  5
87
100
AcDbEntity
  8
0
  6
CONTINUOUS
 62
    7
370
   18
100
AcDbLine
 10
285.600000000024
 20
53.39999999998989
 11
285.600000000024
 21
62.49999999999
  0
LINE
  5
88
100
AcDbEntity
  8
0
  6
CONTINUOUS
 62
    7
370
   18
100
AcDbLine
 10
285.600000000024
 20
86.49999999999
 11
279.600000000024
 21
86.49999999999
  0
LINE
  5
89
100
AcDbEntity
  8
0
  6
CONTINUOUS
 62
    7
370
   18
100
AcDbLine
 10
279.600000000024
 20
172.4499999999898
 11
285.600000000024
 21
172.4499999999898
  0
LINE
  5
8A
100
AcDbEntity
  8
0
  6
CONTINUOUS
 62
    7
370
   18
100
AcDbLine
 10
279.600000000024
 20
157.54999999999
 11
285.600000000024
 21
157.54999999999
  0
LINE
  5
8B
100
AcDbEntity
  8
0
  6
CONTINUOUS
 62
    7
370
   18
100
AcDbLine
 10
285.600000000024
 20
148.4499999999889
 11
279.600000000024
 21
148.4499999999889
  0
LINE
  5
8C
100
AcDbEntity
  8
0
  6
CONTINUOUS
 62
    7
370
   18
100
AcDbLine
 10
285.600000000024
 20
172.4499999999898
 11
285.600000000024
 21
181.5499999999888
  0
LINE
  5
8D
100
AcDbEntity
  8
0
  6
CONTINUOUS
 62
    7
370
   18
100
AcDbLine
 10
285.600000000024
 20
148.4499999999889
 11
285.600000000024
 21
157.54999999999
  0
LINE
  5
8E
100
AcDbEntity
  8
0
  6
CONTINUOUS
 62
    7
370
   18
100
AcDbLine
 10
285.600000000024
 20
181.5499999999888
 11
279.600000000024
 21
181.5499999999888
  0
LINE
  5
8F
100
AcDbEntity
  8
0
  6
CONTINUOUS
 62
    7
370
   18
100
AcDbLine
 10
279.600000000024
 20
252.49999999999
 11
279.600000000024
 21
258.3999999999899
  0
LINE
  5
90
100
AcDbEntity
  8
0
  6
CONTINUOUS
 62
    7
370
   18
100
AcDbLine
 10
279.600000000024
 20
261.3999999999899
 11
279.600000000024
 21
267.3999999999899
  0
LINE
  5
91
100
AcDbEntity
  8
0
  6
CONTINUOUS
 62
    7
370
   18
100
AcDbLine
 10
279.600000000024
 20
267.3999999999899
 11
285.600000000024
 21
267.3999999999899
  0
LINE
  5
92
100
AcDbEntity
  8
0
  6
CONTINUOUS
 62
    7
370
   18
100
AcDbLine
 10
279.600000000024
 20
252.49999999999
 11
285.600000000024
 21
252.49999999999
  0
LINE
  5
93
100
AcDbEntity
  8
0
  6
CONTINUOUS
 62
    7
370
   18
100
AcDbLine
 10
285.600000000024
 20
243.3999999999899
 11
279.600000000024
 21
243.3999999999899
  0
LINE
  5
94
100
AcDbEntity
  8
0
  6
CONTINUOUS
 62
    7
370
   18
100
AcDbLine
 10
285.600000000024
 20
267.3999999999899
 11
285.600000000024
 21
276.4999999999889
  0
LINE
  5
95
100
AcDbEntity
  8
0
  6
CONTINUOUS
 62
    7
370
   18
100
AcDbLine
 10
285.600000000024
 20
243.3999999999899
 11
285.600000000024
 21
252.49999999999
  0
LINE
  5
96
100
AcDbEntity
  8
0
  6
CONTINUOUS
 62
    7
370
   18
100
AcDbLine
 10
285.600000000024
 20
276.4999999999889
 11
279.600000000024
 21
276.4999999999889
  0
LINE
  5
97
100
AcDbEntity
  8
0
  6
CONTINUOUS
 62
    7
370
   18
100
AcDbLine
 10
279.600000000024
 20
2.796696207951754e-11
 11
279.600000000024
 21
53.39999999998989
  0
LINE
  5
98
100
AcDbEntity
  8
0
  6
CONTINUOUS
 62
    7
370
   18
100
AcDbLine
 10
279.600000000024
 20
329.8999999999899
 11
279.600000000024
 21
276.4999999999889
  0
LINE
  5
99
100
AcDbEntity
  8
0
  6
CONTINUOUS
 62
    7
370
   18
100
AcDbLine
 10
279.600000000024
 20
86.49999999999
 11
279.600000000024
 21
123
  0
LINE
  5
9A
100
AcDbEntity
  8
0
  6
CONTINUOUS
 62
    7
370
   18
100
AcDbLine
 10
279.600000000024
 20
130
 11
279.600000000024
 21
148.4499999999889
  0
LINE
  5
9B
100
AcDbEntity
  8
0
  6
CONTINUOUS
 62
    7
370
   18
100
AcDbLine
 10
279.600000000024
 20
157.54999999999
 11
279.600000000024
 21
163.4499999999898
  0
LINE
  5
9C
100
AcDbEntity
  8
0
  6
CONTINUOUS
 62
    7
370
   18
100
AcDbLine
 10
279.600000000024
 20
166.4499999999898
 11
279.600000000024
 21
172.4499999999898
  0
LINE
  5
9D
100
AcDbEntity
  8
0
  6
CONTINUOUS
 62
    7
370
   18
100
AcDbLine
 10
279.600000000024
 20
181.5499999999888
 11
279.600000000024
 21
243.3999999999899
  0
LINE
  5
9E
100
AcDbEntity
  8
0
  6
CONTINUOUS
 62
    7
370
   18
100
AcDbLine
 10
87.34999999999985
 20
9.094947017729282e-13
 11
93.25
 21
1.818989403545856e-12
  0
LINE
  5
9F
100
AcDbEntity
  8
0
  6
CONTINUOUS
 62
    7
370
   18
100
AcDbLine
 10
96.25
 20
1.818989403545856e-12
 11
102.25
 21
2.955857780762017e-12
  0
LINE
  5
A0
100
AcDbEntity
  8
0
  6
CONTINUOUS
 62
    7
370
   18
100
AcDbLine
 10
102.25
 20
2.955857780762017e-12
 11
102.2500000000009
 21
-5.999999999997044
  0
LINE
  5
A1
100
AcDbEntity
  8
0
  6
CONTINUOUS
 62
    7
370
   18
100
AcDbLine
 10
87.34999999999985
 20
9.094947017729282e-13
 11
87.35000000000116
 21
-5.999999999999091
  0
LINE
  5
A2
100
AcDbEntity
  8
0
  6
CONTINUOUS
 62
    7
370
   18
100
AcDbLine
 10
78.25000000000085
 20
-6
 11
78.25
 21
0
  0
LINE
  5
A3
100
AcDbEntity
  8
0
  6
CONTINUOUS
 62
    7
370
   18
100
AcDbLine
 10
102.2500000000009
 20
-5.999999999997044
 11
111.3500000000012
 21
-5.999999999996135
  0
LINE
  5
A4
100
AcDbEntity
  8
0
  6
CONTINUOUS
 62
    7
370
   18
100
AcDbLine
 10
78.25000000000085
 20
-6
 11
87.35000000000116
 21
-5.999999999999091
  0
LINE
  5
A5
100
AcDbEntity
  8
0
  6
CONTINUOUS
 62
    7
370
   18
100
AcDbLine
 10
111.3500000000012
 20
-5.999999999996135
 11
111.349999999999
 21
3.865352482534945e-12
  0
LINE
  5
A6
100
AcDbEntity
  8
0
  6
CONTINUOUS
 62
    7
370
   18
100
AcDbLine
 10
177.25
 20
1.296029950026423e-11
 11
183.1500000000001
 21
1.386979420203716e-11
  0
LINE
  5
A7
100
AcDbEntity
  8
0
  6
CONTINUOUS
 62
    7
370
   18
100
AcDbLine
 10
186.1500000000001
 20
1.386979420203716e-11
 11
192.1500000000001
 21
1.500666257925332e-11
  0
LINE
  5
A8
100
AcDbEntity
  8
0
  6
CONTINUOUS
 62
    7
370
   18
100
AcDbLine
 10
192.1500000000001
 20
1.500666257925332e-11
 11
192.1500000000009
 21
-5.999999999984993
  0
LINE
  5
A9
100
AcDbEntity
  8
0
  6
CONTINUOUS
 62
    7
370
   18
100
AcDbLine
 10
177.25
 20
1.296029950026423e-11
 11
177.2500000000009
 21
-5.99999999998704
  0
LINE
  5
AA
100
AcDbEntity
  8
0
  6
CONTINUOUS
 62
    7
370
   18
100
AcDbLine
 10
168.1500000000009
 20
-5.999999999989086
 11
168.1500000000001
 21
1.182343112304807e-11
  0
LINE
  5
AB
100
AcDbEntity
  8
0
  6
CONTINUOUS
 62
    7
370
   18
100
AcDbLine
 10
192.1500000000009
 20
-5.999999999984993
 11
201.2500000000009
 21
-5.999999999983174
  0
LINE
  5
AC
100
AcDbEntity
  8
0
  6
CONTINUOUS
 62
    7
370
   18
100
AcDbLine
 10
168.1500000000009
 20
-5.999999999989086
 11
177.2500000000009
 21
-5.99999999998704
  0
LINE
  5
AD
100
AcDbEntity
  8
0
  6
CONTINUOUS
 62
    7
370
   18
100
AcDbLine
 10
201.2500000000009
 20
-5.999999999983174
 11
201.25
 21
1.591615728102624e-11
  0
LINE
  5
AE
100
AcDbEntity
  8
0
  6
CONTINUOUS
 62
    7
370
   18
100
AcDbLine
 10
0
 20
0
 11
78.25
 21
0
  0
LINE
  5
AF
100
AcDbEntity
  8
0
  6
CONTINUOUS
 62
    7
370
   18
100
AcDbLine
 10
279.600000000024
 20
1.887201506178826e-11
 11
201.25
 21
1.887201506178826e-11
  0
LINE
  5
B0
100
AcDbEntity
  8
0
  6
CONTINUOUS
 62
    7
370
   18
100
AcDbLine
 10
111.349999999999
 20
3.865352482534945e-12
 11
143.5500000000069
 21
3.865352482534945e-12
  0
LINE
  5
B1
100
AcDbEntity
  8
0
  6
CONTINUOUS
 62
    7
370
   18
100
AcDbLine
 10
150.0500000000069
 20
8.86757334228605e-12
 11
168.1500000000001
 21
1.182343112304807e-11
  0
LINE
  5
B2
100
AcDbEntity
  8
0
  6
CONTINUOUS
 62
    7
370
   18
100
AcDbLine
 10
150.0500000000069
 20
9.000000000008896
 11
150.0500000000069
 21
8.86757334228605e-12
  0
LINE
  5
B3
100
AcDbEntity
  8
0
  6
CONTINUOUS
 62
    7
370
   18
100
AcDbLine
 10
150.0500000000069
 20
9.000000000008896
 11
143.5500000000069
 21
9.000000000008896
  0
LINE
  5
B4
100
AcDbEntity
  8
0
  6
CONTINUOUS
 62
    7
370
   18
100
AcDbLine
 10
143.5500000000069
 20
9.000000000008896
 11
143.5500000000069
 21
8.86757334228605e-12
  0
LINE
  5
B5
100
AcDbEntity
  8
0
  6
CONTINUOUS
 62
    7
370
   18
100
AcDbLine
 10
269.9000000000241
 20
123
 11
279.600000000024
 21
123
  0
LINE
  5
B6
100
AcDbEntity
  8
0
  6
CONTINUOUS
 62
    7
370
   18
100
AcDbLine
 10
279.600000000024
 20
130
 11
269.9000000000241
 21
130
  0
LINE
  5
B7
100
AcDbEntity
  8
0
  6
CONTINUOUS
 62
    7
370
   18
100
AcDbLine
 10
269.9000000000241
 20
130
 11
269.9000000000241
 21
123
  0
LINE
  5
B8
100
AcDbEntity
  8
0
  6
CONTINUOUS
 62
    7
370
   18
100
AcDbLine
 10
9.699999999977081
 20
123
 11
-2.285105438204482e-11
 21
123
  0
LINE
  5
B9
100
AcDbEntity
  8
0
  6
CONTINUOUS
 62
    7
370
   18
100
AcDbLine
 10
-2.285105438204482e-11
 20
130
 11
9.699999999977081
 21
130
  0
LINE
  5
BA
100
AcDbEntity
  8
0
  6
CONTINUOUS
 62
    7
370
   18
100
AcDbLine
 10
9.699999999977081
 20
130
 11
9.699999999977081
 21
123
  0
LINE
  5
BB
100
AcDbEntity
  8
0
  6
CONTINUOUS
 62
    7
370
   18
100
AcDbLine
 10
0
 20
258.3999999999899
 11
7.500000000000853
 21
258.3999999999899
  0
LINE
  5
BC
100
AcDbEntity
  8
0
  6
CONTINUOUS
 62
    7
370
   18
100
AcDbLine
 10
9.800000000001091
 20
258.3999999999899
 11
15.00000000000085
 21
258.3999999999899
  0
LINE
  5
BD
100
AcDbEntity
  8
0
  6
CONTINUOUS
 62
    7
370
   18
100
AcDbLine
 10
15.00000000000085
 20
258.3999999999899
 11
15.00000000000085
 21
261.3999999999899
  0
LINE
  5
BE
100
AcDbEntity
  8
0
  6
CONTINUOUS
 62
    7
370
   18
100
AcDbLine
 10
15.00000000000085
 20
261.3999999999899
 11
9.800000000001091
 21
261.3999999999899
  0
LINE
  5
BF
100
AcDbEntity
  8
0
  6
CONTINUOUS
 62
    7
370
   18
100
AcDbLine
 10
7.500000000000853
 20
261.3999999999899
 11
0
 21
261.3999999999899
  0
LINE
  5
C0
100
AcDbEntity
  8
0
  6
CONTINUOUS
 62
    7
370
   18
100
AcDbLine
 10
7.500000000000853
 20
261.3999999999899
 11
7.500000000000853
 21
262.3999999999899
  0
LINE
  5
C1
100
AcDbEntity
  8
0
  6
CONTINUOUS
 62
    7
370
   18
100
AcDbLine
 10
7.500000000000853
 20
262.3999999999899
 11
9.800000000001091
 21
262.3999999999899
  0
LINE
  5
C2
100
AcDbEntity
  8
0
  6
CONTINUOUS
 62
    7
370
   18
100
AcDbLine
 10
9.800000000001091
 20
262.3999999999899
 11
9.800000000001091
 21
261.3999999999899
  0
LINE
  5
C3
100
AcDbEntity
  8
0
  6
CONTINUOUS
 62
    7
370
   18
100
AcDbLine
 10
9.800000000001091
 20
258.3999999999899
 11
9.800000000001091
 21
257.3999999999899
  0
LINE
  5
C4
100
AcDbEntity
  8
0
  6
CONTINUOUS
 62
    7
370
   18
100
AcDbLine
 10
9.800000000001091
 20
257.3999999999899
 11
7.500000000000853
 21
257.3999999999899
  0
LINE
  5
C5
100
AcDbEntity
  8
0
  6
CONTINUOUS
 62
    7
370
   18
100
AcDbLine
 10
7.500000000000853
 20
257.3999999999899
 11
7.500000000000853
 21
258.3999999999899
  0
LINE
  5
C6
100
AcDbEntity
  8
0
  6
CONTINUOUS
 62
    7
370
   18
100
AcDbLine
 10
0
 20
163.4499999999898
 11
7.500000000000853
 21
163.4499999999898
  0
LINE
  5
C7
100
AcDbEntity
  8
0
  6
CONTINUOUS
 62
    7
370
   18
100
AcDbLine
 10
9.800000000001091
 20
163.4499999999898
 11
15.00000000000085
 21
163.4499999999898
  0
LINE
  5
C8
100
AcDbEntity
  8
0
  6
CONTINUOUS
 62
    7
370
   18
100
AcDbLine
 10
15.00000000000085
 20
163.4499999999898
 11
15.00000000000085
 21
166.4499999999898
  0
LINE
  5
C9
100
AcDbEntity
  8
0
  6
CONTINUOUS
 62
    7
370
   18
100
AcDbLine
 10
15.00000000000085
 20
166.4499999999898
 11
9.800000000001091
 21
166.4499999999898
  0
LINE
  5
CA
100
AcDbEntity
  8
0
  6
CONTINUOUS
 62
    7
370
   18
100
AcDbLine
 10
7.500000000000853
 20
166.4499999999898
 11
0
 21
166.4499999999898
  0
LINE
  5
CB
100
AcDbEntity
  8
0
  6
CONTINUOUS
 62
    7
370
   18
100
AcDbLine
 10
7.500000000000853
 20
166.4499999999898
 11
7.500000000000853
 21
167.4499999999898
  0
LINE
  5
CC
100
AcDbEntity
  8
0
  6
CONTINUOUS
 62
    7
370
   18
100
AcDbLine
 10
7.500000000000853
 20
167.4499999999898
 11
9.800000000001091
 21
167.4499999999898
  0
LINE
  5
CD
100
AcDbEntity
  8
0
  6
CONTINUOUS
 62
    7
370
   18
100
AcDbLine
 10
9.800000000001091
 20
167.4499999999898
 11
9.800000000001091
 21
166.4499999999898
  0
LINE
  5
CE
100
AcDbEntity
  8
0
  6
CONTINUOUS
 62
    7
370
   18
100
AcDbLine
 10
9.800000000001091
 20
163.4499999999898
 11
9.800000000001091
 21
162.4499999999889
  0
LINE
  5
CF
100
AcDbEntity
  8
0
  6
CONTINUOUS
 62
    7
370
   18
100
AcDbLine
 10
9.800000000001091
 20
162.4499999999889
 11
7.500000000000853
 21
162.4499999999898
  0
LINE
  5
D0
100
AcDbEntity
  8
0
  6
CONTINUOUS
 62
    7
370
   18
100
AcDbLine
 10
7.500000000000853
 20
162.4499999999898
 11
7.500000000000853
 21
163.4499999999898
  0
LINE
  5
D1
100
AcDbEntity
  8
0
  6
CONTINUOUS
 62
    7
370
   18
100
AcDbLine
 10
0
 20
68.39999999998989
 11
7.500000000000853
 21
68.39999999998989
  0
LINE
  5
D2
100
AcDbEntity
  8
0
  6
CONTINUOUS
 62
    7
370
   18
100
AcDbLine
 10
9.800000000001091
 20
68.39999999998989
 11
15.00000000000085
 21
68.39999999998989
  0
LINE
  5
D3
100
AcDbEntity
  8
0
  6
CONTINUOUS
 62
    7
370
   18
100
AcDbLine
 10
15.00000000000085
 20
68.39999999998989
 11
15.00000000000085
 21
71.39999999998989
  0
LINE
  5
D4
100
AcDbEntity
  8
0
  6
CONTINUOUS
 62
    7
370
   18
100
AcDbLine
 10
15.00000000000085
 20
71.39999999998989
 11
9.800000000001091
 21
71.39999999998989
  0
LINE
  5
D5
100
AcDbEntity
  8
0
  6
CONTINUOUS
 62
    7
370
   18
100
AcDbLine
 10
7.500000000000853
 20
71.39999999998989
 11
0
 21
71.39999999998989
  0
LINE
  5
D6
100
AcDbEntity
  8
0
  6
CONTINUOUS
 62
    7
370
   18
100
AcDbLine
 10
7.500000000000853
 20
71.39999999998989
 11
7.500000000000853
 21
72.39999999998989
  0
LINE
  5
D7
100
AcDbEntity
  8
0
  6
CONTINUOUS
 62
    7
370
   18
100
AcDbLine
 10
7.500000000000853
 20
72.39999999998989
 11
9.800000000001091
 21
72.39999999998989
  0
LINE
  5
D8
100
AcDbEntity
  8
0
  6
CONTINUOUS
 62
    7
370
   18
100
AcDbLine
 10
9.800000000001091
 20
72.39999999998989
 11
9.800000000001091
 21
71.39999999998989
  0
LINE
  5
D9
100
AcDbEntity
  8
0
  6
CONTINUOUS
 62
    7
370
   18
100
AcDbLine
 10
9.800000000001091
 20
68.39999999998989
 11
9.800000000001091
 21
67.39999999998989
  0
LINE
  5
DA
100
AcDbEntity
  8
0
  6
CONTINUOUS
 62
    7
370
   18
100
AcDbLine
 10
9.800000000001091
 20
67.39999999998989
 11
7.500000000000853
 21
67.39999999998989
  0
LINE
  5
DB
100
AcDbEntity
  8
0
  6
CONTINUOUS
 62
    7
370
   18
100
AcDbLine
 10
7.500000000000853
 20
67.39999999998989
 11
7.500000000000853
 21
68.39999999998989
  0
LINE
  5
DC
100
AcDbEntity
  8
0
  6
CONTINUOUS
 62
    7
370
   18
100
AcDbLine
 10
186.1500000000001
 20
1.386979420203716e-11
 11
186.1500000000001
 21
7.500000000013898
  0
LINE
  5
DD
100
AcDbEntity
  8
0
  6
CONTINUOUS
 62
    7
370
   18
100
AcDbLine
 10
186.1500000000001
 20
9.800000000013796
 11
186.1500000000001
 21
15.0000000000139
  0
LINE
  5
DE
100
AcDbEntity
  8
0
  6
CONTINUOUS
 62
    7
370
   18
100
AcDbLine
 10
186.1500000000001
 20
15.0000000000139
 11
183.1500000000001
 21
15.0000000000139
  0
LINE
  5
DF
100
AcDbEntity
  8
0
  6
CONTINUOUS
 62
    7
370
   18
100
AcDbLine
 10
183.1500000000001
 20
15.0000000000139
 11
183.1500000000001
 21
9.800000000013796
  0
LINE
  5
E0
100
AcDbEntity
  8
0
  6
CONTINUOUS
 62
    7
370
   18
100
AcDbLine
 10
183.1500000000001
 20
7.500000000013898
 11
183.1500000000001
 21
1.386979420203716e-11
  0
LINE
  5
E1
100
AcDbEntity
  8
0
  6
CONTINUOUS
 62
    7
370
   18
100
AcDbLine
 10
183.1500000000001
 20
7.500000000013898
 11
182.1500000000001
 21
7.500000000013898
  0
LINE
  5
E2
100
AcDbEntity
  8
0
  6
CONTINUOUS
 62
    7
370
   18
100
AcDbLine
 10
182.1500000000001
 20
7.500000000013898
 11
182.1500000000001
 21
9.800000000013796
  0
LINE
  5
E3
100
AcDbEntity
  8
0
  6
CONTINUOUS
 62
    7
370
   18
100
AcDbLine
 10
182.1500000000001
 20
9.800000000013796
 11
183.1500000000001
 21
9.800000000013796
  0
LINE
  5
E4
100
AcDbEntity
  8
0
  6
CONTINUOUS
 62
    7
370
   18
100
AcDbLine
 10
186.1500000000001
 20
9.800000000013796
 11
187.1500000000001
 21
9.800000000013796
  0
LINE
  5
E5
100
AcDbEntity
  8
0
  6
CONTINUOUS
 62
    7
370
   18
100
AcDbLine
 10
187.1500000000001
 20
9.800000000013796
 11
187.1500000000001
 21
7.500000000013898
  0
LINE
  5
E6
100
AcDbEntity
  8
0
  6
CONTINUOUS
 62
    7
370
   18
100
AcDbLine
 10
187.1500000000001
 20
7.500000000013898
 11
186.1500000000001
 21
7.500000000013898
  0
LINE
  5
E7
100
AcDbEntity
  8
0
  6
CONTINUOUS
 62
    7
370
   18
100
AcDbLine
 10
96.25
 20
1.818989403545856e-12
 11
96.25
 21
7.500000000001805
  0
LINE
  5
E8
100
AcDbEntity
  8
0
  6
CONTINUOUS
 62
    7
370
   18
100
AcDbLine
 10
96.25
 20
9.800000000002001
 11
96.25
 21
15.0000000000018
  0
LINE
  5
E9
100
AcDbEntity
  8
0
  6
CONTINUOUS
 62
    7
370
   18
100
AcDbLine
 10
96.25
 20
15.0000000000018
 11
93.25
 21
15.0000000000018
  0
LINE
  5
EA
100
AcDbEntity
  8
0
  6
CONTINUOUS
 62
    7
370
   18
100
AcDbLine
 10
93.25
 20
15.0000000000018
 11
93.25
 21
9.800000000002001
  0
LINE
  5
EB
100
AcDbEntity
  8
0
  6
CONTINUOUS
 62
    7
370
   18
100
AcDbLine
 10
93.25
 20
7.500000000001805
 11
93.25
 21
1.818989403545856e-12
  0
LINE
  5
EC
100
AcDbEntity
  8
0
  6
CONTINUOUS
 62
    7
370
   18
100
AcDbLine
 10
93.25
 20
7.500000000001805
 11
92.25
 21
7.500000000001805
  0
LINE
  5
ED
100
AcDbEntity
  8
0
  6
CONTINUOUS
 62
    7
370
   18
100
AcDbLine
 10
92.25
 20
7.500000000001805
 11
92.25
 21
9.800000000002001
  0
LINE
  5
EE
100
AcDbEntity
  8
0
  6
CONTINUOUS
 62
    7
370
   18
100
AcDbLine
 10
92.25
 20
9.800000000002001
 11
93.25
 21
9.800000000002001
  0
LINE
  5
EF
100
AcDbEntity
  8
0
  6
CONTINUOUS
 62
    7
370
   18
100
AcDbLine
 10
96.25
 20
9.800000000002001
 11
97.25
 21
9.800000000002001
  0
LINE
  5
F0
100
AcDbEntity
  8
0
  6
CONTINUOUS
 62
    7
370
   18
100
AcDbLine
 10
97.25
 20
9.800000000002001
 11
97.25
 21
7.500000000001805
  0
LINE
  5
F1
100
AcDbEntity
  8
0
  6
CONTINUOUS
 62
    7
370
   18
100
AcDbLine
 10
97.25
 20
7.500000000001805
 11
96.25
 21
7.500000000001805
  0
LINE
  5
F2
100
AcDbEntity
  8
0
  6
CONTINUOUS
 62
    7
370
   18
100
AcDbLine
 10
279.600000000024
 20
71.39999999998989
 11
272.100000000024
 21
71.39999999998989
  0
LINE
  5
F3
100
AcDbEntity
  8
0
  6
CONTINUOUS
 62
    7
370
   18
100
AcDbLine
 10
269.8000000000242
 20
71.39999999998989
 11
264.600000000024
 21
71.39999999998989
  0
LINE
  5
F4
100
AcDbEntity
  8
0
  6
CONTINUOUS
 62
    7
370
   18
100
AcDbLine
 10
264.600000000024
 20
71.39999999998989
 11
264.600000000024
 21
68.39999999998989
  0
LINE
  5
F5
100
AcDbEntity
  8
0
  6
CONTINUOUS
 62
    7
370
   18
100
AcDbLine
 10
264.600000000024
 20
68.39999999998989
 11
269.8000000000242
 21
68.39999999998989
  0
LINE
  5
F6
100
AcDbEntity
  8
0
  6
CONTINUOUS
 62
    7
370
   18
100
AcDbLine
 10
272.100000000024
 20
68.39999999998989
 11
279.600000000024
 21
68.39999999998989
  0
LINE
  5
F7
100
AcDbEntity
  8
0
  6
CONTINUOUS
 62
    7
370
   18
100
AcDbLine
 10
272.100000000024
 20
68.39999999998989
 11
272.100000000024
 21
67.39999999998989
  0
LINE
  5
F8
100
AcDbEntity
  8
0
  6
CONTINUOUS
 62
    7
370
   18
100
AcDbLine
 10
272.100000000024
 20
67.39999999998989
 11
269.8000000000242
 21
67.39999999998989
  0
LINE
  5
F9
100
AcDbEntity
  8
0
  6
CONTINUOUS
 62
    7
370
   18
100
AcDbLine
 10
269.8000000000242
 20
67.39999999998989
 11
269.8000000000242
 21
68.39999999998989
  0
LINE
  5
FA
100
AcDbEntity
  8
0
  6
CONTINUOUS
 62
    7
370
   18
100
AcDbLine
 10
269.8000000000242
 20
71.39999999998989
 11
269.8000000000242
 21
72.39999999998989
  0
LINE
  5
FB
100
AcDbEntity
  8
0
  6
CONTINUOUS
 62
    7
370
   18
100
AcDbLine
 10
269.8000000000242
 20
72.39999999998989
 11
272.100000000024
 21
72.39999999998989
  0
LINE
  5
FC
100
AcDbEntity
  8
0
  6
CONTINUOUS
 62
    7
370
   18
100
AcDbLine
 10
272.100000000024
 20
72.39999999998989
 11
272.100000000024
 21
71.39999999998989
  0
LINE
  5
FD
100
AcDbEntity
  8
0
  6
CONTINUOUS
 62
    7
370
   18
100
AcDbLine
 10
279.600000000024
 20
166.4499999999898
 11
272.100000000024
 21
166.4499999999898
  0
LINE
  5
FE
100
AcDbEntity
  8
0
  6
CONTINUOUS
 62
    7
370
   18
100
AcDbLine
 10
269.8000000000242
 20
166.4499999999898
 11
264.600000000024
 21
166.4499999999898
  0
LINE
  5
FF
100
AcDbEntity
  8
0
  6
CONTINUOUS
 62
    7
370
   18
100
AcDbLine
 10
264.600000000024
 20
166.4499999999898
 11
264.600000000024
 21
163.4499999999898
  0
LINE
  5
100
100
AcDbEntity
  8
0
  6
CONTINUOUS
 62
    7
370
   18
100
AcDbLine
 10
264.600000000024
 20
163.4499999999898
 11
269.8000000000242
 21
163.4499999999898
  0
LINE
  5
101
100
AcDbEntity
  8
0
  6
CONTINUOUS
 62
    7
370
   18
100
AcDbLine
 10
272.100000000024
 20
163.4499999999898
 11
279.600000000024
 21
163.4499999999898
  0
LINE
  5
102
100
AcDbEntity
  8
0
  6
CONTINUOUS
 62
    7
370
   18
100
AcDbLine
 10
272.100000000024
 20
163.4499999999898
 11
272.100000000024
 21
162.4499999999889
  0
LINE
  5
103
100
AcDbEntity
  8
0
  6
CONTINUOUS
 62
    7
370
   18
100
AcDbLine
 10
272.100000000024
 20
162.4499999999889
 11
269.8000000000242
 21
162.4499999999889
  0
LINE
  5
104
100
AcDbEntity
  8
0
  6
CONTINUOUS
 62
    7
370
   18
100
AcDbLine
 10
269.8000000000242
 20
162.4499999999889
 11
269.8000000000242
 21
163.4499999999898
  0
LINE
  5
105
100
AcDbEntity
  8
0
  6
CONTINUOUS
 62
    7
370
   18
100
AcDbLine
 10
269.8000000000242
 20
166.4499999999898
 11
269.8000000000242
 21
167.4499999999898
  0
LINE
  5
106
100
AcDbEntity
  8
0
  6
CONTINUOUS
 62
    7
370
   18
100
AcDbLine
 10
269.8000000000242
 20
167.4499999999898
 11
272.100000000024
 21
167.4499999999889
  0
LINE
  5
107
100
AcDbEntity
  8
0
  6
CONTINUOUS
 62
    7
370
   18
100
AcDbLine
 10
272.100000000024
 20
167.4499999999889
 11
272.100000000024
 21
166.4499999999898
  0
LINE
  5
108
100
AcDbEntity
  8
0
  6
CONTINUOUS
 62
    7
370
   18
100
AcDbLine
 10
279.600000000024
 20
261.3999999999899
 11
272.100000000024
 21
261.3999999999899
  0
LINE
  5
109
100
AcDbEntity
  8
0
  6
CONTINUOUS
 62
    7
370
   18
100
AcDbLine
 10
269.8000000000242
 20
261.3999999999899
 11
264.600000000024
 21
261.3999999999899
  0
LINE
  5
10A
100
AcDbEntity
  8
0
  6
CONTINUOUS
 62
    7
370
   18
100
AcDbLine
 10
264.600000000024
 20
261.3999999999899
 11
264.600000000024
 21
258.3999999999899
  0
LINE
  5
10B
100
AcDbEntity
  8
0
  6
CONTINUOUS
 62
    7
370
   18
100
AcDbLine
 10
264.600000000024
 20
258.3999999999899
 11
269.8000000000242
 21
258.3999999999899
  0
LINE
  5
10C
100
AcDbEntity
  8
0
  6
CONTINUOUS
 62
    7
370
   18
100
AcDbLine
 10
272.100000000024
 20
258.3999999999899
 11
279.600000000024
 21
258.3999999999899
  0
LINE
  5
10D
100
AcDbEntity
  8
0
  6
CONTINUOUS
 62
    7
370
   18
100
AcDbLine
 10
272.100000000024
 20
258.3999999999899
 11
272.100000000024
 21
257.3999999999899
  0
LINE
  5
10E
100
AcDbEntity
  8
0
  6
CONTINUOUS
 62
    7
370
   18
100
AcDbLine
 10
272.100000000024
 20
257.3999999999899
 11
269.8000000000242
 21
257.3999999999899
  0
LINE
  5
10F
100
AcDbEntity
  8
0
  6
CONTINUOUS
 62
    7
370
   18
100
AcDbLine
 10
269.8000000000242
 20
257.3999999999899
 11
269.8000000000242
 21
258.3999999999899
  0
LINE
  5
110
100
AcDbEntity
  8
0
  6
CONTINUOUS
 62
    7
370
   18
100
AcDbLine
 10
269.8000000000242
 20
261.3999999999899
 11
269.8000000000242
 21
262.3999999999899
  0
LINE
  5
111
100
AcDbEntity
  8
0
  6
CONTINUOUS
 62
    7
370
   18
100
AcDbLine
 10
269.8000000000242
 20
262.3999999999899
 11
272.100000000024
 21
262.3999999999889
  0
LINE
  5
112
100
AcDbEntity
  8
0
  6
CONTINUOUS
 62
    7
370
   18
100
AcDbLine
 10
272.100000000024
 20
262.3999999999889
 11
272.100000000024
 21
261.3999999999899
  0
LINE
  5
113
100
AcDbEntity
  8
0
  6
CONTINUOUS
 62
    7
370
   18
100
AcDbLine
 10
183.2500000000009
 20
329.899999999991
 11
183.2500000000009
 21
322.399999999991
  0
LINE
  5
114
100
AcDbEntity
  8
0
  6
CONTINUOUS
 62
    7
370
   18
100
AcDbLine
 10
183.2500000000009
 20
320.0999999999908
 11
183.2500000000009
 21
314.899999999991
  0
LINE
  5
115
100
AcDbEntity
  8
0
  6
CONTINUOUS
 62
    7
370
   18
100
AcDbLine
 10
183.2500000000009
 20
314.899999999991
 11
186.2500000000009
 21
314.899999999991
  0
LINE
  5
116
100
AcDbEntity
  8
0
  6
CONTINUOUS
 62
    7
370
   18
100
AcDbLine
 10
186.2500000000009
 20
314.899999999991
 11
186.2500000000009
 21
320.0999999999908
  0
LINE
  5
117
100
AcDbEntity
  8
0
  6
CONTINUOUS
 62
    7
370
   18
100
AcDbLine
 10
186.2500000000009
 20
322.399999999991
 11
186.2500000000009
 21
329.899999999991
  0
LINE
  5
118
100
AcDbEntity
  8
0
  6
CONTINUOUS
 62
    7
370
   18
100
AcDbLine
 10
186.2500000000009
 20
322.399999999991
 11
187.2500000000009
 21
322.399999999991
  0
LINE
  5
119
100
AcDbEntity
  8
0
  6
CONTINUOUS
 62
    7
370
   18
100
AcDbLine
 10
187.2500000000009
 20
322.399999999991
 11
187.2500000000009
 21
320.0999999999908
  0
LINE
  5
11A
100
AcDbEntity
  8
0
  6
CONTINUOUS
 62
    7
370
   18
100
AcDbLine
 10
187.2500000000009
 20
320.0999999999908
 11
186.2500000000009
 21
320.0999999999908
  0
LINE
  5
11B
100
AcDbEntity
  8
0
  6
CONTINUOUS
 62
    7
370
   18
100
AcDbLine
 10
183.2500000000009
 20
320.0999999999908
 11
182.2500000000009
 21
320.0999999999908
  0
LINE
  5
11C
100
AcDbEntity
  8
0
  6
CONTINUOUS
 62
    7
370
   18
100
AcDbLine
 10
182.2500000000009
 20
320.0999999999908
 11
182.2500000000009
 21
322.399999999991
  0
LINE
  5
11D
100
AcDbEntity
  8
0
  6
CONTINUOUS
 62
    7
370
   18
100
AcDbLine
 10
182.2500000000009
 20
322.399999999991
 11
183.2500000000009
 21
322.399999999991
  0
LINE
  5
11E
100
AcDbEntity
  8
0
  6
CONTINUOUS
 62
    7
370
   18
100
AcDbLine
 10
93.25000000000085
 20
329.899999999991
 11
93.25000000000085
 21
322.399999999991
  0
LINE
  5
11F
100
AcDbEntity
  8
0
  6
CONTINUOUS
 62
    7
370
   18
100
AcDbLine
 10
93.25000000000085
 20
320.0999999999908
 11
93.25000000000085
 21
314.899999999991
  0
LINE
  5
120
100
AcDbEntity
  8
0
  6
CONTINUOUS
 62
    7
370
   18
100
AcDbLine
 10
93.25000000000085
 20
314.899999999991
 11
96.25000000000085
 21
314.899999999991
  0
LINE
  5
121
100
AcDbEntity
  8
0
  6
CONTINUOUS
 62
    7
370
   18
100
AcDbLine
 10
96.25000000000085
 20
314.899999999991
 11
96.25000000000085
 21
320.0999999999908
  0
LINE
  5
122
100
AcDbEntity
  8
0
  6
CONTINUOUS
 62
    7
370
   18
100
AcDbLine
 10
96.25000000000085
 20
322.399999999991
 11
96.25000000000085
 21
329.899999999991
  0
LINE
  5
123
100
AcDbEntity
  8
0
  6
CONTINUOUS
 62
    7
370
   18
100
AcDbLine
 10
96.25000000000085
 20
322.399999999991
 11
97.25000000000085
 21
322.399999999991
  0
LINE
  5
124
100
AcDbEntity
  8
0
  6
CONTINUOUS
 62
    7
370
   18
100
AcDbLine
 10
97.25000000000085
 20
322.399999999991
 11
97.25000000000085
 21
320.0999999999908
  0
LINE
  5
125
100
AcDbEntity
  8
0
  6
CONTINUOUS
 62
    7
370
   18
100
AcDbLine
 10
97.25000000000085
 20
320.0999999999908
 11
96.25000000000085
 21
320.0999999999908
  0
LINE
  5
126
100
AcDbEntity
  8
0
  6
CONTINUOUS
 62
    7
370
   18
100
AcDbLine
 10
93.25000000000085
 20
320.0999999999908
 11
92.25000000000085
 21
320.0999999999908
  0
LINE
  5
127
100
AcDbEntity
  8
0
  6
CONTINUOUS
 62
    7
370
   18
100
AcDbLine
 10
92.25000000000085
 20
320.0999999999908
 11
92.25000000000085
 21
322.399999999991
  0
LINE
  5
128
100
AcDbEntity
  8
0
  6
CONTINUOUS
 62
    7
370
   18
100
AcDbLine
 10
92.25000000000085
 20
322.399999999991
 11
93.25000000000085
 21
322.399999999991
  0
LINE
  5
129
100
AcDbEntity
  8
holes
  6
CONTINUOUS
 62
    1
370
   18
100
AcDbLine
 10
143.5500000000069
 20
24.00000000001799
 11
150.0500000000069
 21
24.00000000001799
  0
LINE
  5
12A
100
AcDbEntity
  8
holes
  6
CONTINUOUS
 62
    1
370
   18
100
AcDbLine
 10
150.0500000000069
 20
24.00000000001799
 11
150.0500000000069
 21
33.00000000001799
  0
LINE
  5
12B
100
AcDbEntity
  8
holes
  6
CONTINUOUS
 62
    1
370
   18
100
AcDbLine
 10
150.0500000000069
 20
33.00000000001799
 11
143.5500000000069
 21
33.00000000001799
  0
CIRCLE
  5
12C
100
AcDbEntity
  8
holes
  6
CONTINUOUS
 62
    1
370
   18
100
AcDbCircle
 10
146.8000000000069
 20
16.50000000001799
 40
1.5
  0
LINE
  5
12D
100
AcDbEntity
  8
holes
  6
CONTINUOUS
 62
    1
370
   18
100
AcDbLine
 10
143.5500000000069
 20
24.00000000001799
 11
143.5500000000069
 21
33.00000000001799
  0
LINE
  5
12E
100
AcDbEntity
  8
holes
  6
CONTINUOUS
 62
    3
370
   18
100
AcDbLine
 10
110.0177650149412
 20
122.580162653504
 11
169.58223498506
 21
122.580162653504
  0
LINE
  5
12F
100
AcDbEntity
  8
holes
  6
CONTINUOUS
 62
    3
370
   18
100
AcDbLine
 10
110.0177650149412
 20
122.580162653504
 11
139.8000000000011
 21
70.99581849642598
  0
LINE
  5
130
100
AcDbEntity
  8
holes
  6
CONTINUOUS
 62
    3
370
   18
100
AcDbLine
 10
139.8000000000011
 20
70.99581849642598
 11
169.58223498506
 21
122.580162653504
  0
LINE
  5
131
100
AcDbEntity
  8
holes
  6
CONTINUOUS
 62
    3
370
   18
100
AcDbLine
 10
75.37477525956405
 20
187.7307371342349
 11
105.3586036605843
 21
239.664251330227
  0
LINE
  5
132
100
AcDbEntity
  8
holes
  6
CONTINUOUS
 62
    3
370
   18
100
AcDbLine
 10
105.3586036605843
 20
239.664251330227
 11
135.3424320616031
 21
187.7307371342349
  0
LINE
  5
133
100
AcDbEntity
  8
holes
  6
CONTINUOUS
 62
    3
370
   18
100
AcDbLine
 10
135.3424320616031
 20
187.7307371342349
 11
75.37477525956405
 21
187.7307371342349
  0
LINE
  5
134
100
AcDbEntity
  8
holes
  6
CONTINUOUS
 62
    3
370
   18
100
AcDbLine
 10
75.3795056416829
 20
182.5835810359049
 11
105.3633340427021
 21
130.6500668399131
  0
LINE
  5
135
100
AcDbEntity
  8
holes
  6
CONTINUOUS
 62
    3
370
   18
100
AcDbLine
 10
105.3633340427021
 20
130.6500668399131
 11
135.3471624437211
 21
182.5835810359049
  0
LINE
  5
136
100
AcDbEntity
  8
holes
  6
CONTINUOUS
 62
    3
370
   18
100
AcDbLine
 10
135.3471624437211
 20
182.5835810359049
 11
75.3795056416829
 21
182.5835810359049
  0
LINE
  5
137
100
AcDbEntity
  8
holes
  6
CONTINUOUS
 62
    3
370
   18
100
AcDbLine
 10
109.8138064079212
 20
242.2419260104771
 11
139.797634808941
 21
190.3084118144841
  0
LINE
  5
138
100
AcDbEntity
  8
holes
  6
CONTINUOUS
 62
    3
370
   18
100
AcDbLine
 10
139.797634808941
 20
190.3084118144841
 11
169.7814632099611
 21
242.2419260104771
  0
LINE
  5
139
100
AcDbEntity
  8
holes
  6
CONTINUOUS
 62
    3
370
   18
100
AcDbLine
 10
169.7814632099611
 20
242.2419260104771
 11
109.8138064079212
 21
242.2419260104771
  0
LINE
  5
13A
100
AcDbEntity
  8
holes
  6
CONTINUOUS
 62
    3
370
   18
100
AcDbLine
 10
174.2413963394183
 20
239.6724445923969
 11
204.2252247404371
 21
187.7389303964039
  0
LINE
  5
13B
100
AcDbEntity
  8
holes
  6
CONTINUOUS
 62
    3
370
   18
100
AcDbLine
 10
204.2252247404371
 20
187.7389303964039
 11
144.2575679383981
 21
187.7389303964039
  0
LINE
  5
13C
100
AcDbEntity
  8
holes
  6
CONTINUOUS
 62
    3
370
   18
100
AcDbLine
 10
144.2575679383981
 20
187.7389303964039
 11
174.2413963394183
 21
239.6724445923969
  0
LINE
  5
13D
100
AcDbEntity
  8
holes
  6
CONTINUOUS
 62
    3
370
   18
100
AcDbLine
 10
139.8070955731791
 20
180.014099617825
 11
169.790923974198
 21
128.0805854218329
  0
LINE
  5
13E
100
AcDbEntity
  8
holes
  6
CONTINUOUS
 62
    3
370
   18
100
AcDbLine
 10
169.790923974198
 20
128.0805854218329
 11
109.8232671721589
 21
128.0805854218329
  0
LINE
  5
13F
100
AcDbEntity
  8
holes
  6
CONTINUOUS
 62
    3
370
   18
100
AcDbLine
 10
109.8232671721589
 20
128.0805854218329
 11
139.8070955731791
 21
180.014099617825
  0
CIRCLE
  5
140
100
AcDbEntity
  8
holes
  6
CONTINUOUS
 62
    1
370
   18
100
AcDbCircle
 10
25.50000000000085
 20
126.517588022615
 40
1.5
  0
CIRCLE
  5
141
100
AcDbEntity
  8
holes
  6
CONTINUOUS
 62
    1
370
   18
100
AcDbCircle
 10
254.0999999999989
 20
126.517588022615
 40
1.5
  0
ENDBLK
  5
50
330
4E
100
AcDbEntity
  8
0
100
AcDbBlockEnd
  0
ENDSEC
  0
SECTION
  2
ENTITIES
  0
LINE
  5
142
100
AcDbEntity
  8
0
  6
ByLayer
 62
  256
370
   -1
100
AcDbLine
 10
329.999999999967
 20
-0.0001480477481385911
 11
276.4999999999731
 21
-0.0001240460692653045
  0
LINE
  5
143
100
AcDbEntity
  8
0
  6
ByLayer
 62
  256
370
   -1
100
AcDbLine
 10
267.499999999972
 20
-0.0001200084020966941
 11
252.499999999974
 21
-0.0001132789593922823
  0
LINE
  5
144
100
AcDbEntity
  8
0
  6
ByLayer
 62
  256
370
   -1
100
AcDbLine
 10
243.4999999999749
 20
-0.0001092412940422172
 11
182.2831526766531
 21
-8.177760539584966e-05
  0
LINE
  5
145
100
AcDbEntity
  8
0
  6
ByLayer
 62
  256
370
   -1
100
AcDbLine
 10
267.499999999972
 20
-0.0001200084020966941
 11
267.500002646888
 21
5.899879991597995
  0
LINE
  5
146
100
AcDbEntity
  8
0
  6
ByLayer
 62
  256
370
   -1
100
AcDbLine
 10
267.500002646888
 20
5.899879991597995
 11
276.500002646886
 21
5.899875953931735
  0
LINE
  5
147
100
AcDbEntity
  8
0
  6
ByLayer
 62
  256
370
   -1
100
AcDbLine
 10
276.500002646886
 20
5.899875953931735
 11
276.4999999999731
 21
-0.0001240460692653045
  0
LINE
  5
148
100
AcDbEntity
  8
0
  6
ByLayer
 62
  256
370
   -1
100
AcDbLine
 10
252.500002646888
 20
5.89988672103979
 11
243.5000026468901
 21
5.899890758705595
  0
LINE
  5
149
100
AcDbEntity
  8
0
  6
ByLayer
 62
  256
370
   -1
100
AcDbLine
 10
243.5000026468901
 20
5.899890758705595
 11
243.4999999999749
 21
-0.0001092412940422172
  0
LINE
  5
14A
100
AcDbEntity
  8
0
  6
ByLayer
 62
  256
370
   -1
100
AcDbLine
 10
252.500002646888
 20
5.89988672103979
 11
252.499999999974
 21
-0.0001132789593922823
  0
LINE
  5
14B
100
AcDbEntity
  8
0
  6
ByLayer
 62
  256
370
   -1
100
AcDbLine
 10
330.0000158141581
 20
35.24985195224777
 11
330.000013167244
 21
29.34985195224859
  0
LINE
  5
14C
100
AcDbEntity
  8
0
  6
ByLayer
 62
  256
370
   -1
100
AcDbLine
 10
330.0000118213549
 20
26.34985195224859
 11
330.000009129578
 21
20.34985195224859
  0
LINE
  5
14D
100
AcDbEntity
  8
0
  6
ByLayer
 62
  256
370
   -1
100
AcDbLine
 10
330.000009129578
 20
20.34985195224859
 11
336.0000091295771
 21
20.34984926047169
  0
LINE
  5
14E
100
AcDbEntity
  8
0
  6
ByLayer
 62
  256
370
   -1
100
AcDbLine
 10
330.0000158141581
 20
35.24985195224777
 11
336.0000158141569
 21
35.24984926047178
  0
LINE
  5
14F
100
AcDbEntity
  8
0
  6
ByLayer
 62
  256
370
   -1
100
AcDbLine
 10
336.000019896687
 20
44.34984926046987
 11
330.000019896687
 21
44.34985195224677
  0
LINE
  5
150
100
AcDbEntity
  8
0
  6
ByLayer
 62
  256
370
   -1
100
AcDbLine
 10
336.0000091295771
 20
20.34984926047169
 11
336.0000050470491
 21
11.24984926047269
  0
LINE
  5
151
100
AcDbEntity
  8
0
  6
ByLayer
 62
  256
370
   -1
100
AcDbLine
 10
336.000019896687
 20
44.34984926046987
 11
336.0000158141569
 21
35.24984926047178
  0
LINE
  5
152
100
AcDbEntity
  8
0
  6
ByLayer
 62
  256
370
   -1
100
AcDbLine
 10
330.0000050470491
 20
11.24985195224959
 11
336.0000050470491
 21
11.24984926047269
  0
LINE
  5
153
100
AcDbEntity
  8
0
  6
ByLayer
 62
  256
370
   -1
100
AcDbLine
 10
330.000024898906
 20
55.49985195224458
 11
330.000019896687
 21
44.34985195224677
  0
LINE
  5
154
100
AcDbEntity
  8
0
  6
ByLayer
 62
  256
370
   -1
100
AcDbLine
 10
330.0000050470491
 20
11.24985195224959
 11
329.999999999967
 21
-0.0001480477481385911
  0
LINE
  5
155
100
AcDbEntity
  8
0
  6
ByLayer
 62
  256
370
   -1
100
AcDbLine
 10
330.000098618364
 20
29.34985195099394
 11
322.500098621504
 21
29.35006894351678
  0
LINE
  5
156
100
AcDbEntity
  8
0
  6
ByLayer
 62
  256
370
   -1
100
AcDbLine
 10
320.200098622465
 20
29.35013548788989
 11
315.0000986246429
 21
29.35028593603871
  0
LINE
  5
157
100
AcDbEntity
  8
0
  6
ByLayer
 62
  256
370
   -1
100
AcDbLine
 10
315.0000986246429
 20
29.35028593603871
 11
315.0000118276341
 21
26.35028593729472
  0
LINE
  5
158
100
AcDbEntity
  8
0
  6
ByLayer
 62
  256
370
   -1
100
AcDbLine
 10
315.0000118276341
 20
26.35028593729472
 11
320.2000118254561
 21
26.3501354891459
  0
LINE
  5
159
100
AcDbEntity
  8
0
  6
ByLayer
 62
  256
370
   -1
100
AcDbLine
 10
322.500011824494
 20
26.35006894477188
 11
330.0000118213549
 21
26.34985195224859
  0
LINE
  5
15A
100
AcDbEntity
  8
0
  6
ByLayer
 62
  256
370
   -1
100
AcDbLine
 10
322.500011824494
 20
26.35006894477188
 11
322.4999828921581
 21
25.3500689451907
  0
LINE
  5
15B
100
AcDbEntity
  8
0
  6
ByLayer
 62
  256
370
   -1
100
AcDbLine
 10
322.4999828921581
 20
25.3500689451907
 11
320.19998289312
 21
25.35013548956381
  0
LINE
  5
15C
100
AcDbEntity
  8
0
  6
ByLayer
 62
  256
370
   -1
100
AcDbLine
 10
320.19998289312
 20
25.35013548956381
 11
320.2000118254561
 21
26.3501354891459
  0
LINE
  5
15D
100
AcDbEntity
  8
0
  6
ByLayer
 62
  256
370
   -1
100
AcDbLine
 10
320.200098622465
 20
29.35013548788989
 11
320.200127554802
 21
30.35013548747061
  0
LINE
  5
15E
100
AcDbEntity
  8
0
  6
ByLayer
 62
  256
370
   -1
100
AcDbLine
 10
320.200127554802
 20
30.35013548747061
 11
322.5001275538399
 21
30.35006894309568
  0
LINE
  5
15F
100
AcDbEntity
  8
0
  6
ByLayer
 62
  256
370
   -1
100
AcDbLine
 10
322.5001275538399
 20
30.35006894309568
 11
322.500098621504
 21
29.35006894351678
  0
LINE
  5
160
100
AcDbEntity
  8
0
  6
ByLayer
 62
  256
370
   -1
100
AcDbLine
 10
173.283152676654
 20
-7.773994141047069e-05
 11
158.2831526766551
 21
-7.101049734181686e-05
  0
LINE
  5
161
100
AcDbEntity
  8
0
  6
ByLayer
 62
  256
370
   -1
100
AcDbLine
 10
20.00002041264219
 20
45.49999102740502
 11
130.0000204126311
 21
45.49994167815473
  0
LINE
  5
162
100
AcDbEntity
  8
0
  6
ByLayer
 62
  256
370
   -1
100
AcDbLine
 10
130.0000204126311
 20
45.49994167815473
 11
140.0000248989251
 21
55.49993719185793
  0
LINE
  5
163
100
AcDbEntity
  8
0
  6
ByLayer
 62
  256
370
   -1
100
AcDbLine
 10
167.9000222071461
 20
49.49992467509581
 11
173.800022207145
 21
49.49992202817973
  0
LINE
  5
164
100
AcDbEntity
  8
0
  6
ByLayer
 62
  256
370
   -1
100
AcDbLine
 10
176.8000222071441
 20
49.49992068229174
 11
182.8000222071441
 21
49.49991799051484
  0
LINE
  5
165
100
AcDbEntity
  8
0
  6
ByLayer
 62
  256
370
   -1
100
AcDbLine
 10
182.8000222071441
 20
49.49991799051484
 11
182.800024898921
 21
55.49991799051484
  0
LINE
  5
166
100
AcDbEntity
  8
0
  6
ByLayer
 62
  256
370
   -1
100
AcDbLine
 10
167.9000222071461
 20
49.49992467509581
 11
167.9000248989221
 21
55.49992467509262
  0
LINE
  5
167
100
AcDbEntity
  8
0
  6
ByLayer
 62
  256
370
   -1
100
AcDbLine
 10
158.8000248989221
 20
55.4999287576238
 11
158.8000222071462
 21
49.4999287576238
  0
LINE
  5
168
100
AcDbEntity
  8
0
  6
ByLayer
 62
  256
370
   -1
100
AcDbLine
 10
182.800024898921
 20
55.49991799051484
 11
191.9000248989211
 21
55.49991390798502
  0
LINE
  5
169
100
AcDbEntity
  8
0
  6
ByLayer
 62
  256
370
   -1
100
AcDbLine
 10
158.8000248989221
 20
55.4999287576238
 11
167.9000248989221
 21
55.49992467509262
  0
LINE
  5
16A
100
AcDbEntity
  8
0
  6
ByLayer
 62
  256
370
   -1
100
AcDbLine
 10
191.9000248989211
 20
55.49991390798502
 11
191.9000222071431
 21
49.49991390798684
  0
LINE
  5
16B
100
AcDbEntity
  8
0
  6
ByLayer
 62
  256
370
   -1
100
AcDbLine
 10
191.9000222071431
 20
49.49991390798684
 11
207.000022207141
 21
49.49990713367967
  0
LINE
  5
16C
100
AcDbEntity
  8
0
  6
ByLayer
 62
  256
370
   -1
100
AcDbLine
 10
140.0000248989251
 20
55.49993719185793
 11
150.000024898924
 21
55.49993270556386
  0
LINE
  5
16D
100
AcDbEntity
  8
0
  6
ByLayer
 62
  256
370
   -1
100
AcDbLine
 10
150.000024898924
 20
55.49993270556386
 11
150.000022207146
 21
49.49993270556386
  0
LINE
  5
16E
100
AcDbEntity
  8
0
  6
ByLayer
 62
  256
370
   -1
100
AcDbLine
 10
150.000022207146
 20
49.49993270556386
 11
158.8000222071462
 21
49.4999287576238
  0
LINE
  5
16F
100
AcDbEntity
  8
0
  6
ByLayer
 62
  256
370
   -1
100
AcDbLine
 10
173.283155323568
 20
5.899922260057771
 11
182.2831553235671
 21
5.899918222391968
  0
LINE
  5
170
100
AcDbEntity
  8
0
  6
ByLayer
 62
  256
370
   -1
100
AcDbLine
 10
182.2831553235671
 20
5.899918222391968
 11
182.2831526766531
 21
-8.177760721483907e-05
  0
LINE
  5
171
100
AcDbEntity
  8
0
  6
ByLayer
 62
  256
370
   -1
100
AcDbLine
 10
158.2831553235701
 20
5.899928989500022
 11
149.2831553235701
 21
5.899933027167645
  0
LINE
  5
172
100
AcDbEntity
  8
0
  6
ByLayer
 62
  256
370
   -1
100
AcDbLine
 10
149.2831553235701
 20
5.899933027167645
 11
149.283152676656
 21
-6.69728333559938e-05
  0
LINE
  5
173
100
AcDbEntity
  8
0
  6
ByLayer
 62
  256
370
   -1
100
AcDbLine
 10
158.2831553235701
 20
5.899928989500022
 11
158.2831526766551
 21
-7.101049734181686e-05
  0
LINE
  5
174
100
AcDbEntity
  8
0
  6
ByLayer
 62
  256
370
   -1
100
AcDbLine
 10
173.8000222084001
 20
49.50000747930196
 11
173.7998052158771
 21
42.00000748244063
  0
LINE
  5
175
100
AcDbEntity
  8
0
  6
ByLayer
 62
  256
370
   -1
100
AcDbLine
 10
173.799738671503
 20
39.70000748340269
 11
173.799588223354
 21
34.50000748557975
  0
LINE
  5
176
100
AcDbEntity
  8
0
  6
ByLayer
 62
  256
370
   -1
100
AcDbLine
 10
173.799588223354
 20
34.50000748557975
 11
176.7995882220991
 21
34.49992068857089
  0
LINE
  5
177
100
AcDbEntity
  8
0
  6
ByLayer
 62
  256
370
   -1
100
AcDbLine
 10
176.7995882220991
 20
34.49992068857089
 11
176.7997386702482
 21
39.69992068639383
  0
LINE
  5
178
100
AcDbEntity
  8
0
  6
ByLayer
 62
  256
370
   -1
100
AcDbLine
 10
176.799805214622
 20
41.99992068543177
 11
176.8000222071441
 21
49.49992068229174
  0
LINE
  5
179
100
AcDbEntity
  8
0
  6
ByLayer
 62
  256
370
   -1
100
AcDbLine
 10
176.799805214622
 20
41.99992068543177
 11
177.7998052142031
 21
41.99989175309472
  0
LINE
  5
17A
100
AcDbEntity
  8
0
  6
ByLayer
 62
  256
370
   -1
100
AcDbLine
 10
177.7998052142031
 20
41.99989175309472
 11
177.7997386698291
 21
39.6998917540577
  0
LINE
  5
17B
100
AcDbEntity
  8
0
  6
ByLayer
 62
  256
370
   -1
100
AcDbLine
 10
177.7997386698291
 20
39.6998917540577
 11
176.7997386702482
 21
39.69992068639383
  0
LINE
  5
17C
100
AcDbEntity
  8
0
  6
ByLayer
 62
  256
370
   -1
100
AcDbLine
 10
173.799738671503
 20
39.70000748340269
 11
172.7997386719221
 21
39.70003641573883
  0
LINE
  5
17D
100
AcDbEntity
  8
0
  6
ByLayer
 62
  256
370
   -1
100
AcDbLine
 10
172.7997386719221
 20
39.70003641573883
 11
172.7998052162961
 21
42.00003641477677
  0
LINE
  5
17E
100
AcDbEntity
  8
0
  6
ByLayer
 62
  256
370
   -1
100
AcDbLine
 10
172.7998052162961
 20
42.00003641477677
 11
173.7998052158771
 21
42.00000748244063
  0
LINE
  5
17F
100
AcDbEntity
  8
0
  6
ByLayer
 62
  256
370
   -1
100
AcDbLine
 10
53.49999999999409
 20
-2.400168114702339e-05
 11
0
 21
0
  0
LINE
  5
180
100
AcDbEntity
  8
0
  6
ByLayer
 62
  256
370
   -1
100
AcDbLine
 10
2.489893898882656e-05
 20
55.49999999999363
 11
10.00002489893808
 21
55.49999551369865
  0
LINE
  5
181
100
AcDbEntity
  8
0
  6
ByLayer
 62
  256
370
   -1
100
AcDbLine
 10
20.00002041264219
 20
45.49999102740502
 11
10.00002489893808
 21
55.49999551369865
  0
LINE
  5
182
100
AcDbEntity
  8
0
  6
ByLayer
 62
  256
370
   -1
100
AcDbLine
 10
1.177652529804618e-05
 20
26.24999999999681
 11
7.500011773386063
 21
26.24978300747398
  0
LINE
  5
183
100
AcDbEntity
  8
0
  6
ByLayer
 62
  256
370
   -1
100
AcDbLine
 10
9.800011772424057
 20
26.24971646310086
 11
15.000011770247
 21
26.24956601495068
  0
LINE
  5
184
100
AcDbEntity
  8
0
  6
ByLayer
 62
  256
370
   -1
100
AcDbLine
 10
15.000011770247
 20
26.24956601495068
 11
15.00009856725586
 21
29.24956601369604
  0
LINE
  5
185
100
AcDbEntity
  8
0
  6
ByLayer
 62
  256
370
   -1
100
AcDbLine
 10
15.00009856725586
 20
29.24956601369604
 11
9.800098569431952
 21
29.24971646184485
  0
LINE
  5
186
100
AcDbEntity
  8
0
  6
ByLayer
 62
  256
370
   -1
100
AcDbLine
 10
7.500098570394982
 20
29.24978300621887
 11
1.312241420237115e-05
 21
29.2499999999959
  0
LINE
  5
187
100
AcDbEntity
  8
0
  6
ByLayer
 62
  256
370
   -1
100
AcDbLine
 10
7.500098570394982
 20
29.24978300621887
 11
7.500127502731061
 21
30.24978300580005
  0
LINE
  5
188
100
AcDbEntity
  8
0
  6
ByLayer
 62
  256
370
   -1
100
AcDbLine
 10
7.500127502731061
 20
30.24978300580005
 11
9.800127501769055
 21
30.24971646142694
  0
LINE
  5
189
100
AcDbEntity
  8
0
  6
ByLayer
 62
  256
370
   -1
100
AcDbLine
 10
9.800127501769055
 20
30.24971646142694
 11
9.800098569431952
 21
29.24971646184485
  0
LINE
  5
18A
100
AcDbEntity
  8
0
  6
ByLayer
 62
  256
370
   -1
100
AcDbLine
 10
9.800011772424057
 20
26.24971646310086
 11
9.799982840086955
 21
25.24971646351878
  0
LINE
  5
18B
100
AcDbEntity
  8
0
  6
ByLayer
 62
  256
370
   -1
100
AcDbLine
 10
9.799982840086955
 20
25.24971646351878
 11
7.499982841049075
 21
25.2497830078928
  0
LINE
  5
18C
100
AcDbEntity
  8
0
  6
ByLayer
 62
  256
370
   -1
100
AcDbLine
 10
7.499982841049075
 20
25.2497830078928
 11
7.500011773386063
 21
26.24978300747398
  0
LINE
  5
18D
100
AcDbEntity
  8
0
  6
ByLayer
 62
  256
370
   -1
100
AcDbLine
 10
9.129610987201886e-06
 20
20.34999999999763
 11
1.177652529804618e-05
 21
26.24999999999681
  0
LINE
  5
18E
100
AcDbEntity
  8
0
  6
ByLayer
 62
  256
370
   -1
100
AcDbLine
 10
1.312241420237115e-05
 20
29.2499999999959
 11
1.581419110152638e-05
 21
35.24999999999682
  0
LINE
  5
18F
100
AcDbEntity
  8
0
  6
ByLayer
 62
  256
370
   -1
100
AcDbLine
 10
1.581419110152638e-05
 20
35.24999999999682
 11
-5.999984185808046
 21
35.25000269177372
  0
LINE
  5
190
100
AcDbEntity
  8
0
  6
ByLayer
 62
  256
370
   -1
100
AcDbLine
 10
9.129610987201886e-06
 20
20.34999999999763
 11
-5.999990870387251
 21
20.3500026917759
  0
LINE
  5
191
100
AcDbEntity
  8
0
  6
ByLayer
 62
  256
370
   -1
100
AcDbLine
 10
-5.999994952917007
 20
11.2500026917769
 11
5.047082993314689e-06
 21
11.24999999999863
  0
LINE
  5
192
100
AcDbEntity
  8
0
  6
ByLayer
 62
  256
370
   -1
100
AcDbLine
 10
-5.999984185808046
 20
35.25000269177372
 11
-5.999980103279142
 21
44.35000269177272
  0
LINE
  5
193
100
AcDbEntity
  8
0
  6
ByLayer
 62
  256
370
   -1
100
AcDbLine
 10
-5.999994952917007
 20
11.2500026917769
 11
-5.999990870387251
 21
20.3500026917759
  0
LINE
  5
194
100
AcDbEntity
  8
0
  6
ByLayer
 62
  256
370
   -1
100
AcDbLine
 10
1.989671994806486e-05
 20
44.34999999999582
 11
-5.999980103279142
 21
44.35000269177272
  0
LINE
  5
195
100
AcDbEntity
  8
0
  6
ByLayer
 62
  256
370
   -1
100
AcDbLine
 10
1.989671994806486e-05
 20
44.34999999999582
 11
2.489893898882656e-05
 21
55.49999999999363
  0
LINE
  5
196
100
AcDbEntity
  8
0
  6
ByLayer
 62
  256
370
   -1
100
AcDbLine
 10
5.047082993314689e-06
 20
11.24999999999863
 11
0
 21
0
  0
LINE
  5
197
100
AcDbEntity
  8
0
  6
ByLayer
 62
  256
370
   -1
100
AcDbLine
 10
206.9959066714562
 20
399.4999071964106
 11
218.245906671455
 21
399.4999021493279
  0
LINE
  5
198
100
AcDbEntity
  8
0
  6
ByLayer
 62
  256
370
   -1
100
AcDbLine
 10
221.2459066714541
 20
399.4999008034387
 11
232.5105257465841
 21
399.4998953333937
  0
LINE
  5
199
100
AcDbEntity
  8
0
  6
ByLayer
 62
  256
370
   -1
100
AcDbLine
 10
232.5099776634252
 20
399.5026727110637
 11
238.907694476452
 21
367.0826366213847
  0
LINE
  5
19A
100
AcDbEntity
  8
0
  6
ByLayer
 62
  256
370
   -1
100
AcDbLine
 10
233.1647291930342
 20
366.0087832005588
 11
238.776371955518
 21
336.0178045602318
  0
LINE
  5
19B
100
AcDbEntity
  8
0
  6
ByLayer
 62
  256
370
   -1
100
AcDbLine
 10
238.907557699456
 20
367.0833297303918
 11
233.1647291930342
 21
366.0087832005588
  0
LINE
  5
19C
100
AcDbEntity
  8
0
  6
ByLayer
 62
  256
370
   -1
100
AcDbLine
 10
218.2459066727111
 20
399.4999876004487
 11
218.245689680188
 21
391.9999876035878
  0
LINE
  5
19D
100
AcDbEntity
  8
0
  6
ByLayer
 62
  256
370
   -1
100
AcDbLine
 10
218.2456231358151
 20
389.6999876045509
 11
218.2454726876661
 21
384.4999876067267
  0
LINE
  5
19E
100
AcDbEntity
  8
0
  6
ByLayer
 62
  256
370
   -1
100
AcDbLine
 10
218.2454726876661
 20
384.4999876067267
 11
221.2454726864091
 21
384.4999008097179
  0
LINE
  5
19F
100
AcDbEntity
  8
0
  6
ByLayer
 62
  256
370
   -1
100
AcDbLine
 10
221.2454726864091
 20
384.4999008097179
 11
221.2456231345582
 21
389.6999008075409
  0
LINE
  5
1A0
100
AcDbEntity
  8
0
  6
ByLayer
 62
  256
370
   -1
100
AcDbLine
 10
221.2456896789322
 20
391.9999008065788
 11
221.2459066714541
 21
399.4999008034387
  0
LINE
  5
1A1
100
AcDbEntity
  8
0
  6
ByLayer
 62
  256
370
   -1
100
AcDbLine
 10
221.2456896789322
 20
391.9999008065788
 11
222.2456896785141
 21
391.9998718742418
  0
LINE
  5
1A2
100
AcDbEntity
  8
0
  6
ByLayer
 62
  256
370
   -1
100
AcDbLine
 10
222.2456896785141
 20
391.9998718742418
 11
222.24562313414
 21
389.6998718752046
  0
LINE
  5
1A3
100
AcDbEntity
  8
0
  6
ByLayer
 62
  256
370
   -1
100
AcDbLine
 10
222.24562313414
 20
389.6998718752046
 11
221.2456231345582
 21
389.6999008075409
  0
LINE
  5
1A4
100
AcDbEntity
  8
0
  6
ByLayer
 62
  256
370
   -1
100
AcDbLine
 10
218.2456231358151
 20
389.6999876045509
 11
217.2456231362321
 21
389.7000165368867
  0
LINE
  5
1A5
100
AcDbEntity
  8
0
  6
ByLayer
 62
  256
370
   -1
100
AcDbLine
 10
217.2456231362321
 20
389.7000165368867
 11
217.2456896806061
 21
392.0000165359237
  0
LINE
  5
1A6
100
AcDbEntity
  8
0
  6
ByLayer
 62
  256
370
   -1
100
AcDbLine
 10
217.2456896806061
 20
392.0000165359237
 11
218.245689680188
 21
391.9999876035878
  0
LINE
  5
1A7
100
AcDbEntity
  8
0
  6
ByLayer
 62
  256
370
   -1
100
AcDbLine
 10
206.995816048289
 20
197.4999071964308
 11
214.4958160451501
 21
197.4996902039079
  0
LINE
  5
1A8
100
AcDbEntity
  8
0
  6
ByLayer
 62
  256
370
   -1
100
AcDbLine
 10
216.7958160441872
 20
197.4996236595348
 11
221.995816042011
 21
197.4994732113848
  0
LINE
  5
1A9
100
AcDbEntity
  8
0
  6
ByLayer
 62
  256
370
   -1
100
AcDbLine
 10
221.995816042011
 20
197.4994732113848
 11
221.9959028390201
 21
200.4994732101297
  0
LINE
  5
1AA
100
AcDbEntity
  8
0
  6
ByLayer
 62
  256
370
   -1
100
AcDbLine
 10
221.9959028390201
 20
200.4994732101297
 11
216.795902841196
 21
200.4996236582788
  0
LINE
  5
1AB
100
AcDbEntity
  8
0
  6
ByLayer
 62
  256
370
   -1
100
AcDbLine
 10
214.495902842159
 20
200.4996902026528
 11
206.9958173941782
 21
200.4999071952139
  0
LINE
  5
1AC
100
AcDbEntity
  8
0
  6
ByLayer
 62
  256
370
   -1
100
AcDbLine
 10
214.495902842159
 20
200.4996902026528
 11
214.4959317744951
 21
201.4996902022337
  0
LINE
  5
1AD
100
AcDbEntity
  8
0
  6
ByLayer
 62
  256
370
   -1
100
AcDbLine
 10
214.4959317744951
 20
201.4996902022337
 11
216.7959317735331
 21
201.4996236578597
  0
LINE
  5
1AE
100
AcDbEntity
  8
0
  6
ByLayer
 62
  256
370
   -1
100
AcDbLine
 10
216.7959317735331
 20
201.4996236578597
 11
216.795902841196
 21
200.4996236582788
  0
LINE
  5
1AF
100
AcDbEntity
  8
0
  6
ByLayer
 62
  256
370
   -1
100
AcDbLine
 10
216.7958160441872
 20
197.4996236595348
 11
216.795787111851
 21
196.4996236599529
  0
LINE
  5
1B0
100
AcDbEntity
  8
0
  6
ByLayer
 62
  256
370
   -1
100
AcDbLine
 10
216.795787111851
 20
196.4996236599529
 11
214.4957871128131
 21
196.4996902043267
  0
LINE
  5
1B1
100
AcDbEntity
  8
0
  6
ByLayer
 62
  256
370
   -1
100
AcDbLine
 10
214.4957871128131
 20
196.4996902043267
 11
214.4958160451501
 21
197.4996902039079
  0
LINE
  5
1B2
100
AcDbEntity
  8
0
  6
ByLayer
 62
  256
370
   -1
100
AcDbLine
 10
206.995890745108
 20
363.9999071964148
 11
214.4958907419691
 21
363.9996902038918
  0
LINE
  5
1B3
100
AcDbEntity
  8
0
  6
ByLayer
 62
  256
370
   -1
100
AcDbLine
 10
216.7958907410071
 20
363.9996236595188
 11
221.99589073883
 21
363.9994732113689
  0
LINE
  5
1B4
100
AcDbEntity
  8
0
  6
ByLayer
 62
  256
370
   -1
100
AcDbLine
 10
221.99589073883
 20
363.9994732113689
 11
221.9959775358391
 21
366.9994732101129
  0
LINE
  5
1B5
100
AcDbEntity
  8
0
  6
ByLayer
 62
  256
370
   -1
100
AcDbLine
 10
221.9959775358391
 20
366.9994732101129
 11
216.7959775380161
 21
366.9996236582617
  0
LINE
  5
1B6
100
AcDbEntity
  8
0
  6
ByLayer
 62
  256
370
   -1
100
AcDbLine
 10
214.495977538978
 20
366.9996902026356
 11
206.995892090996
 21
366.9999071964148
  0
LINE
  5
1B7
100
AcDbEntity
  8
0
  6
ByLayer
 62
  256
370
   -1
100
AcDbLine
 10
214.495977538978
 20
366.9996902026356
 11
214.4960064713141
 21
367.9996902022177
  0
LINE
  5
1B8
100
AcDbEntity
  8
0
  6
ByLayer
 62
  256
370
   -1
100
AcDbLine
 10
214.4960064713141
 20
367.9996902022177
 11
216.7960064703521
 21
367.9996236578438
  0
LINE
  5
1B9
100
AcDbEntity
  8
0
  6
ByLayer
 62
  256
370
   -1
100
AcDbLine
 10
216.7960064703521
 20
367.9996236578438
 11
216.7959775380161
 21
366.9996236582617
  0
LINE
  5
1BA
100
AcDbEntity
  8
0
  6
ByLayer
 62
  256
370
   -1
100
AcDbLine
 10
216.7958907410071
 20
363.9996236595188
 11
216.79586180867
 21
362.9996236599367
  0
LINE
  5
1BB
100
AcDbEntity
  8
0
  6
ByLayer
 62
  256
370
   -1
100
AcDbLine
 10
216.79586180867
 20
362.9996236599367
 11
214.495861809633
 21
362.9996902043108
  0
LINE
  5
1BC
100
AcDbEntity
  8
0
  6
ByLayer
 62
  256
370
   -1
100
AcDbLine
 10
214.495861809633
 20
362.9996902043108
 11
214.4958907419691
 21
363.9996902038918
  0
LINE
  5
1BD
100
AcDbEntity
  8
0
  6
ByLayer
 62
  256
370
   -1
100
AcDbLine
 10
206.9958134013741
 20
191.5999071964318
 11
206.995816048289
 21
197.4999071964308
  0
LINE
  5
1BE
100
AcDbEntity
  8
0
  6
ByLayer
 62
  256
370
   -1
100
AcDbLine
 10
206.9958173941782
 20
200.4999071964299
 11
206.9958200859551
 21
206.4999071964299
  0
LINE
  5
1BF
100
AcDbEntity
  8
0
  6
ByLayer
 62
  256
370
   -1
100
AcDbLine
 10
206.9958200859551
 20
206.4999071964299
 11
200.995820085956
 21
206.4999098882068
  0
LINE
  5
1C0
100
AcDbEntity
  8
0
  6
ByLayer
 62
  256
370
   -1
100
AcDbLine
 10
206.9958134013741
 20
191.5999071964318
 11
200.995813401375
 21
191.5999098882098
  0
LINE
  5
1C1
100
AcDbEntity
  8
0
  6
ByLayer
 62
  256
370
   -1
100
AcDbLine
 10
200.9958093188461
 20
182.4999098882108
 11
206.9958093188461
 21
182.4999071964328
  0
LINE
  5
1C2
100
AcDbEntity
  8
0
  6
ByLayer
 62
  256
370
   -1
100
AcDbLine
 10
200.995820085956
 20
206.4999098882068
 11
200.9958241684851
 21
215.5999098882069
  0
LINE
  5
1C3
100
AcDbEntity
  8
0
  6
ByLayer
 62
  256
370
   -1
100
AcDbLine
 10
200.9958093188461
 20
182.4999098882108
 11
200.995813401375
 21
191.5999098882098
  0
LINE
  5
1C4
100
AcDbEntity
  8
0
  6
ByLayer
 62
  256
370
   -1
100
AcDbLine
 10
206.995824168484
 20
215.5999071964298
 11
200.9958241684851
 21
215.5999098882069
  0
LINE
  5
1C5
100
AcDbEntity
  8
0
  6
ByLayer
 62
  256
370
   -1
100
AcDbLine
 10
206.995898865302
 20
382.0999071964129
 11
206.9959066714562
 21
399.4999071964106
  0
LINE
  5
1C6
100
AcDbEntity
  8
0
  6
ByLayer
 62
  256
370
   -1
100
AcDbLine
 10
206.9958880981931
 20
358.0999071964159
 11
206.995890745108
 21
363.9999071964148
  0
LINE
  5
1C7
100
AcDbEntity
  8
0
  6
ByLayer
 62
  256
370
   -1
100
AcDbLine
 10
206.995892090996
 20
366.9999071964148
 11
206.9958947827731
 21
372.9999071964139
  0
LINE
  5
1C8
100
AcDbEntity
  8
0
  6
ByLayer
 62
  256
370
   -1
100
AcDbLine
 10
206.9958947827731
 20
372.9999071964139
 11
200.9958947827741
 21
372.9999098881908
  0
LINE
  5
1C9
100
AcDbEntity
  8
0
  6
ByLayer
 62
  256
370
   -1
100
AcDbLine
 10
206.9958880981931
 20
358.0999071964159
 11
200.995888098194
 21
358.0999098881919
  0
LINE
  5
1CA
100
AcDbEntity
  8
0
  6
ByLayer
 62
  256
370
   -1
100
AcDbLine
 10
200.9958840156651
 20
348.9999098881929
 11
206.9958840156642
 21
348.9999071964156
  0
LINE
  5
1CB
100
AcDbEntity
  8
0
  6
ByLayer
 62
  256
370
   -1
100
AcDbLine
 10
200.9958947827741
 20
372.9999098881908
 11
200.9958988653032
 21
382.0999098881898
  0
LINE
  5
1CC
100
AcDbEntity
  8
0
  6
ByLayer
 62
  256
370
   -1
100
AcDbLine
 10
200.9958840156651
 20
348.9999098881929
 11
200.995888098194
 21
358.0999098881919
  0
LINE
  5
1CD
100
AcDbEntity
  8
0
  6
ByLayer
 62
  256
370
   -1
100
AcDbLine
 10
206.995898865302
 20
382.0999071964129
 11
200.9958988653032
 21
382.0999098881898
  0
LINE
  5
1CE
100
AcDbEntity
  8
0
  6
ByLayer
 62
  256
370
   -1
100
AcDbLine
 10
207.000022207141
 20
49.49990713367967
 11
206.9958093188461
 21
182.4999071964328
  0
LINE
  5
1CF
100
AcDbEntity
  8
0
  6
ByLayer
 62
  256
370
   -1
100
AcDbLine
 10
244.815005919676
 20
337.1476995525446
 11
330.000024898906
 21
55.49985195224458
  0
LINE
  5
1D0
100
AcDbEntity
  8
0
  6
ByLayer
 62
  256
370
   -1
100
AcDbLine
 10
206.995824168484
 20
215.5999071964298
 11
206.9958840156642
 21
348.9999071964156
  0
LINE
  5
1D1
100
AcDbEntity
  8
0
  6
ByLayer
 62
  256
370
   -1
100
AcDbLine
 10
244.8150059196759
 20
337.1476995525447
 11
238.776371955518
 21
336.0178045602318
  0
CIRCLE
  5
1D2
100
AcDbEntity
  8
holes
  6
ByLayer
 62
  256
370
   -1
100
AcDbCircle
 10
281.905118447619
 20
70.49987352620469
 40
0.9999999999999998
  0
CIRCLE
  5
1D3
100
AcDbEntity
  8
holes
  6
ByLayer
 62
  256
370
   -1
100
AcDbCircle
 10
233.704973202723
 20
64.19989515223958
 40
0.9999999999999998
  0
CIRCLE
  5
1D4
100
AcDbEntity
  8
holes
  6
ByLayer
 62
  256
370
   -1
100
AcDbCircle
 10
250.353191031535
 20
121.2921669326349
 40
2
  0
CIRCLE
  5
1D5
100
AcDbEntity
  8
holes
  6
ByLayer
 62
  256
370
   -1
100
AcDbCircle
 10
235.7713445396241
 20
121.2925888195218
 40
2
  0
CIRCLE
  5
1D6
100
AcDbEntity
  8
holes
  6
ByLayer
 62
  256
370
   -1
100
AcDbCircle
 10
250.3520763748551
 20
82.76583896372583
 40
2
  0
CIRCLE
  5
1D7
100
AcDbEntity
  8
holes
  6
ByLayer
 62
  256
370
   -1
100
AcDbCircle
 10
235.7702298829431
 20
82.76626085061272
 40
2
  0
CIRCLE
  5
1D8
100
AcDbEntity
  8
holes
  6
ByLayer
 62
  256
370
   -1
100
AcDbCircle
 10
235.7725764159581
 20
163.8704269267789
 40
2
  0
CIRCLE
  5
1D9
100
AcDbEntity
  8
holes
  6
ByLayer
 62
  256
370
   -1
100
AcDbCircle
 10
260.0000013458629
 20
2.999883356318573
 40
1.499999999999999
  0
LINE
  5
1DA
100
AcDbEntity
  8
holes
  6
ByLayer
 62
  256
370
   -1
100
AcDbLine
 10
217.0000078509952
 20
17.49990264738787
 11
217.000005159218
 21
11.49990264738878
  0
CIRCLE
  5
1DB
100
AcDbEntity
  8
holes
  6
ByLayer
 62
  256
370
   -1
100
AcDbCircle
 10
165.7831540225431
 20
2.999925624779715
 40
1.499999999999999
  0
CIRCLE
  5
1DC
100
AcDbEntity
  8
holes
  6
ByLayer
 62
  256
370
   -1
100
AcDbCircle
 10
70.00000134588106
 20
2.999968595931923
 40
1.499999999999999
  0
LINE
  5
1DD
100
AcDbEntity
  8
holes
  6
ByLayer
 62
  256
370
   -1
100
AcDbLine
 10
283.2415901737431
 20
11.44977002480888
 11
281.241589276484
 21
9.449770922066783
  0
LINE
  5
1DE
100
AcDbEntity
  8
holes
  6
ByLayer
 62
  256
370
   -1
100
AcDbLine
 10
283.24159286552
 20
17.44977002480797
 11
283.2415901737431
 21
11.44977002480888
  0
LINE
  5
1DF
100
AcDbEntity
  8
holes
  6
ByLayer
 62
  256
370
   -1
100
AcDbLine
 10
281.241593762779
 20
19.44977092206678
 11
283.24159286552
 21
17.44977002480797
  0
CIRCLE
  5
1E0
100
AcDbEntity
  8
holes
  6
ByLayer
 62
  256
370
   -1
100
AcDbCircle
 10
243.310762991463
 20
327.9095077460437
 40
1.5
  0
LINE
  5
1E1
100
AcDbEntity
  8
holes
  6
ByLayer
 62
  256
370
   -1
100
AcDbLine
 10
270.696038733266
 20
30.44910392651078
 11
270.6958391001451
 21
23.54910392939879
  0
LINE
  5
1E2
100
AcDbEntity
  8
holes
  6
ByLayer
 62
  256
370
   -1
100
AcDbLine
 10
270.6958391001451
 20
23.54910392939879
 11
279.6958390963779
 21
23.54884353837175
  0
LINE
  5
1E3
100
AcDbEntity
  8
holes
  6
ByLayer
 62
  256
370
   -1
100
AcDbLine
 10
279.6958390963779
 20
23.54884353837175
 11
279.6960387294991
 21
30.44884353548374
  0
LINE
  5
1E4
100
AcDbEntity
  8
holes
  6
ByLayer
 62
  256
370
   -1
100
AcDbLine
 10
255.6958391064231
 20
23.54953791444492
 11
246.69583911019
 21
23.54979830547196
  0
LINE
  5
1E5
100
AcDbEntity
  8
holes
  6
ByLayer
 62
  256
370
   -1
100
AcDbLine
 10
246.69583911019
 20
23.54979830547196
 11
246.6960387433111
 21
30.44979830258395
  0
LINE
  5
1E6
100
AcDbEntity
  8
holes
  6
ByLayer
 62
  256
370
   -1
100
AcDbLine
 10
255.6958391064231
 20
23.54953791444492
 11
255.696038739544
 21
30.44953791155691
  0
CIRCLE
  5
1E7
100
AcDbEntity
  8
holes
  6
ByLayer
 62
  256
370
   -1
100
AcDbCircle
 10
263.195938919845
 20
26.99932092047671
 40
1.5
  0
LINE
  5
1E8
100
AcDbEntity
  8
holes
  6
ByLayer
 62
  256
370
   -1
100
AcDbLine
 10
270.696038733266
 20
30.44910392651078
 11
279.6960387294991
 21
30.44884353548374
  0
LINE
  5
1E9
100
AcDbEntity
  8
holes
  6
ByLayer
 62
  256
370
   -1
100
AcDbLine
 10
255.696038739544
 20
30.44953791155691
 11
246.6960387433111
 21
30.44979830258395
  0
LINE
  5
1EA
100
AcDbEntity
  8
holes
  6
ByLayer
 62
  256
370
   -1
100
AcDbLine
 10
218.9499058211294
 20
19.44979886795846
 11
217.0000078509952
 21
17.49990264738787
  0
LINE
  5
1EB
100
AcDbEntity
  8
holes
  6
ByLayer
 62
  256
370
   -1
100
AcDbLine
 10
219.0501071441269
 20
9.449798823004404
 11
217.000005159218
 21
11.49990264738878
  0
LINE
  5
1EC
100
AcDbEntity
  8
holes
  6
ByLayer
 62
  256
370
   -1
100
AcDbLine
 10
218.9499058211294
 20
19.44979886795846
 11
281.241593762779
 21
19.44977092206678
  0
LINE
  5
1ED
100
AcDbEntity
  8
holes
  6
ByLayer
 62
  256
370
   -1
100
AcDbLine
 10
281.241589276484
 20
9.449770922066783
 11
219.0501071441269
 21
9.449798823004404
  0
LINE
  5
1EE
100
AcDbEntity
  8
0
  6
ByLayer
 62
  256
370
   -1
100
AcDbLine
 10
53.49999999999693
 20
5.999851952251777
 11
53.49999999999409
 21
-2.400168114702339e-05
  0
LINE
  5
1EF
100
AcDbEntity
  8
0
  6
ByLayer
 62
  256
370
   -1
100
AcDbLine
 10
62.59999999999593
 20
5.999851952251777
 11
53.49999999999693
 21
5.999851952251777
  0
LINE
  5
1F0
100
AcDbEntity
  8
0
  6
ByLayer
 62
  256
370
   -1
100
AcDbLine
 10
173.283152676654
 20
-7.773994141047069e-05
 11
173.283155323568
 21
5.899922260057771
  0
LINE
  5
1F1
100
AcDbEntity
  8
0
  6
ByLayer
 62
  256
370
   -1
100
AcDbLine
 10
62.59999999999593
 20
5.999851952251777
 11
62.59999999999593
 21
-2.808420899613751e-05
  0
LINE
  5
1F2
100
AcDbEntity
  8
0
  6
ByLayer
 62
  256
370
   -1
100
AcDbLine
 10
77.49999999999218
 20
-3.476878920105619e-05
 11
62.59999999999593
 21
-0.0001480477482229681
  0
LINE
  5
1F3
100
AcDbEntity
  8
0
  6
ByLayer
 62
  256
370
   -1
100
AcDbLine
 10
149.283152676656
 20
-6.69728333559938e-05
 11
86.59999999999594
 21
-3.885131796232955e-05
  0
LINE
  5
1F4
100
AcDbEntity
  8
0
  6
ByLayer
 62
  256
370
   -1
100
AcDbLine
 10
86.59999999999594
 20
5.999851952251777
 11
86.59999999999594
 21
-3.885131796232955e-05
  0
LINE
  5
1F5
100
AcDbEntity
  8
0
  6
ByLayer
 62
  256
370
   -1
100
AcDbLine
 10
77.49999999999589
 20
5.999851952251777
 11
86.59999999999594
 21
5.999851952251777
  0
LINE
  5
1F6
100
AcDbEntity
  8
0
  6
ByLayer
 62
  256
370
   -1
100
AcDbLine
 10
77.49999999999218
 20
-3.476878920105619e-05
 11
77.49999999999589
 21
5.999851952251777
  0
INSERT
  5
1F7
100
AcDbEntity
  8
holes
  6
ByLayer
 62
  256
370
   -1
100
AcDbBlockReference
  2
bottom
 10
329.9499999999899
 20
-279.600000000024
 30
0
 41
1
 42
1
 43
0
 50
90
 70
    1
 71
    1
 44
0
 45
0
  0
ENDSEC
  0
SECTION
  2
OBJECTS
  0
DICTIONARY
  5
C
330
0
100
AcDbDictionary
281
    1
  3
ACAD_GROUP
350
D
  0
DICTIONARY
  5
D
330
C
100
AcDbDictionary
281
    1
  0
ENDSEC
  0
EOF
