999
dxfrw 0.6.3
  0
SECTION
  2
HEADER
  9
$ACADVER
  1
AC1021
  9
$DWGCODEPAGE
  3
ANSI_1251
  9
$INSBASE
 10
0
 20
0
 30
0
  9
$EXTMIN
 10
10000000000
 20
10000000000
 30
0
  9
$EXTMAX
 10
-10000000000
 20
-10000000000
 30
0
  9
$LIMMIN
 10
0
 20
0
  9
$LIMMAX
 10
420
 20
297
  9
$ORTHOMODE
 70
    0
  9
$REGENMODE
 70
    1
  9
$FILLMODE
 70
    1
  9
$QTEXTMODE
 70
    0
  9
$MIRRTEXT
 70
    1
  9
$LTSCALE
 40
1
  9
$ATTMODE
 70
    1
  9
$TEXTSIZE
 40
2.5
  9
$TRACEWID
 40
1
  9
$TEXTSTYLE
  7
Standard
  9
$CLAYER
  8
holes
  9
$CELTYPE
  6
ByLayer
  9
$CECOLOR
 62
  256
  9
$CELTSCALE
 40
1
  9
$DISPSILH
 70
    0
  9
$DIMSCALE
 40
1
  9
$DIMASZ
 40
2.5
  9
$DIMEXO
 40
0.625
  9
$DIMDLI
 40
3.75
  9
$DIMRND
 40
0
  9
$DIMDLE
 40
0
  9
$DIMEXE
 40
1.25
  9
$DIMTP
 40
0
  9
$DIMTM
 40
0
  9
$DIMTXT
 40
2.5
  9
$DIMCEN
 40
2.5
  9
$DIMTSZ
 40
0
  9
$DIMTOL
 70
    0
  9
$DIMLIM
 70
    0
  9
$DIMTIH
 70
    0
  9
$DIMTOH
 70
    0
  9
$DIMSE1
 70
    0
  9
$DIMSE2
 70
    0
  9
$DIMTAD
 70
    1
  9
$DIMZIN
 70
    8
  9
$DIMBLK
  1

  9
$DIMASO
 70
    1
  9
$DIMSHO
 70
    1
  9
$DIMPOST
  1

  9
$DIMAPOST
  1

  9
$DIMALT
 70
    0
  9
$DIMALTD
 70
    3
  9
$DIMALTF
 40
0.03937007874016
  9
$DIMLFAC
 40
1
  9
$DIMTOFL
 70
    1
  9
$DIMTVP
 40
0
  9
$DIMTIX
 70
    0
  9
$DIMSOXD
 70
    0
  9
$DIMSAH
 70
    0
  9
$DIMBLK1
  1

  9
$DIMBLK2
  1

  9
$DIMSTYLE
  2
ISO-25
  9
$DIMCLRD
 70
    0
  9
$DIMCLRE
 70
    0
  9
$DIMCLRT
 70
    0
  9
$DIMTFAC
 40
1
  9
$DIMGAP
 40
0.625
  9
$DIMJUST
 70
    0
  9
$DIMSD1
 70
    0
  9
$DIMSD2
 70
    0
  9
$DIMTOLJ
 70
    0
  9
$DIMTZIN
 70
    8
  9
$DIMALTZ
 70
    0
  9
$DIMALTTZ
 70
    0
  9
$DIMUPT
 70
    0
  9
$DIMDEC
 70
    2
  9
$DIMTDEC
 70
    2
  9
$DIMALTU
 70
    2
  9
$DIMALTTD
 70
    3
  9
$DIMTXSTY
  7
Standard
  9
$DIMAUNIT
 70
    0
  9
$DIMADEC
 70
    0
  9
$DIMALTRND
 40
0
  9
$DIMAZIN
 70
    0
  9
$DIMDSEP
 70
   44
  9
$DIMATFIT
 70
    3
  9
$DIMFRAC
 70
    0
  9
$DIMLDRBLK
  1

  9
$DIMLUNIT
 70
    2
  9
$DIMLWD
 70
   -2
  9
$DIMLWE
 70
   -2
  9
$DIMTMOVE
 70
    0
  9
$DIMFXL
 40
1
  9
$DIMFXLON
 70
    0
  9
$DIMJOGANG
 40
0.7853981633974483
  9
$DIMTFILL
 70
    0
  9
$DIMTFILLCLR
 70
    0
  9
$DIMARCSYM
 70
    0
  9
$DIMLTYPE
  6

  9
$DIMLTEX1
  6

  9
$DIMLTEX2
  6

  9
$LUNITS
 70
    2
  9
$LUPREC
 70
    4
  9
$SKETCHINC
 40
1
  9
$FILLETRAD
 40
10
  9
$AUNITS
 70
    0
  9
$AUPREC
 70
    0
  9
$MENU
  1
.
  9
$ELEVATION
 40
0
  9
$PELEVATION
 40
0
  9
$THICKNESS
 40
0
  9
$LIMCHECK
 70
    0
  9
$CHAMFERA
 40
10
  9
$CHAMFERB
 40
10
  9
$CHAMFERC
 40
20
  9
$CHAMFERD
 40
0
  9
$SKPOLY
 70
    0
  9
$USRTIMER
 70
    1
  9
$ANGBASE
 50
0
  9
$ANGDIR
 70
    0
  9
$PDMODE
 70
    0
  9
$PDSIZE
 40
0
  9
$PLINEWID
 40
0
  9
$SPLFRAME
 70
    0
  9
$SPLINETYPE
 70
    6
  9
$SPLINESEGS
 70
    8
  9
$HANDSEED
  5
20000
  9
$SURFTAB1
 70
    6
  9
$SURFTAB2
 70
    6
  9
$SURFTYPE
 70
    6
  9
$SURFU
 70
    6
  9
$SURFV
 70
    6
  9
$UCSBASE
  2

  9
$UCSNAME
  2

  9
$UCSORG
 10
0
 20
0
 30
0
  9
$UCSXDIR
 10
1
 20
0
 30
0
  9
$UCSYDIR
 10
0
 20
1
 30
0
  9
$UCSORTHOREF
  2

  9
$UCSORTHOVIEW
 70
    0
  9
$UCSORGTOP
 10
0
 20
0
 30
0
  9
$UCSORGBOTTOM
 10
0
 20
0
 30
0
  9
$UCSORGLEFT
 10
0
 20
0
 30
0
  9
$UCSORGRIGHT
 10
0
 20
0
 30
0
  9
$UCSORGFRONT
 10
0
 20
0
 30
0
  9
$UCSORGBACK
 10
0
 20
0
 30
0
  9
$PUCSBASE
  2

  9
$PUCSNAME
  2

  9
$PUCSORG
 10
0
 20
0
 30
0
  9
$PUCSXDIR
 10
1
 20
0
 30
0
  9
$PUCSYDIR
 10
0
 20
1
 30
0
  9
$PUCSORTHOREF
  2

  9
$PUCSORTHOVIEW
 70
    0
  9
$PUCSORGTOP
 10
0
 20
0
 30
0
  9
$PUCSORGBOTTOM
 10
0
 20
0
 30
0
  9
$PUCSORGLEFT
 10
0
 20
0
 30
0
  9
$PUCSORGRIGHT
 10
0
 20
0
 30
0
  9
$PUCSORGFRONT
 10
0
 20
0
 30
0
  9
$PUCSORGBACK
 10
0
 20
0
 30
0
  9
$USERI1
 70
    0
  9
$USERI2
 70
    0
  9
$USERI3
 70
    0
  9
$USERI4
 70
    0
  9
$USERI5
 70
    0
  9
$USERR1
 40
0
  9
$USERR2
 40
0
  9
$USERR3
 40
0
  9
$USERR4
 40
0
  9
$USERR5
 40
0
  9
$WORLDVIEW
 70
    1
  9
$SHADEDGE
 70
    3
  9
$SHADEDIF
 70
   70
  9
$TILEMODE
 70
    1
  9
$MAXACTVP
 70
   64
  9
$PINSBASE
 10
0
 20
0
 30
0
  9
$PLIMCHECK
 70
    0
  9
$PEXTMIN
 10
1e+20
 20
1e+20
 30
1e+20
  9
$PEXTMAX
 10
-1e+20
 20
-1e+20
 30
-1e+20
  9
$GRIDMODE
 70
    0
  9
$SNAPSTYLE
 70
    0
  9
$PLIMMIN
 10
0
 20
0
  9
$PLIMMAX
 10
420
 20
297
  9
$UNITMODE
 70
    0
  9
$VISRETAIN
 70
    1
  9
$PLINEGEN
 70
    0
  9
$PSLTSCALE
 70
    1
  9
$TREEDEPTH
 70
 3020
  9
$CMLSTYLE
  2
Standard
  9
$CMLJUST
 70
    0
  9
$CMLSCALE
 40
20
  9
$PROXYGRAPHICS
 70
    1
  9
$MEASUREMENT
 70
    1
  9
$CELWEIGHT
370
   -1
  9
$ENDCAPS
280
    0
  9
$JOINSTYLE
280
    0
  9
$LWDISPLAY
290
    0
  9
$INSUNITS
 70
    4
  9
$HYPERLINKBASE
  1

  9
$STYLESHEET
  1

  9
$XEDIT
290
    1
  9
$CEPSNTYPE
380
    0
  9
$PSTYLEMODE
290
    1
  9
$EXTNAMES
290
    1
  9
$PSVPSCALE
 40
0
  9
$OLESTARTUP
290
    0
  9
$SORTENTS
280
  127
  9
$INDEXCTL
280
    0
  9
$HIDETEXT
280
    1
  9
$XCLIPFRAME
290
    0
  9
$HALOGAP
280
    0
  9
$OBSCOLOR
 70
  257
  9
$OBSLTYPE
280
    0
  9
$INTERSECTIONDISPLAY
280
    0
  9
$INTERSECTIONCOLOR
 70
  257
  9
$DIMASSOC
280
    2
  9
$PROJECTNAME
  1

  9
$CAMERADISPLAY
290
    0
  9
$LENSLENGTH
 40
50
  9
$CAMERAHEIGHT
 40
0
  9
$STEPSPERSEC
 40
2
  9
$STEPSIZE
 40
6
  9
$3DDWFPREC
 40
2
  9
$PSOLWIDTH
 40
5
  9
$PSOLHEIGHT
 40
80
  9
$LOFTANG1
 40
1.570796326794897
  9
$LOFTANG2
 40
1.570796326794897
  9
$LOFTMAG1
 40
0
  9
$LOFTMAG2
 40
0
  9
$LOFTPARAM
 70
    7
  9
$LOFTNORMALS
280
    1
  9
$LATITUDE
 40
37.795
  9
$LONGITUDE
 40
-122.394
  9
$NORTHDIRECTION
 40
0
  9
$TIMEZONE
 70
-8000
  9
$LIGHTGLYPHDISPLAY
280
    1
  9
$TILEMODELIGHTSYNCH
280
    1
  9
$SOLIDHIST
280
    1
  9
$SHOWHIST
280
    1
  9
$DWFFRAME
280
    2
  9
$DGNFRAME
280
    2
  9
$REALWORLDSCALE
290
    1
  9
$INTERFERECOLOR
 62
  256
  9
$CSHADOW
280
    0
  9
$SHADOWPLANELOCATION
 40
0
  0
ENDSEC
  0
SECTION
  2
CLASSES
  0
ENDSEC
  0
SECTION
  2
TABLES
  0
TABLE
  2
VPORT
  5
8
330
0
100
AcDbSymbolTable
 70
    1
  0
VPORT
  5
31
330
2
100
AcDbSymbolTableRecord
100
AcDbViewportTableRecord
  2
*ACTIVE
 70
    0
 10
0
 20
0
 11
1
 21
1
 12
-25.01177123735489
 22
211.0210295555623
 13
0
 23
0
 14
10
 24
10
 15
10
 25
10
 16
0
 26
0
 36
1
 17
0
 27
0
 37
0
 40
65.05586963251397
 41
1.949514563106796
 42
50
 43
0
 44
0
 50
0
 51
0
 71
    0
 72
  100
 73
    1
 74
    3
 75
    0
 76
    0
 77
    0
 78
    0
281
    0
 65
    1
110
0
120
0
130
0
111
1
121
0
131
0
112
0
122
1
132
0
 79
    0
146
0
348
10020
 60
    7
 61
    5
292
1
282
    1
141
0
142
0
 63
  250
421
3358443
  0
ENDTAB
  0
TABLE
  2
LTYPE
  5
5
330
0
100
AcDbSymbolTable
 70
    4
  0
LTYPE
  5
14
330
5
100
AcDbSymbolTableRecord
100
AcDbLinetypeTableRecord
  2
ByBlock
 70
    0
  3

 72
   65
 73
    0
 40
0
  0
LTYPE
  5
15
330
5
100
AcDbSymbolTableRecord
100
AcDbLinetypeTableRecord
  2
ByLayer
 70
    0
  3

 72
   65
 73
    0
 40
0
  0
LTYPE
  5
16
330
5
100
AcDbSymbolTableRecord
100
AcDbLinetypeTableRecord
  2
Continuous
 70
    0
  3
Solid line
 72
   65
 73
    0
 40
0
  0
LTYPE
  5
32
330
5
100
AcDbSymbolTableRecord
100
AcDbLinetypeTableRecord
  2
DOT
 70
    0
  3
Dot . . . . . . . . . . . . . . . . . . . . . .
 72
   65
 73
    2
 40
6.35
 49
0
 74
    0
 49
-6.35
 74
    0
  0
LTYPE
  5
33
330
5
100
AcDbSymbolTableRecord
100
AcDbLinetypeTableRecord
  2
DOTTINY
 70
    0
  3
Dot (.15x) .....................................
 72
   65
 73
    2
 40
0.9525
 49
0
 74
    0
 49
-0.9525
 74
    0
  0
LTYPE
  5
34
330
5
100
AcDbSymbolTableRecord
100
AcDbLinetypeTableRecord
  2
DOT2
 70
    0
  3
Dot (.5x) .....................................
 72
   65
 73
    2
 40
3.175
 49
0
 74
    0
 49
-3.175
 74
    0
  0
LTYPE
  5
35
330
5
100
AcDbSymbolTableRecord
100
AcDbLinetypeTableRecord
  2
DOTX2
 70
    0
  3
Dot (2x) .  .  .  .  .  .  .  .  .  .  .  .  .
 72
   65
 73
    2
 40
12.7
 49
0
 74
    0
 49
-12.7
 74
    0
  0
LTYPE
  5
36
330
5
100
AcDbSymbolTableRecord
100
AcDbLinetypeTableRecord
  2
DASHED
 70
    0
  3
Dashed _ _ _ _ _ _ _ _ _ _ _ _ _ _ _ _ _
 72
   65
 73
    2
 40
19.05
 49
12.7
 74
    0
 49
-6.35
 74
    0
  0
LTYPE
  5
37
330
5
100
AcDbSymbolTableRecord
100
AcDbLinetypeTableRecord
  2
DASHEDTINY
 70
    0
  3
Dashed (.15x) _ _ _ _ _ _ _ _ _ _ _ _ _ _ _ _ _
 72
   65
 73
    2
 40
2.8575
 49
1.905
 74
    0
 49
-0.9525
 74
    0
  0
LTYPE
  5
38
330
5
100
AcDbSymbolTableRecord
100
AcDbLinetypeTableRecord
  2
DASHED2
 70
    0
  3
Dashed (.5x) _ _ _ _ _ _ _ _ _ _ _ _ _ _ _ _ _
 72
   65
 73
    2
 40
9.524999999999999
 49
6.35
 74
    0
 49
-3.175
 74
    0
  0
LTYPE
  5
39
330
5
100
AcDbSymbolTableRecord
100
AcDbLinetypeTableRecord
  2
DASHEDX2
 70
    0
  3
Dashed (2x) ____  ____  ____  ____  ____  ___
 72
   65
 73
    2
 40
38.09999999999999
 49
25.4
 74
    0
 49
-12.7
 74
    0
  0
LTYPE
  5
3A
330
5
100
AcDbSymbolTableRecord
100
AcDbLinetypeTableRecord
  2
DASHDOT
 70
    0
  3
Dash dot __ . __ . __ . __ . __ . __ . __ . __
 72
   65
 73
    4
 40
25.4
 49
12.7
 74
    0
 49
-6.35
 74
    0
 49
0
 74
    0
 49
-6.35
 74
    0
  0
LTYPE
  5
3B
330
5
100
AcDbSymbolTableRecord
100
AcDbLinetypeTableRecord
  2
DASHDOTTINY
 70
    0
  3
Dash dot (.15x) _._._._._._._._._._._._._._._.
 72
   65
 73
    4
 40
3.81
 49
1.905
 74
    0
 49
-0.9525
 74
    0
 49
0
 74
    0
 49
-0.9525
 74
    0
  0
LTYPE
  5
3C
330
5
100
AcDbSymbolTableRecord
100
AcDbLinetypeTableRecord
  2
DASHDOT2
 70
    0
  3
Dash dot (.5x) _._._._._._._._._._._._._._._.
 72
   65
 73
    4
 40
12.7
 49
6.35
 74
    0
 49
-3.175
 74
    0
 49
0
 74
    0
 49
-3.175
 74
    0
  0
LTYPE
  5
3D
330
5
100
AcDbSymbolTableRecord
100
AcDbLinetypeTableRecord
  2
DASHDOTX2
 70
    0
  3
Dash dot (2x) ____  .  ____  .  ____  .  ___
 72
   65
 73
    4
 40
50.8
 49
25.4
 74
    0
 49
-12.7
 74
    0
 49
0
 74
    0
 49
-12.7
 74
    0
  0
LTYPE
  5
3E
330
5
100
AcDbSymbolTableRecord
100
AcDbLinetypeTableRecord
  2
DIVIDE
 70
    0
  3
Divide ____ . . ____ . . ____ . . ____ . . ____
 72
   65
 73
    6
 40
31.75
 49
12.7
 74
    0
 49
-6.35
 74
    0
 49
0
 74
    0
 49
-6.35
 74
    0
 49
0
 74
    0
 49
-6.35
 74
    0
  0
LTYPE
  5
3F
330
5
100
AcDbSymbolTableRecord
100
AcDbLinetypeTableRecord
  2
DIVIDETINY
 70
    0
  3
Divide (.15x) __..__..__..__..__..__..__..__.._
 72
   65
 73
    6
 40
4.7625
 49
1.905
 74
    0
 49
-0.9525
 74
    0
 49
0
 74
    0
 49
-0.9525
 74
    0
 49
0
 74
    0
 49
-0.9525
 74
    0
  0
LTYPE
  5
40
330
5
100
AcDbSymbolTableRecord
100
AcDbLinetypeTableRecord
  2
DIVIDE2
 70
    0
  3
Divide (.5x) __..__..__..__..__..__..__..__.._
 72
   65
 73
    6
 40
15.875
 49
6.35
 74
    0
 49
-3.175
 74
    0
 49
0
 74
    0
 49
-3.175
 74
    0
 49
0
 74
    0
 49
-3.175
 74
    0
  0
LTYPE
  5
41
330
5
100
AcDbSymbolTableRecord
100
AcDbLinetypeTableRecord
  2
DIVIDEX2
 70
    0
  3
Divide (2x) ________  .  .  ________  .  .  _
 72
   65
 73
    6
 40
63.5
 49
25.4
 74
    0
 49
-12.7
 74
    0
 49
0
 74
    0
 49
-12.7
 74
    0
 49
0
 74
    0
 49
-12.7
 74
    0
  0
LTYPE
  5
42
330
5
100
AcDbSymbolTableRecord
100
AcDbLinetypeTableRecord
  2
BORDER
 70
    0
  3
Border __ __ . __ __ . __ __ . __ __ . __ __ .
 72
   65
 73
    6
 40
44.45
 49
12.7
 74
    0
 49
-6.35
 74
    0
 49
12.7
 74
    0
 49
-6.35
 74
    0
 49
0
 74
    0
 49
-6.35
 74
    0
  0
LTYPE
  5
43
330
5
100
AcDbSymbolTableRecord
100
AcDbLinetypeTableRecord
  2
BORDERTINY
 70
    0
  3
Border (.15x) __.__.__.__.__.__.__.__.__.__.__.
 72
   65
 73
    6
 40
6.6675
 49
1.905
 74
    0
 49
-0.9525
 74
    0
 49
1.905
 74
    0
 49
-0.9525
 74
    0
 49
0
 74
    0
 49
-0.9525
 74
    0
  0
LTYPE
  5
44
330
5
100
AcDbSymbolTableRecord
100
AcDbLinetypeTableRecord
  2
BORDER2
 70
    0
  3
Border (.5x) __.__.__.__.__.__.__.__.__.__.__.
 72
   65
 73
    6
 40
22.225
 49
6.35
 74
    0
 49
-3.175
 74
    0
 49
6.35
 74
    0
 49
-3.175
 74
    0
 49
0
 74
    0
 49
-3.175
 74
    0
  0
LTYPE
  5
45
330
5
100
AcDbSymbolTableRecord
100
AcDbLinetypeTableRecord
  2
BORDERX2
 70
    0
  3
Border (2x) ____  ____  .  ____  ____  .  ___
 72
   65
 73
    6
 40
88.89999999999999
 49
25.4
 74
    0
 49
-12.7
 74
    0
 49
25.4
 74
    0
 49
-12.7
 74
    0
 49
0
 74
    0
 49
-12.7
 74
    0
  0
LTYPE
  5
46
330
5
100
AcDbSymbolTableRecord
100
AcDbLinetypeTableRecord
  2
CENTER
 70
    0
  3
Center ____ _ ____ _ ____ _ ____ _ ____ _ ____
 72
   65
 73
    4
 40
50.8
 49
31.75
 74
    0
 49
-6.35
 74
    0
 49
6.35
 74
    0
 49
-6.35
 74
    0
  0
LTYPE
  5
47
330
5
100
AcDbSymbolTableRecord
100
AcDbLinetypeTableRecord
  2
CENTERTINY
 70
    0
  3
Center (.15x) ___ _ ___ _ ___ _ ___ _ ___ _ ___
 72
   65
 73
    4
 40
7.619999999999999
 49
4.7625
 74
    0
 49
-0.9525
 74
    0
 49
0.9525
 74
    0
 49
-0.9525
 74
    0
  0
LTYPE
  5
48
330
5
100
AcDbSymbolTableRecord
100
AcDbLinetypeTableRecord
  2
CENTER2
 70
    0
  3
Center (.5x) ___ _ ___ _ ___ _ ___ _ ___ _ ___
 72
   65
 73
    4
 40
28.575
 49
19.05
 74
    0
 49
-3.175
 74
    0
 49
3.175
 74
    0
 49
-3.175
 74
    0
  0
LTYPE
  5
49
330
5
100
AcDbSymbolTableRecord
100
AcDbLinetypeTableRecord
  2
CENTERX2
 70
    0
  3
Center (2x) ________  __  ________  __  _____
 72
   65
 73
    4
 40
101.6
 49
63.5
 74
    0
 49
-12.7
 74
    0
 49
12.7
 74
    0
 49
-12.7
 74
    0
  0
ENDTAB
  0
TABLE
  2
LAYER
  5
2
330
0
100
AcDbSymbolTable
 70
    1
  0
LAYER
  5
10
330
2
100
AcDbSymbolTableRecord
100
AcDbLayerTableRecord
  2
0
 70
    0
 62
    7
  6
CONTINUOUS
370
   -3
390
F
  0
LAYER
  5
4A
330
2
100
AcDbSymbolTableRecord
100
AcDbLayerTableRecord
  2
holes
 70
    1
 62
    3
  6
CONTINUOUS
370
    0
390
F
  0
LAYER
  5
4B
330
2
100
AcDbSymbolTableRecord
100
AcDbLayerTableRecord
  2
Системный слой
 70
    0
 62
    7
  6
CONTINUOUS
370
   -3
390
F
  0
ENDTAB
  0
TABLE
  2
STYLE
  5
3
330
0
100
AcDbSymbolTable
 70
    3
  0
STYLE
  5
4C
330
2
100
AcDbSymbolTableRecord
100
AcDbTextStyleTableRecord
  2
ktextstyle
 70
    0
 40
0
 41
1
 50
0
 71
    0
 42
1
  3
ktextstyle
  4

  0
STYLE
  5
4D
330
2
100
AcDbSymbolTableRecord
100
AcDbTextStyleTableRecord
  2
Standard
 70
    0
 40
0
 41
1
 50
0
 71
    0
 42
1
  3
txt
  4

  0
ENDTAB
  0
TABLE
  2
VIEW
  5
6
330
0
100
AcDbSymbolTable
 70
    0
  0
ENDTAB
  0
TABLE
  2
UCS
  5
7
330
0
100
AcDbSymbolTable
 70
    0
  0
ENDTAB
  0
TABLE
  2
APPID
  5
9
330
0
100
AcDbSymbolTable
 70
    1
  0
APPID
  5
12
330
9
100
AcDbSymbolTableRecord
100
AcDbRegAppTableRecord
  2
ACAD
 70
    0
  0
APPID
  5
4E
330
9
100
AcDbSymbolTableRecord
100
AcDbRegAppTableRecord
  2
LibreCad
 70
    0
  0
ENDTAB
  0
TABLE
  2
DIMSTYLE
  5
A
330
0
100
AcDbSymbolTable
 70
    1
100
AcDbDimStyleTable
 71
    1
  0
DIMSTYLE
105
4F
330
A
100
AcDbSymbolTableRecord
100
AcDbDimStyleTableRecord
  2
Standard
 70
    0
 40
1
 41
2.5
 42
0.625
 43
0.38
 44
1.25
 45
0
 46
0
 47
0
 48
0
 49
1
140
2.5
141
0.09
142
0
143
25.4
144
1
145
0
146
1
147
0.625
148
0
 71
    0
 72
    0
 73
    0
 74
    1
 75
    0
 76
    0
 77
    0
 78
    8
 79
    0
170
    0
171
    2
172
    0
173
    0
174
    0
175
    0
176
    0
177
    0
178
    0
179
    0
271
    2
272
    4
273
    2
274
    2
275
    0
276
    0
277
    2
278
   44
279
    0
280
    0
281
    0
282
    0
283
    1
284
    0
285
    0
286
    0
288
    0
289
    3
340
Standard
341

371
   -2
372
   -2
  0
ENDTAB
  0
TABLE
  2
BLOCK_RECORD
  5
1
330
0
100
AcDbSymbolTable
 70
    2
  0
BLOCK_RECORD
  5
1F
330
1
100
AcDbSymbolTableRecord
100
AcDbBlockTableRecord
  2
*Model_Space
 70
    0
280
    1
281
    0
  0
BLOCK_RECORD
  5
1E
330
1
100
AcDbSymbolTableRecord
100
AcDbBlockTableRecord
  2
*Paper_Space
 70
    0
280
    1
281
    0
  0
BLOCK_RECORD
  5
50
330
1
100
AcDbSymbolTableRecord
100
AcDbBlockTableRecord
  2
KDIMARROW_00
 70
    0
280
    1
281
    0
  0
BLOCK_RECORD
  5
53
330
1
100
AcDbSymbolTableRecord
100
AcDbBlockTableRecord
  2
KDIMARROW_01
 70
    0
280
    1
281
    0
  0
BLOCK_RECORD
  5
56
330
1
100
AcDbSymbolTableRecord
100
AcDbBlockTableRecord
  2
KDIMARROW_02
 70
    0
280
    1
281
    0
  0
BLOCK_RECORD
  5
59
330
1
100
AcDbSymbolTableRecord
100
AcDbBlockTableRecord
  2
KDIMARROW_03
 70
    0
280
    1
281
    0
  0
BLOCK_RECORD
  5
5C
330
1
100
AcDbSymbolTableRecord
100
AcDbBlockTableRecord
  2
KDIMARROW_04
 70
    0
280
    1
281
    0
  0
BLOCK_RECORD
  5
5F
330
1
100
AcDbSymbolTableRecord
100
AcDbBlockTableRecord
  2
KDIMARROW_05
 70
    0
280
    1
281
    0
  0
BLOCK_RECORD
  5
62
330
1
100
AcDbSymbolTableRecord
100
AcDbBlockTableRecord
  2
KDIMARROW_06
 70
    0
280
    1
281
    0
  0
BLOCK_RECORD
  5
65
330
1
100
AcDbSymbolTableRecord
100
AcDbBlockTableRecord
  2
KDIMARROW_07
 70
    0
280
    1
281
    0
  0
BLOCK_RECORD
  5
68
330
1
100
AcDbSymbolTableRecord
100
AcDbBlockTableRecord
  2
KDIMARROW_08
 70
    0
280
    1
281
    0
  0
BLOCK_RECORD
  5
6B
330
1
100
AcDbSymbolTableRecord
100
AcDbBlockTableRecord
  2
KDIMARROW_09
 70
    0
280
    1
281
    0
  0
BLOCK_RECORD
  5
6E
330
1
100
AcDbSymbolTableRecord
100
AcDbBlockTableRecord
  2
KDIMARROW_10
 70
    0
280
    1
281
    0
  0
BLOCK_RECORD
  5
71
330
1
100
AcDbSymbolTableRecord
100
AcDbBlockTableRecord
  2
KDIMARROW_11
 70
    0
280
    1
281
    0
  0
BLOCK_RECORD
  5
74
330
1
100
AcDbSymbolTableRecord
100
AcDbBlockTableRecord
  2
KDIMARROW_12
 70
    0
280
    1
281
    0
  0
BLOCK_RECORD
  5
77
330
1
100
AcDbSymbolTableRecord
100
AcDbBlockTableRecord
  2
KDIMARROW_13
 70
    0
280
    1
281
    0
  0
BLOCK_RECORD
  5
7A
330
1
100
AcDbSymbolTableRecord
100
AcDbBlockTableRecord
  2
U0
 70
    0
280
    1
281
    0
  0
ENDTAB
  0
ENDSEC
  0
SECTION
  2
BLOCKS
  0
BLOCK
  5
20
330
1F
100
AcDbEntity
  8
0
100
AcDbBlockBegin
  2
*Model_Space
 70
    0
 10
0
 20
0
 30
0
  3
*Model_Space
  1

  0
ENDBLK
  5
21
330
1F
100
AcDbEntity
  8
0
100
AcDbBlockEnd
  0
BLOCK
  5
1C
330
1B
100
AcDbEntity
  8
0
100
AcDbBlockBegin
  2
*Paper_Space
 70
    0
 10
0
 20
0
 30
0
  3
*Paper_Space
  1

  0
ENDBLK
  5
1D
330
1F
100
AcDbEntity
  8
0
100
AcDbBlockEnd
  0
BLOCK
  5
51
330
50
100
AcDbEntity
  8
0
100
AcDbBlockBegin
  2
KDIMARROW_00
 70
    0
 10
0
 20
0
  3
KDIMARROW_00
  1

  0
LINE
  5
7D
100
AcDbEntity
  8
0
  6
CONTINUOUS
 62
    0
370
   18
100
AcDbLine
 10
0
 20
0
 11
-1
 21
0
  0
ENDBLK
  5
52
330
50
100
AcDbEntity
  8
0
100
AcDbBlockEnd
  0
BLOCK
  5
54
330
53
100
AcDbEntity
  8
0
100
AcDbBlockBegin
  2
KDIMARROW_01
 70
    0
 10
0
 20
0
  3
KDIMARROW_01
  1

  0
LINE
  5
7E
100
AcDbEntity
  8
0
  6
CONTINUOUS
 62
    0
370
   18
100
AcDbLine
 10
0
 20
0
 11
-5.000000000000002
 21
-0.6582624912261958
  0
LINE
  5
7F
100
AcDbEntity
  8
0
  6
CONTINUOUS
 62
    0
370
   18
100
AcDbLine
 10
-5
 20
-0.6582624912261956
 11
-4.5
 21
4e-16
  0
LINE
  5
80
100
AcDbEntity
  8
0
  6
CONTINUOUS
 62
    0
370
   18
100
AcDbLine
 10
-4.5
 20
6e-16
 11
-5
 21
0.658262491226197
  0
LINE
  5
81
100
AcDbEntity
  8
0
  6
CONTINUOUS
 62
    0
370
   18
100
AcDbLine
 10
-5
 20
0.658262491226197
 11
1.8e-15
 21
0
  0
HATCH
  5
82
100
AcDbEntity
  8
0
  6
ByLayer
 62
    0
370
   -1
100
AcDbHatch
 10
0
 20
0
 30
0
210
0
220
0
230
1
  2
SOLID
 70
    1
 71
    0
 91
    1
 92
    0
 93
    4
 72
    1
 10
1.8e-15
 20
0
 11
-5
 21
0.658262491226197
 72
    1
 10
-5
 20
0.658262491226197
 11
-4.5
 21
7e-16
 72
    1
 10
-4.5
 20
4e-16
 11
-5
 21
-0.6582624912261956
 72
    1
 10
-5.000000000000002
 20
-0.6582624912261958
 11
0
 21
0
 97
    0
 75
    0
 76
    1
 98
    0
  0
LINE
  5
83
100
AcDbEntity
  8
0
  6
CONTINUOUS
 62
    0
370
   18
100
AcDbLine
 10
0
 20
0
 11
-1
 21
0
  0
ENDBLK
  5
55
330
53
100
AcDbEntity
  8
0
100
AcDbBlockEnd
  0
BLOCK
  5
57
330
56
100
AcDbEntity
  8
0
100
AcDbBlockBegin
  2
KDIMARROW_02
 70
    0
 10
0
 20
0
  3
KDIMARROW_02
  1

  0
LINE
  5
84
100
AcDbEntity
  8
0
  6
CONTINUOUS
 62
    0
370
   18
100
AcDbLine
 10
0
 20
0
 11
5.000000000000002
 21
-0.658262491226197
  0
LINE
  5
85
100
AcDbEntity
  8
0
  6
CONTINUOUS
 62
    0
370
   18
100
AcDbLine
 10
5
 20
-0.658262491226197
 11
4.5
 21
-6e-16
  0
LINE
  5
86
100
AcDbEntity
  8
0
  6
CONTINUOUS
 62
    0
370
   18
100
AcDbLine
 10
4.5
 20
-6e-16
 11
5
 21
0.6582624912261955
  0
LINE
  5
87
100
AcDbEntity
  8
0
  6
CONTINUOUS
 62
    0
370
   18
100
AcDbLine
 10
5
 20
0.6582624912261956
 11
-1.8e-15
 21
-2e-16
  0
LINE
  5
88
100
AcDbEntity
  8
0
  6
CONTINUOUS
 62
    0
370
   18
100
AcDbLine
 10
0
 20
0
 11
7
 21
-9e-16
  0
HATCH
  5
89
100
AcDbEntity
  8
0
  6
ByLayer
 62
    0
370
   -1
100
AcDbHatch
 10
0
 20
0
 30
0
210
0
220
0
230
1
  2
SOLID
 70
    1
 71
    0
 91
    1
 92
    0
 93
    4
 72
    1
 10
4.5
 20
-6e-16
 11
5
 21
0.6582624912261955
 72
    1
 10
5
 20
0.6582624912261956
 11
-1.8e-15
 21
-2e-16
 72
    1
 10
0
 20
0
 11
5.000000000000002
 21
-0.658262491226197
 72
    1
 10
5
 20
-0.658262491226197
 11
4.5
 21
-7e-16
 97
    0
 75
    0
 76
    1
 98
    0
  0
LINE
  5
8A
100
AcDbEntity
  8
0
  6
CONTINUOUS
 62
    0
370
   18
100
AcDbLine
 10
0
 20
0
 11
-1
 21
0
  0
ENDBLK
  5
58
330
56
100
AcDbEntity
  8
0
100
AcDbBlockEnd
  0
BLOCK
  5
5A
330
59
100
AcDbEntity
  8
0
100
AcDbBlockBegin
  2
KDIMARROW_03
 70
    0
 10
0
 20
0
  3
KDIMARROW_03
  1

  0
LINE
  5
8B
100
AcDbEntity
  8
0
  6
CONTINUOUS
 62
    0
370
   18
100
AcDbLine
 10
-1.060500025749207
 20
-1.060500025749206
 11
1.060500025749205
 21
1.060500025749205
  0
LINE
  5
8C
100
AcDbEntity
  8
0
  6
CONTINUOUS
 62
    0
370
   18
100
AcDbLine
 10
0
 20
0
 11
2
 21
-2e-16
  0
LINE
  5
8D
100
AcDbEntity
  8
0
  6
CONTINUOUS
 62
    0
370
   18
100
AcDbLine
 10
0
 20
0
 11
-1
 21
0
  0
ENDBLK
  5
5B
330
59
100
AcDbEntity
  8
0
100
AcDbBlockEnd
  0
BLOCK
  5
5D
330
5C
100
AcDbEntity
  8
0
100
AcDbBlockBegin
  2
KDIMARROW_04
 70
    0
 10
0
 20
0
  3
KDIMARROW_04
  1

  0
LWPOLYLINE
  5
8E
100
AcDbEntity
  8
0
  6
CONTINUOUS
 62
    7
370
   -1
100
AcDbPolyline
 90
   15
 70
    0
 43
0
 10
-0.25
 20
0
 10
0
 20
-0.25
 10
0.25
 20
0
 10
0
 20
0.25
 10
-0.25
 20
0
 10
-0.5
 20
1e-16
 10
-1e-16
 20
-0.5
 10
0.5
 20
-1e-16
 10
1e-16
 20
0.5
 10
-0.5
 20
1e-16
 10
-0.75
 20
1e-16
 10
-1e-16
 20
-0.75
 10
0.75
 20
-1e-16
 10
1e-16
 20
0.75
 10
-0.7499999999999999
 20
1e-16
  0
LWPOLYLINE
  5
8F
100
AcDbEntity
  8
0
  6
CONTINUOUS
 62
    7
370
   -1
100
AcDbPolyline
 90
   15
 70
    0
 43
0
 10
-0.25
 20
0
 10
0
 20
-0.25
 10
0.25
 20
0
 10
0
 20
0.25
 10
-0.25
 20
0
 10
-0.5
 20
1e-16
 10
-1e-16
 20
-0.5
 10
0.5
 20
-1e-16
 10
1e-16
 20
0.5
 10
-0.5
 20
1e-16
 10
-0.75
 20
1e-16
 10
-1e-16
 20
-0.75
 10
0.75
 20
-1e-16
 10
1e-16
 20
0.75
 10
-0.7499999999999999
 20
1e-16
  0
LINE
  5
90
100
AcDbEntity
  8
0
  6
CONTINUOUS
 62
    0
370
   18
100
AcDbLine
 10
0
 20
0
 11
-1
 21
0
  0
ENDBLK
  5
5E
330
5C
100
AcDbEntity
  8
0
100
AcDbBlockEnd
  0
BLOCK
  5
60
330
5F
100
AcDbEntity
  8
0
100
AcDbBlockBegin
  2
KDIMARROW_05
 70
    0
 10
0
 20
0
  3
KDIMARROW_05
  1

  0
LINE
  5
91
100
AcDbEntity
  8
0
  6
CONTINUOUS
 62
    0
370
   18
100
AcDbLine
 10
0
 20
0
 11
-5.000000000000002
 21
-0.6582624912261958
  0
LINE
  5
92
100
AcDbEntity
  8
0
  6
CONTINUOUS
 62
    0
370
   18
100
AcDbLine
 10
-5
 20
-0.6582624912261956
 11
-5
 21
7e-16
  0
LINE
  5
93
100
AcDbEntity
  8
0
  6
CONTINUOUS
 62
    0
370
   18
100
AcDbLine
 10
-5
 20
6e-16
 11
-5
 21
0.658262491226197
  0
LINE
  5
94
100
AcDbEntity
  8
0
  6
CONTINUOUS
 62
    0
370
   18
100
AcDbLine
 10
-5
 20
0.658262491226197
 11
1.8e-15
 21
0
  0
HATCH
  5
95
100
AcDbEntity
  8
0
  6
ByLayer
 62
    0
370
   -1
100
AcDbHatch
 10
0
 20
0
 30
0
210
0
220
0
230
1
  2
SOLID
 70
    1
 71
    0
 91
    1
 92
    0
 93
    4
 72
    1
 10
-5.000000000000002
 20
-0.6582624912261958
 11
0
 21
0
 72
    1
 10
1.8e-15
 20
0
 11
-5
 21
0.658262491226197
 72
    1
 10
-5
 20
0.658262491226197
 11
-5
 21
7e-16
 72
    1
 10
-5
 20
7e-16
 11
-5
 21
-0.6582624912261956
 97
    0
 75
    0
 76
    1
 98
    0
  0
LINE
  5
96
100
AcDbEntity
  8
0
  6
CONTINUOUS
 62
    0
370
   18
100
AcDbLine
 10
0
 20
0
 11
-1
 21
0
  0
ENDBLK
  5
61
330
5F
100
AcDbEntity
  8
0
100
AcDbBlockEnd
  0
BLOCK
  5
63
330
62
100
AcDbEntity
  8
0
100
AcDbBlockBegin
  2
KDIMARROW_06
 70
    0
 10
0
 20
0
  3
KDIMARROW_06
  1

  0
LINE
  5
97
100
AcDbEntity
  8
0
  6
CONTINUOUS
 62
    0
370
   18
100
AcDbLine
 10
0
 20
0
 11
5.000000000000002
 21
-0.658262491226197
  0
LINE
  5
98
100
AcDbEntity
  8
0
  6
CONTINUOUS
 62
    0
370
   18
100
AcDbLine
 10
5
 20
-0.658262491226197
 11
5
 21
-7e-16
  0
LINE
  5
99
100
AcDbEntity
  8
0
  6
CONTINUOUS
 62
    0
370
   18
100
AcDbLine
 10
5
 20
-6e-16
 11
5
 21
0.6582624912261956
  0
LINE
  5
9A
100
AcDbEntity
  8
0
  6
CONTINUOUS
 62
    0
370
   18
100
AcDbLine
 10
5
 20
0.6582624912261956
 11
-1.8e-15
 21
-2e-16
  0
LINE
  5
9B
100
AcDbEntity
  8
0
  6
CONTINUOUS
 62
    0
370
   18
100
AcDbLine
 10
0
 20
0
 11
7
 21
-9e-16
  0
HATCH
  5
9C
100
AcDbEntity
  8
0
  6
ByLayer
 62
    0
370
   -1
100
AcDbHatch
 10
0
 20
0
 30
0
210
0
220
0
230
1
  2
SOLID
 70
    1
 71
    0
 91
    1
 92
    0
 93
    4
 72
    1
 10
5
 20
-6e-16
 11
5
 21
0.6582624912261956
 72
    1
 10
5
 20
0.6582624912261956
 11
-1.8e-15
 21
-2e-16
 72
    1
 10
0
 20
0
 11
5.000000000000002
 21
-0.658262491226197
 72
    1
 10
5
 20
-0.658262491226197
 11
5
 21
-7e-16
 97
    0
 75
    0
 76
    1
 98
    0
  0
LINE
  5
9D
100
AcDbEntity
  8
0
  6
CONTINUOUS
 62
    0
370
   18
100
AcDbLine
 10
0
 20
0
 11
-1
 21
0
  0
ENDBLK
  5
64
330
62
100
AcDbEntity
  8
0
100
AcDbBlockEnd
  0
BLOCK
  5
66
330
65
100
AcDbEntity
  8
0
100
AcDbBlockBegin
  2
KDIMARROW_07
 70
    0
 10
0
 20
0
  3
KDIMARROW_07
  1

  0
LINE
  5
9E
100
AcDbEntity
  8
0
  6
CONTINUOUS
 62
    0
370
   18
100
AcDbLine
 10
0
 20
0
 11
-5.000000000000002
 21
-0.6582624912261958
  0
LINE
  5
9F
100
AcDbEntity
  8
0
  6
CONTINUOUS
 62
    0
370
   18
100
AcDbLine
 10
0
 20
0
 11
-5.000000000000002
 21
0.658262491226197
  0
LINE
  5
A0
100
AcDbEntity
  8
0
  6
CONTINUOUS
 62
    0
370
   18
100
AcDbLine
 10
0
 20
0
 11
-1
 21
0
  0
ENDBLK
  5
67
330
65
100
AcDbEntity
  8
0
100
AcDbBlockEnd
  0
BLOCK
  5
69
330
68
100
AcDbEntity
  8
0
100
AcDbBlockBegin
  2
KDIMARROW_08
 70
    0
 10
0
 20
0
  3
KDIMARROW_08
  1

  0
LINE
  5
A1
100
AcDbEntity
  8
0
  6
CONTINUOUS
 62
    0
370
   18
100
AcDbLine
 10
0
 20
0
 11
5.000000000000002
 21
-0.658262491226197
  0
LINE
  5
A2
100
AcDbEntity
  8
0
  6
CONTINUOUS
 62
    0
370
   18
100
AcDbLine
 10
0
 20
0
 11
5.000000000000002
 21
0.6582624912261958
  0
LINE
  5
A3
100
AcDbEntity
  8
0
  6
CONTINUOUS
 62
    0
370
   18
100
AcDbLine
 10
0
 20
0
 11
7
 21
-9e-16
  0
LINE
  5
A4
100
AcDbEntity
  8
0
  6
CONTINUOUS
 62
    0
370
   18
100
AcDbLine
 10
0
 20
0
 11
-1
 21
0
  0
ENDBLK
  5
6A
330
68
100
AcDbEntity
  8
0
100
AcDbBlockEnd
  0
BLOCK
  5
6C
330
6B
100
AcDbEntity
  8
0
100
AcDbBlockBegin
  2
KDIMARROW_09
 70
    0
 10
0
 20
0
  3
KDIMARROW_09
  1

  0
LINE
  5
A5
100
AcDbEntity
  8
0
  6
CONTINUOUS
 62
    0
370
   18
100
AcDbLine
 10
0
 20
0
 11
-1.999999999999999
 21
-1.999999999999999
  0
LINE
  5
A6
100
AcDbEntity
  8
0
  6
CONTINUOUS
 62
    0
370
   18
100
AcDbLine
 10
0
 20
0
 11
-1.999999999999999
 21
1.999999999999999
  0
LINE
  5
A7
100
AcDbEntity
  8
0
  6
CONTINUOUS
 62
    0
370
   18
100
AcDbLine
 10
0
 20
0
 11
-1
 21
0
  0
ENDBLK
  5
6D
330
6B
100
AcDbEntity
  8
0
100
AcDbBlockEnd
  0
BLOCK
  5
6F
330
6E
100
AcDbEntity
  8
0
100
AcDbBlockBegin
  2
KDIMARROW_10
 70
    0
 10
0
 20
0
  3
KDIMARROW_10
  1

  0
LINE
  5
A8
100
AcDbEntity
  8
0
  6
CONTINUOUS
 62
    0
370
   18
100
AcDbLine
 10
0
 20
0
 11
1.999999999999999
 21
-1.999999999999999
  0
LINE
  5
A9
100
AcDbEntity
  8
0
  6
CONTINUOUS
 62
    0
370
   18
100
AcDbLine
 10
0
 20
0
 11
1.999999999999999
 21
1.999999999999999
  0
LINE
  5
AA
100
AcDbEntity
  8
0
  6
CONTINUOUS
 62
    0
370
   18
100
AcDbLine
 10
0
 20
0
 11
4
 21
-5e-16
  0
LINE
  5
AB
100
AcDbEntity
  8
0
  6
CONTINUOUS
 62
    0
370
   18
100
AcDbLine
 10
0
 20
0
 11
-1
 21
0
  0
ENDBLK
  5
70
330
6E
100
AcDbEntity
  8
0
100
AcDbBlockEnd
  0
BLOCK
  5
72
330
71
100
AcDbEntity
  8
0
100
AcDbBlockBegin
  2
KDIMARROW_11
 70
    0
 10
0
 20
0
  3
KDIMARROW_11
  1

  0
CIRCLE
  5
AC
100
AcDbEntity
  8
0
  6
CONTINUOUS
 62
    0
370
   18
100
AcDbCircle
 10
0
 20
0
 40
2.5
  0
CIRCLE
  5
AD
100
AcDbEntity
  8
0
  6
CONTINUOUS
 62
    0
370
   18
100
AcDbCircle
 10
0
 20
0
 40
2.5
  0
LINE
  5
AE
100
AcDbEntity
  8
0
  6
CONTINUOUS
 62
    0
370
   18
100
AcDbLine
 10
0
 20
0
 11
-1
 21
0
  0
ENDBLK
  5
73
330
71
100
AcDbEntity
  8
0
100
AcDbBlockEnd
  0
BLOCK
  5
75
330
74
100
AcDbEntity
  8
0
100
AcDbBlockBegin
  2
KDIMARROW_12
 70
    0
 10
0
 20
0
  3
KDIMARROW_12
  1

  0
CIRCLE
  5
AF
100
AcDbEntity
  8
0
  6
CONTINUOUS
 62
    0
370
   18
100
AcDbCircle
 10
0
 20
0
 40
1.5
  0
CIRCLE
  5
B0
100
AcDbEntity
  8
0
  6
CONTINUOUS
 62
    0
370
   18
100
AcDbCircle
 10
0
 20
0
 40
1.5
  0
LINE
  5
B1
100
AcDbEntity
  8
0
  6
CONTINUOUS
 62
    0
370
   18
100
AcDbLine
 10
0
 20
0
 11
-1
 21
0
  0
ENDBLK
  5
76
330
74
100
AcDbEntity
  8
0
100
AcDbBlockEnd
  0
BLOCK
  5
78
330
77
100
AcDbEntity
  8
0
100
AcDbBlockBegin
  2
KDIMARROW_13
 70
    0
 10
0
 20
0
  3
KDIMARROW_13
  1

  0
LINE
  5
B2
100
AcDbEntity
  8
0
  6
CONTINUOUS
 62
    0
370
   18
100
AcDbLine
 10
-1.060500025749206
 20
1.060500025749207
 11
1.060500025749205
 21
-1.060500025749205
  0
LINE
  5
B3
100
AcDbEntity
  8
0
  6
CONTINUOUS
 62
    0
370
   18
100
AcDbLine
 10
0
 20
0
 11
2
 21
-2e-16
  0
LINE
  5
B4
100
AcDbEntity
  8
0
  6
CONTINUOUS
 62
    0
370
   18
100
AcDbLine
 10
0
 20
0
 11
-1
 21
0
  0
ENDBLK
  5
79
330
77
100
AcDbEntity
  8
0
100
AcDbBlockEnd
  0
BLOCK
  5
7B
330
7A
100
AcDbEntity
  8
0
100
AcDbBlockBegin
  2
U0
 70
    0
 10
0
 20
0
  3
U0
  1

  0
LINE
  5
B5
100
AcDbEntity
  8
0
  6
CONTINUOUS
 62
    5
370
   60
100
AcDbLine
 10
651
 20
60
 11
836
 21
60
  0
LINE
  5
B6
100
AcDbEntity
  8
0
  6
CONTINUOUS
 62
    7
370
   18
100
AcDbLine
 10
651
 20
50
 11
716
 21
50
  0
LINE
  5
B7
100
AcDbEntity
  8
0
  6
CONTINUOUS
 62
    7
370
   18
100
AcDbLine
 10
651
 20
45
 11
716
 21
45
  0
LINE
  5
B8
100
AcDbEntity
  8
0
  6
CONTINUOUS
 62
    7
370
   18
100
AcDbLine
 10
651
 20
30
 11
716
 21
30
  0
LINE
  5
B9
100
AcDbEntity
  8
0
  6
CONTINUOUS
 62
    7
370
   18
100
AcDbLine
 10
651
 20
25
 11
716
 21
25
  0
LINE
  5
BA
100
AcDbEntity
  8
0
  6
CONTINUOUS
 62
    7
370
   18
100
AcDbLine
 10
651
 20
20
 11
716
 21
20
  0
LINE
  5
BB
100
AcDbEntity
  8
0
  6
CONTINUOUS
 62
    7
370
   18
100
AcDbLine
 10
651
 20
15
 11
716
 21
15
  0
LINE
  5
BC
100
AcDbEntity
  8
0
  6
CONTINUOUS
 62
    7
370
   18
100
AcDbLine
 10
651
 20
10
 11
716
 21
10
  0
LINE
  5
BD
100
AcDbEntity
  8
0
  6
CONTINUOUS
 62
    5
370
   60
100
AcDbLine
 10
651
 20
5
 11
651
 21
60
  0
LINE
  5
BE
100
AcDbEntity
  8
0
  6
CONTINUOUS
 62
    7
370
   18
100
AcDbLine
 10
651
 20
55
 11
716
 21
55
  0
LINE
  5
BF
100
AcDbEntity
  8
0
  6
CONTINUOUS
 62
    5
370
   60
100
AcDbLine
 10
668
 20
5
 11
668
 21
60
  0
LINE
  5
C0
100
AcDbEntity
  8
0
  6
CONTINUOUS
 62
    5
370
   60
100
AcDbLine
 10
691
 20
5
 11
691
 21
60
  0
LINE
  5
C1
100
AcDbEntity
  8
0
  6
CONTINUOUS
 62
    5
370
   60
100
AcDbLine
 10
706
 20
5
 11
706
 21
60
  0
LINE
  5
C2
100
AcDbEntity
  8
0
  6
CONTINUOUS
 62
    5
370
   60
100
AcDbLine
 10
716
 20
5
 11
716
 21
60
  0
LINE
  5
C3
100
AcDbEntity
  8
0
  6
CONTINUOUS
 62
    5
370
   60
100
AcDbLine
 10
786
 20
5
 11
786
 21
45
  0
LINE
  5
C4
100
AcDbEntity
  8
0
  6
CONTINUOUS
 62
    5
370
   60
100
AcDbLine
 10
801
 20
25
 11
801
 21
45
  0
LINE
  5
C5
100
AcDbEntity
  8
0
  6
CONTINUOUS
 62
    5
370
   60
100
AcDbLine
 10
818
 20
25
 11
818
 21
45
  0
LINE
  5
C6
100
AcDbEntity
  8
0
  6
CONTINUOUS
 62
    5
370
   60
100
AcDbLine
 10
651
 20
40
 11
716
 21
40
  0
LINE
  5
C7
100
AcDbEntity
  8
0
  6
CONTINUOUS
 62
    5
370
   60
100
AcDbLine
 10
651
 20
35
 11
716
 21
35
  0
LINE
  5
C8
100
AcDbEntity
  8
0
  6
CONTINUOUS
 62
    5
370
   60
100
AcDbLine
 10
786
 20
20
 11
836
 21
20
  0
LINE
  5
C9
100
AcDbEntity
  8
0
  6
CONTINUOUS
 62
    5
370
   60
100
AcDbLine
 10
801
 20
40
 11
836
 21
40
  0
LINE
  5
CA
100
AcDbEntity
  8
0
  6
CONTINUOUS
 62
    5
370
   60
100
AcDbLine
 10
786
 20
40
 11
801
 21
40
  0
LINE
  5
CB
100
AcDbEntity
  8
0
  6
CONTINUOUS
 62
    5
370
   60
100
AcDbLine
 10
716
 20
45
 11
836
 21
45
  0
LINE
  5
CC
100
AcDbEntity
  8
0
  6
CONTINUOUS
 62
    5
370
   60
100
AcDbLine
 10
716
 20
20
 11
786
 21
20
  0
LINE
  5
CD
100
AcDbEntity
  8
0
  6
CONTINUOUS
 62
    5
370
   60
100
AcDbLine
 10
786
 20
25
 11
836
 21
25
  0
LINE
  5
CE
100
AcDbEntity
  8
0
  6
CONTINUOUS
 62
    5
370
   60
100
AcDbLine
 10
806.5749969482422
 20
20
 11
806.5749969482422
 21
25
  0
LINE
  5
CF
100
AcDbEntity
  8
0
  6
CONTINUOUS
 62
    7
370
   18
100
AcDbLine
 10
790.9645843505859
 20
25
 11
790.9645843505859
 21
40
  0
LINE
  5
D0
100
AcDbEntity
  8
0
  6
CONTINUOUS
 62
    7
370
   18
100
AcDbLine
 10
795.9822998046875
 20
25
 11
795.9822998046875
 21
40
  0
LINE
  5
D1
100
AcDbEntity
  8
0
  6
CONTINUOUS
 62
    5
370
   60
100
AcDbLine
 10
658
 20
35
 11
658
 21
60
  0
MTEXT
  5
D2
100
AcDbEntity
  8
0
  6
ByLayer
 62
    7
370
   -1
100
AcDbMText
 10
804.0354166030884
 20
44.24770736694336
 30
0
 40
0
 41
173.0000000000033
 71
    1
 72
    1
  1
\H3.5;\W0.965;\Q15;\Q15;Масса
  7
ktextstyle
210
0
220
0
230
1
 50
0
 73
    1
 44
1
  0
MTEXT
  5
D3
100
AcDbEntity
  8
0
  6
ByLayer
 62
    7
370
   -1
100
AcDbMText
 10
818.8895835876465
 20
44.24770736694336
 30
0
 40
0
 41
183.0000000000033
 71
    1
 72
    1
  1
\H3.5;\W0.965;\Q15;\Q15;Масштаб
  7
ktextstyle
210
0
220
0
230
1
 50
0
 73
    1
 44
1
  0
MTEXT
  5
D4
100
AcDbEntity
  8
0
  6
ByLayer
 62
    7
370
   -1
100
AcDbMText
 10
651.6154086589813
 20
39.2266731262207
 30
0
 40
0
 41
219.5000000000033
 71
    1
 72
    1
  1
\H3.5;\W0.965;\Q15;\Q15;\W0.784;Изм.
  7
ktextstyle
210
0
220
0
230
1
 50
0
 73
    1
 44
1
  0
MTEXT
  5
D5
100
AcDbEntity
  8
0
  6
ByLayer
 62
    7
370
   -1
100
AcDbMText
 10
658.5622797012329
 20
39.2266731262207
 30
0
 40
0
 41
221.5000000000039
 71
    1
 72
    1
  1
\H3.5;\W0.965;\Q15;\Q15;\W0.846;Лист
  7
ktextstyle
210
0
220
0
230
1
 50
0
 73
    1
 44
1
  0
MTEXT
  5
D6
100
AcDbEntity
  8
0
  6
ByLayer
 62
    7
370
   -1
100
AcDbMText
 10
671.8270835876465
 20
39.24770736694336
 30
0
 40
0
 41
187.7500000000033
 71
    1
 72
    1
  1
\H3.5;\W0.965;\Q15;\Q15;№ докум.
  7
ktextstyle
210
0
220
0
230
1
 50
0
 73
    1
 44
1
  0
MTEXT
  5
D7
100
AcDbEntity
  8
0
  6
ByLayer
 62
    7
370
   -1
100
AcDbMText
 10
694.2666664123535
 20
39.24770736694336
 30
0
 40
0
 41
171.0000000000033
 71
    1
 72
    1
  1
\H3.5;\W0.965;\Q15;\Q15;Подп.
  7
ktextstyle
210
0
220
0
230
1
 50
0
 73
    1
 44
1
  0
MTEXT
  5
D8
100
AcDbEntity
  8
0
  6
ByLayer
 62
    7
370
   -1
100
AcDbMText
 10
706.5622797012329
 20
39.2266731262207
 30
0
 40
0
 41
221.5000000000039
 71
    1
 72
    1
  1
\H3.5;\W0.965;\Q15;\Q15;\W0.846;Дата
  7
ktextstyle
210
0
220
0
230
1
 50
0
 73
    1
 44
1
  0
MTEXT
  5
D9
100
AcDbEntity
  8
0
  6
ByLayer
 62
    7
370
   -1
100
AcDbMText
 10
789.6635417938232
 20
44.24770736694336
 30
0
 40
0
 41
166.0000000000033
 71
    1
 72
    1
  1
\H3.5;\W0.965;\Q15;\Q15;Лит.
  7
ktextstyle
210
0
220
0
230
1
 50
0
 73
    1
 44
1
  0
MTEXT
  5
DA
100
AcDbEntity
  8
0
  6
ByLayer
 62
    7
370
   -1
100
AcDbMText
 10
651.5
 20
34.24770736694336
 30
0
 40
0
 41
181.0000000000033
 71
    1
 72
    1
  1
\H3.5;\W0.965;\Q15;\Q15;Разраб.
  7
ktextstyle
210
0
220
0
230
1
 50
0
 73
    1
 44
1
  0
MTEXT
  5
DB
100
AcDbEntity
  8
0
  6
ByLayer
 62
    7
370
   -1
100
AcDbMText
 10
651.5
 20
29.24770736694336
 30
0
 40
0
 41
171.0000000000033
 71
    1
 72
    1
  1
\H3.5;\W0.965;\Q15;\Q15;Пров.
  7
ktextstyle
210
0
220
0
230
1
 50
0
 73
    1
 44
1
  0
MTEXT
  5
DC
100
AcDbEntity
  8
0
  6
ByLayer
 62
    7
370
   -1
100
AcDbMText
 10
651.5
 20
24.24770736694336
 30
0
 40
0
 41
184.0000000000033
 71
    1
 72
    1
  1
\H3.5;\W0.965;\Q15;\Q15;Т.контр.
  7
ktextstyle
210
0
220
0
230
1
 50
0
 73
    1
 44
1
  0
MTEXT
  5
DD
100
AcDbEntity
  8
0
  6
ByLayer
 62
    7
370
   -1
100
AcDbMText
 10
787.7802104949951
 20
24.24770736694336
 30
0
 40
0
 41
168.0000000000033
 71
    1
 72
    1
  1
\H3.5;\W0.965;\Q15;\Q15;Лист
  7
ktextstyle
210
0
220
0
230
1
 50
0
 73
    1
 44
1
  0
MTEXT
  5
DE
100
AcDbEntity
  8
0
  6
ByLayer
 62
    7
370
   -1
100
AcDbMText
 10
808.9156227111816
 20
24.24770736694336
 30
0
 40
0
 41
178.0000000000033
 71
    1
 72
    1
  1
\H3.5;\W0.965;\Q15;\Q15;Листов
  7
ktextstyle
210
0
220
0
230
1
 50
0
 73
    1
 44
1
  0
MTEXT
  5
DF
100
AcDbEntity
  8
0
  6
ByLayer
 62
    7
370
   -1
100
AcDbMText
 10
651.5
 20
14.24770736694336
 30
0
 40
0
 41
184.0000000000033
 71
    1
 72
    1
  1
\H3.5;\W0.965;\Q15;\Q15;Н.контр.
  7
ktextstyle
210
0
220
0
230
1
 50
0
 73
    1
 44
1
  0
MTEXT
  5
E0
100
AcDbEntity
  8
0
  6
ByLayer
 62
    7
370
   -1
100
AcDbMText
 10
651.5
 20
9.247707366943359
 30
0
 40
0
 41
166.0000000000033
 71
    1
 72
    1
  1
\H3.5;\W0.965;\Q15;\Q15;Утв.
  7
ktextstyle
210
0
220
0
230
1
 50
0
 73
    1
 44
1
  0
MTEXT
  5
E1
100
AcDbEntity
  8
0
  6
ByLayer
 62
    7
370
   -1
100
AcDbMText
 10
823.444167137146
 20
34.96667671203613
 30
0
 40
0
 41
203.5000000000039
 71
    1
 72
    1
  1
\H3.5;\W0.965;\Q15;\Q15;\H5.00;1:1
  7
ktextstyle
210
0
220
0
230
1
 50
0
 73
    1
 44
1
  0
MTEXT
  5
E2
100
AcDbEntity
  8
0
  6
ByLayer
 62
    7
370
   -1
100
AcDbMText
 10
828.905499458313
 20
24.2266731262207
 30
0
 40
0
 41
153.0000000000033
 71
    1
 72
    1
  1
\H3.5;\W0.965;\Q15;\Q15;1
  7
ktextstyle
210
0
220
0
230
1
 50
0
 73
    1
 44
1
  0
LINE
  5
E3
100
AcDbEntity
  8
0
  6
CONTINUOUS
 62
    5
370
   60
100
AcDbLine
 10
8
 20
5.000000000000001
 11
8.000000000000009
 21
150
  0
LINE
  5
E4
100
AcDbEntity
  8
0
  6
CONTINUOUS
 62
    5
370
   60
100
AcDbLine
 10
13
 20
5.000000000000001
 11
13.00000000000001
 21
150
  0
LINE
  5
E5
100
AcDbEntity
  8
0
  6
CONTINUOUS
 62
    5
370
   60
100
AcDbLine
 10
20
 20
5
 11
8
 21
5.000000000000001
  0
LINE
  5
E6
100
AcDbEntity
  8
0
  6
CONTINUOUS
 62
    5
370
   60
100
AcDbLine
 10
20.00000000000001
 20
150
 11
8.000000000000009
 21
150
  0
LINE
  5
E7
100
AcDbEntity
  8
0
  6
CONTINUOUS
 62
    5
370
   60
100
AcDbLine
 10
20
 20
30
 11
8.000000000000002
 21
30
  0
LINE
  5
E8
100
AcDbEntity
  8
0
  6
CONTINUOUS
 62
    5
370
   60
100
AcDbLine
 10
20
 20
65
 11
8.000000000000004
 21
65
  0
LINE
  5
E9
100
AcDbEntity
  8
0
  6
CONTINUOUS
 62
    5
370
   60
100
AcDbLine
 10
20.00000000000001
 20
90
 11
8.000000000000005
 21
90
  0
LINE
  5
EA
100
AcDbEntity
  8
0
  6
CONTINUOUS
 62
    5
370
   60
100
AcDbLine
 10
20.00000000000001
 20
115
 11
8.000000000000007
 21
115
  0
MTEXT
  5
EB
100
AcDbEntity
  8
0
  6
ByLayer
 62
    7
370
   -1
100
AcDbMText
 10
8.752291679382324
 20
6.784375190734864
 30
0
 40
0
 41
207.5000000000033
 71
    1
 72
    1
  1
\H3.5;\W0.965;\Q15;\Q15;Инв. № подл.
  7
ktextstyle
210
0
220
0
230
1
 50
90
 73
    1
 44
1
  0
MTEXT
  5
EC
100
AcDbEntity
  8
0
  6
ByLayer
 62
    7
370
   -1
100
AcDbMText
 10
8.752291679382326
 20
36.21458339691162
 30
0
 40
0
 41
209.5000000000033
 71
    1
 72
    1
  1
\H3.5;\W0.965;\Q15;\Q15;Подп. и дата
  7
ktextstyle
210
0
220
0
230
1
 50
90
 73
    1
 44
1
  0
MTEXT
  5
ED
100
AcDbEntity
  8
0
  6
ByLayer
 62
    7
370
   -1
100
AcDbMText
 10
8.752291679382328
 20
66.21458435058594
 30
0
 40
0
 41
207.5000000000033
 71
    1
 72
    1
  1
\H3.5;\W0.965;\Q15;\Q15;Взам. инв. №
  7
ktextstyle
210
0
220
0
230
1
 50
90
 73
    1
 44
1
  0
MTEXT
  5
EE
100
AcDbEntity
  8
0
  6
ByLayer
 62
    7
370
   -1
100
AcDbMText
 10
8.75229167938233
 20
91.78437519073486
 30
0
 40
0
 41
207.5000000000033
 71
    1
 72
    1
  1
\H3.5;\W0.965;\Q15;\Q15;Инв. № дубл.
  7
ktextstyle
210
0
220
0
230
1
 50
90
 73
    1
 44
1
  0
MTEXT
  5
EF
100
AcDbEntity
  8
0
  6
ByLayer
 62
    7
370
   -1
100
AcDbMText
 10
8.752291679382331
 20
121.2145833969116
 30
0
 40
0
 41
209.5000000000033
 71
    1
 72
    1
  1
\H3.5;\W0.965;\Q15;\Q15;Подп. и дата
  7
ktextstyle
210
0
220
0
230
1
 50
90
 73
    1
 44
1
  0
LINE
  5
F0
100
AcDbEntity
  8
0
  6
CONTINUOUS
 62
    5
370
   60
100
AcDbLine
 10
8
 20
172
 11
8.000000000000007
 21
292
  0
LINE
  5
F1
100
AcDbEntity
  8
0
  6
CONTINUOUS
 62
    5
370
   60
100
AcDbLine
 10
13
 20
172
 11
13.00000000000001
 21
292
  0
LINE
  5
F2
100
AcDbEntity
  8
0
  6
CONTINUOUS
 62
    5
370
   60
100
AcDbLine
 10
20
 20
172
 11
8
 21
172
  0
LINE
  5
F3
100
AcDbEntity
  8
0
  6
CONTINUOUS
 62
    5
370
   60
100
AcDbLine
 10
20.00000000000001
 20
292
 11
8.000000000000007
 21
292
  0
LINE
  5
F4
100
AcDbEntity
  8
0
  6
CONTINUOUS
 62
    5
370
   60
100
AcDbLine
 10
20
 20
232
 11
8.000000000000004
 21
232
  0
MTEXT
  5
F5
100
AcDbEntity
  8
0
  6
ByLayer
 62
    7
370
   -1
100
AcDbMText
 10
8.752291679382326
 20
194.0218753814697
 30
0
 40
0
 41
187.7500000000033
 71
    1
 72
    1
  1
\H3.5;\W0.965;\Q15;\Q15;Справ. №
  7
ktextstyle
210
0
220
0
230
1
 50
90
 73
    1
 44
1
  0
MTEXT
  5
F6
100
AcDbEntity
  8
0
  6
ByLayer
 62
    7
370
   -1
100
AcDbMText
 10
8.75229167938233
 20
250.8875007629395
 30
0
 40
0
 41
210.7500000000033
 71
    1
 72
    1
  1
\H3.5;\W0.965;\Q15;\Q15;Перв. примен.
  7
ktextstyle
210
0
220
0
230
1
 50
90
 73
    1
 44
1
  0
LINE
  5
F7
100
AcDbEntity
  8
0
  6
CONTINUOUS
 62
    5
370
   60
100
AcDbLine
 10
90
 20
575
 11
20
 21
575
  0
LINE
  5
F8
100
AcDbEntity
  8
0
  6
CONTINUOUS
 62
    5
370
   60
100
AcDbLine
 10
90
 20
589
 11
90
 21
575
  0
MTEXT
  5
F9
100
AcDbEntity
  8
0
  6
ByLayer
 62
    7
370
   -1
100
AcDbMText
 10
726.5
 20
4.247708320617676
 30
0
 40
0
 41
193.0000000000033
 71
    1
 72
    1
  1
\H3.5;\W0.965;\Q15;\Q15;Копировал
  7
ktextstyle
210
0
220
0
230
1
 50
0
 73
    1
 44
1
  0
MTEXT
  5
FA
100
AcDbEntity
  8
0
  6
ByLayer
 62
    7
370
   -1
100
AcDbMText
 10
796.5
 20
4.247708320617676
 30
0
 40
0
 41
178.0000000000033
 71
    1
 72
    1
  1
\H3.5;\W0.965;\Q15;\Q15;Формат
  7
ktextstyle
210
0
220
0
230
1
 50
0
 73
    1
 44
1
  0
MTEXT
  5
FB
100
AcDbEntity
  8
0
  6
ByLayer
 62
    7
370
   -1
100
AcDbMText
 10
816.5
 20
4.22667407989502
 30
0
 40
0
 41
162.0000000000033
 71
    1
 72
    1
  1
\H3.5;\W0.965;\Q15;\Q15;A1
  7
ktextstyle
210
0
220
0
230
1
 50
0
 73
    1
 44
1
  0
LINE
  5
FC
100
AcDbEntity
  8
0
  6
CONTINUOUS
 62
    5
370
   60
100
AcDbLine
 10
20
 20
5
 11
20
 21
589
  0
LINE
  5
FD
100
AcDbEntity
  8
0
  6
CONTINUOUS
 62
    5
370
   60
100
AcDbLine
 10
20
 20
589
 11
836
 21
589
  0
LINE
  5
FE
100
AcDbEntity
  8
0
  6
CONTINUOUS
 62
    5
370
   60
100
AcDbLine
 10
836
 20
589
 11
836
 21
5
  0
LINE
  5
FF
100
AcDbEntity
  8
0
  6
CONTINUOUS
 62
    5
370
   60
100
AcDbLine
 10
836
 20
5
 11
20
 21
5
  0
LINE
  5
100
100
AcDbEntity
  8
0
  6
CONTINUOUS
 62
    7
370
   18
100
AcDbLine
 10
0
 20
0
 11
0
 21
594
  0
LINE
  5
101
100
AcDbEntity
  8
0
  6
CONTINUOUS
 62
    7
370
   18
100
AcDbLine
 10
0
 20
594
 11
841
 21
594
  0
LINE
  5
102
100
AcDbEntity
  8
0
  6
CONTINUOUS
 62
    7
370
   18
100
AcDbLine
 10
841
 20
594
 11
841
 21
0
  0
LINE
  5
103
100
AcDbEntity
  8
0
  6
CONTINUOUS
 62
    7
370
   18
100
AcDbLine
 10
841
 20
0
 11
0
 21
0
  0
ENDBLK
  5
7C
330
7A
100
AcDbEntity
  8
0
100
AcDbBlockEnd
  0
ENDSEC
  0
SECTION
  2
ENTITIES
  0
LINE
  5
104
100
AcDbEntity
  8
0
  6
CONTINUOUS
 62
    7
370
   18
100
AcDbLine
 10
0
 20
0
 11
-53.5
 21
0
  0
LINE
  5
105
100
AcDbEntity
  8
0
  6
CONTINUOUS
 62
    7
370
   18
100
AcDbLine
 10
-86.5
 20
0
 11
-148.349999999999
 21
0
  0
LINE
  5
106
100
AcDbEntity
  8
0
  6
CONTINUOUS
 62
    7
370
   18
100
AcDbLine
 10
-181.3500000000002
 20
0
 11
-243.5
 21
0
  0
LINE
  5
107
100
AcDbEntity
  8
0
  6
CONTINUOUS
 62
    7
370
   18
100
AcDbLine
 10
-276.5
 20
0
 11
-330
 21
0
  0
LINE
  5
108
100
AcDbEntity
  8
0
  6
CONTINUOUS
 62
    7
370
   18
100
AcDbLine
 10
-330
 20
55.50000000000087
 11
-320
 21
55.50000000000087
  0
LINE
  5
109
100
AcDbEntity
  8
0
  6
CONTINUOUS
 62
    7
370
   18
100
AcDbLine
 10
-310
 20
45.50000000000087
 11
-200
 21
45.50000000000087
  0
LINE
  5
10A
100
AcDbEntity
  8
0
  6
CONTINUOUS
 62
    7
370
   18
100
AcDbLine
 10
-310
 20
45.50000000000087
 11
-320
 21
55.50000000000087
  0
LINE
  5
10B
100
AcDbEntity
  8
0
  6
CONTINUOUS
 62
    7
370
   18
100
AcDbLine
 10
-200
 20
45.50000000000087
 11
-190
 21
55.50000000000087
  0
LINE
  5
10C
100
AcDbEntity
  8
0
  6
CONTINUOUS
 62
    7
370
   18
100
AcDbLine
 10
-162.099999999999
 20
49.49999999999997
 11
-156.2
 21
49.49999999999997
  0
LINE
  5
10D
100
AcDbEntity
  8
0
  6
CONTINUOUS
 62
    7
370
   18
100
AcDbLine
 10
-153.2
 20
49.49999999999997
 11
-147.2
 21
49.49999999999997
  0
LINE
  5
10E
100
AcDbEntity
  8
0
  6
CONTINUOUS
 62
    7
370
   18
100
AcDbLine
 10
-147.2
 20
49.49999999999997
 11
-147.2
 21
55.50000000000087
  0
LINE
  5
10F
100
AcDbEntity
  8
0
  6
CONTINUOUS
 62
    7
370
   18
100
AcDbLine
 10
-162.099999999999
 20
49.49999999999997
 11
-162.099999999999
 21
55.50000000000087
  0
LINE
  5
110
100
AcDbEntity
  8
0
  6
CONTINUOUS
 62
    7
370
   18
100
AcDbLine
 10
-171.2
 20
55.50000000000087
 11
-171.2
 21
49.49999999999997
  0
LINE
  5
111
100
AcDbEntity
  8
0
  6
CONTINUOUS
 62
    7
370
   18
100
AcDbLine
 10
-147.2
 20
55.50000000000087
 11
-138.099999999999
 21
55.50000000000087
  0
LINE
  5
112
100
AcDbEntity
  8
0
  6
CONTINUOUS
 62
    7
370
   18
100
AcDbLine
 10
-171.2
 20
55.50000000000087
 11
-162.099999999999
 21
55.50000000000087
  0
LINE
  5
113
100
AcDbEntity
  8
0
  6
CONTINUOUS
 62
    7
370
   18
100
AcDbLine
 10
-138.099999999999
 20
55.50000000000087
 11
-138.099999999999
 21
49.49999999999997
  0
LINE
  5
114
100
AcDbEntity
  8
0
  6
CONTINUOUS
 62
    7
370
   18
100
AcDbLine
 10
-138.099999999999
 20
49.49999999999997
 11
-123
 21
49.49999999999997
  0
LINE
  5
115
100
AcDbEntity
  8
0
  6
CONTINUOUS
 62
    7
370
   18
100
AcDbLine
 10
-190
 20
55.50000000000087
 11
-180
 21
55.50000000000087
  0
LINE
  5
116
100
AcDbEntity
  8
0
  6
CONTINUOUS
 62
    7
370
   18
100
AcDbLine
 10
-180
 20
55.50000000000087
 11
-180
 21
49.49999999999997
  0
LINE
  5
117
100
AcDbEntity
  8
0
  6
CONTINUOUS
 62
    7
370
   18
100
AcDbLine
 10
-180
 20
49.49999999999997
 11
-171.2
 21
49.49999999999997
  0
LINE
  5
118
100
AcDbEntity
  8
0
  6
CONTINUOUS
 62
    7
370
   18
100
AcDbLine
 10
-85.19316767383998
 20
337.145382880796
 11
0
 21
55.50000000000087
  0
LINE
  5
119
100
AcDbEntity
  8
0
  6
CONTINUOUS
 62
    7
370
   18
100
AcDbLine
 10
-330
 20
20.35000000000105
 11
-330
 21
26.25000000000091
  0
LINE
  5
11A
100
AcDbEntity
  8
0
  6
CONTINUOUS
 62
    7
370
   18
100
AcDbLine
 10
-330
 20
29.25
 11
-330
 21
35.25
  0
LINE
  5
11B
100
AcDbEntity
  8
0
  6
CONTINUOUS
 62
    7
370
   18
100
AcDbLine
 10
-330
 20
35.25
 11
-336
 21
35.25
  0
LINE
  5
11C
100
AcDbEntity
  8
0
  6
CONTINUOUS
 62
    7
370
   18
100
AcDbLine
 10
-330
 20
20.35000000000105
 11
-336.0000000000011
 21
20.35000000000105
  0
LINE
  5
11D
100
AcDbEntity
  8
0
  6
CONTINUOUS
 62
    7
370
   18
100
AcDbLine
 10
-336
 20
11.25
 11
-330
 21
11.25
  0
LINE
  5
11E
100
AcDbEntity
  8
0
  6
CONTINUOUS
 62
    7
370
   18
100
AcDbLine
 10
-336
 20
35.25
 11
-336
 21
44.34999999999987
  0
LINE
  5
11F
100
AcDbEntity
  8
0
  6
CONTINUOUS
 62
    7
370
   18
100
AcDbLine
 10
-336
 20
11.25
 11
-336
 21
20.35000000000105
  0
LINE
  5
120
100
AcDbEntity
  8
0
  6
CONTINUOUS
 62
    7
370
   18
100
AcDbLine
 10
-330
 20
44.34999999999987
 11
-336
 21
44.34999999999987
  0
LINE
  5
121
100
AcDbEntity
  8
0
  6
CONTINUOUS
 62
    7
370
   18
100
AcDbLine
 10
-330
 20
44.34999999999987
 11
-330
 21
55.50000000000087
  0
LINE
  5
122
100
AcDbEntity
  8
0
  6
CONTINUOUS
 62
    7
370
   18
100
AcDbLine
 10
-330
 20
11.25
 11
-330
 21
0
  0
LINE
  5
123
100
AcDbEntity
  8
0
  6
CONTINUOUS
 62
    7
370
   18
100
AcDbLine
 10
-62.5
 20
0
 11
-62.5
 21
5.900000000001
  0
LINE
  5
124
100
AcDbEntity
  8
0
  6
CONTINUOUS
 62
    7
370
   18
100
AcDbLine
 10
-62.5
 20
5.900000000001
 11
-53.5
 21
5.900000000001
  0
LINE
  5
125
100
AcDbEntity
  8
0
  6
CONTINUOUS
 62
    7
370
   18
100
AcDbLine
 10
-53.5
 20
5.900000000001
 11
-53.5
 21
0
  0
LINE
  5
126
100
AcDbEntity
  8
0
  6
CONTINUOUS
 62
    7
370
   18
100
AcDbLine
 10
-77.5
 20
5.900000000001
 11
-86.5
 21
5.900000000001
  0
LINE
  5
127
100
AcDbEntity
  8
0
  6
CONTINUOUS
 62
    7
370
   18
100
AcDbLine
 10
-86.5
 20
5.900000000001
 11
-86.5
 21
0
  0
LINE
  5
128
100
AcDbEntity
  8
0
  6
CONTINUOUS
 62
    7
370
   18
100
AcDbLine
 10
-77.5
 20
5.900000000001
 11
-77.5
 21
0
  0
LINE
  5
129
100
AcDbEntity
  8
0
  6
CONTINUOUS
 62
    7
370
   18
100
AcDbLine
 10
-62.5
 20
0
 11
-77.5
 21
0
  0
LINE
  5
12A
100
AcDbEntity
  8
0
  6
CONTINUOUS
 62
    7
370
   18
100
AcDbLine
 10
-157.349999999999
 20
0
 11
-157.349999999999
 21
5.900000000001
  0
LINE
  5
12B
100
AcDbEntity
  8
0
  6
CONTINUOUS
 62
    7
370
   18
100
AcDbLine
 10
-157.349999999999
 20
5.900000000001
 11
-148.349999999999
 21
5.900000000001
  0
LINE
  5
12C
100
AcDbEntity
  8
0
  6
CONTINUOUS
 62
    7
370
   18
100
AcDbLine
 10
-148.349999999999
 20
5.900000000001
 11
-148.349999999999
 21
0
  0
LINE
  5
12D
100
AcDbEntity
  8
0
  6
CONTINUOUS
 62
    7
370
   18
100
AcDbLine
 10
-172.349999999999
 20
5.900000000001
 11
-181.3500000000002
 21
5.900000000001
  0
LINE
  5
12E
100
AcDbEntity
  8
0
  6
CONTINUOUS
 62
    7
370
   18
100
AcDbLine
 10
-181.3500000000002
 20
5.900000000001
 11
-181.3500000000002
 21
0
  0
LINE
  5
12F
100
AcDbEntity
  8
0
  6
CONTINUOUS
 62
    7
370
   18
100
AcDbLine
 10
-172.349999999999
 20
5.900000000001
 11
-172.349999999999
 21
0
  0
LINE
  5
130
100
AcDbEntity
  8
0
  6
CONTINUOUS
 62
    7
370
   18
100
AcDbLine
 10
-252.5
 20
0
 11
-252.5
 21
5.900000000001
  0
LINE
  5
131
100
AcDbEntity
  8
0
  6
CONTINUOUS
 62
    7
370
   18
100
AcDbLine
 10
-252.5
 20
5.900000000001
 11
-243.5
 21
5.900000000001
  0
LINE
  5
132
100
AcDbEntity
  8
0
  6
CONTINUOUS
 62
    7
370
   18
100
AcDbLine
 10
-243.5
 20
5.900000000001
 11
-243.5
 21
0
  0
LINE
  5
133
100
AcDbEntity
  8
0
  6
CONTINUOUS
 62
    7
370
   18
100
AcDbLine
 10
-267.5
 20
5.900000000001
 11
-276.5
 21
5.900000000001
  0
LINE
  5
134
100
AcDbEntity
  8
0
  6
CONTINUOUS
 62
    7
370
   18
100
AcDbLine
 10
-276.5
 20
5.900000000001
 11
-276.5
 21
0
  0
LINE
  5
135
100
AcDbEntity
  8
0
  6
CONTINUOUS
 62
    7
370
   18
100
AcDbLine
 10
-267.5
 20
5.900000000001
 11
-267.5
 21
0
  0
LINE
  5
136
100
AcDbEntity
  8
0
  6
CONTINUOUS
 62
    7
370
   18
100
AcDbLine
 10
0
 20
35.25
 11
0
 21
29.35000000000105
  0
LINE
  5
137
100
AcDbEntity
  8
0
  6
CONTINUOUS
 62
    7
370
   18
100
AcDbLine
 10
0
 20
26.34999999999991
 11
0
 21
20.35000000000105
  0
LINE
  5
138
100
AcDbEntity
  8
0
  6
CONTINUOUS
 62
    7
370
   18
100
AcDbLine
 10
0
 20
20.35000000000105
 11
6
 21
20.35000000000105
  0
LINE
  5
139
100
AcDbEntity
  8
0
  6
CONTINUOUS
 62
    7
370
   18
100
AcDbLine
 10
0
 20
35.25
 11
6
 21
35.25
  0
LINE
  5
13A
100
AcDbEntity
  8
0
  6
CONTINUOUS
 62
    7
370
   18
100
AcDbLine
 10
6
 20
44.34999999999987
 11
0
 21
44.34999999999987
  0
LINE
  5
13B
100
AcDbEntity
  8
0
  6
CONTINUOUS
 62
    7
370
   18
100
AcDbLine
 10
6
 20
20.35000000000105
 11
6
 21
11.25
  0
LINE
  5
13C
100
AcDbEntity
  8
0
  6
CONTINUOUS
 62
    7
370
   18
100
AcDbLine
 10
6
 20
44.34999999999987
 11
6
 21
35.25
  0
LINE
  5
13D
100
AcDbEntity
  8
0
  6
CONTINUOUS
 62
    7
370
   18
100
AcDbLine
 10
0
 20
11.25
 11
6
 21
11.25
  0
LINE
  5
13E
100
AcDbEntity
  8
0
  6
CONTINUOUS
 62
    7
370
   18
100
AcDbLine
 10
0
 20
55.50000000000087
 11
0
 21
44.34999999999987
  0
LINE
  5
13F
100
AcDbEntity
  8
0
  6
CONTINUOUS
 62
    7
370
   18
100
AcDbLine
 10
0
 20
11.25
 11
0
 21
0
  0
LINE
  5
140
100
AcDbEntity
  8
0
  6
CONTINUOUS
 62
    7
370
   18
100
AcDbLine
 10
-267.5
 20
0
 11
-252.5
 21
0
  0
LINE
  5
141
100
AcDbEntity
  8
0
  6
CONTINUOUS
 62
    7
370
   18
100
AcDbLine
 10
-172.349999999999
 20
0
 11
-157.349999999999
 21
0
  0
LINE
  5
142
100
AcDbEntity
  8
0
  6
CONTINUOUS
 62
    7
370
   18
100
AcDbLine
 10
-156.2
 20
49.49999999999997
 11
-156.2
 21
42.00000000000087
  0
LINE
  5
143
100
AcDbEntity
  8
0
  6
CONTINUOUS
 62
    7
370
   18
100
AcDbLine
 10
-156.2
 20
39.70000000000007
 11
-156.2
 21
34.5
  0
LINE
  5
144
100
AcDbEntity
  8
0
  6
CONTINUOUS
 62
    7
370
   18
100
AcDbLine
 10
-156.2
 20
34.5
 11
-153.2
 21
34.5
  0
LINE
  5
145
100
AcDbEntity
  8
0
  6
CONTINUOUS
 62
    7
370
   18
100
AcDbLine
 10
-153.2
 20
34.5
 11
-153.2
 21
39.70000000000007
  0
LINE
  5
146
100
AcDbEntity
  8
0
  6
CONTINUOUS
 62
    7
370
   18
100
AcDbLine
 10
-153.2
 20
42.00000000000087
 11
-153.2
 21
49.49999999999997
  0
LINE
  5
147
100
AcDbEntity
  8
0
  6
CONTINUOUS
 62
    7
370
   18
100
AcDbLine
 10
-153.2
 20
42.00000000000087
 11
-152.2
 21
42.00000000000087
  0
LINE
  5
148
100
AcDbEntity
  8
0
  6
CONTINUOUS
 62
    7
370
   18
100
AcDbLine
 10
-152.2
 20
42.00000000000087
 11
-152.2
 21
39.70000000000007
  0
LINE
  5
149
100
AcDbEntity
  8
0
  6
CONTINUOUS
 62
    7
370
   18
100
AcDbLine
 10
-152.2
 20
39.70000000000007
 11
-153.2
 21
39.70000000000007
  0
LINE
  5
14A
100
AcDbEntity
  8
0
  6
CONTINUOUS
 62
    7
370
   18
100
AcDbLine
 10
-156.2
 20
39.70000000000007
 11
-157.2
 21
39.70000000000007
  0
LINE
  5
14B
100
AcDbEntity
  8
0
  6
CONTINUOUS
 62
    7
370
   18
100
AcDbLine
 10
-157.2
 20
39.70000000000007
 11
-157.2
 21
42.00000000000087
  0
LINE
  5
14C
100
AcDbEntity
  8
0
  6
CONTINUOUS
 62
    7
370
   18
100
AcDbLine
 10
-157.2
 20
42.00000000000087
 11
-156.2
 21
42.00000000000087
  0
LINE
  5
14D
100
AcDbEntity
  8
0
  6
CONTINUOUS
 62
    7
370
   18
100
AcDbLine
 10
0
 20
29.35000000000105
 11
-7.5
 21
29.35000000000105
  0
LINE
  5
14E
100
AcDbEntity
  8
0
  6
CONTINUOUS
 62
    7
370
   18
100
AcDbLine
 10
-9.800000000000182
 20
29.35000000000105
 11
-15
 21
29.35000000000105
  0
LINE
  5
14F
100
AcDbEntity
  8
0
  6
CONTINUOUS
 62
    7
370
   18
100
AcDbLine
 10
-15
 20
29.35000000000105
 11
-15
 21
26.34999999999991
  0
LINE
  5
150
100
AcDbEntity
  8
0
  6
CONTINUOUS
 62
    7
370
   18
100
AcDbLine
 10
-15
 20
26.34999999999991
 11
-9.800000000000182
 21
26.34999999999991
  0
LINE
  5
151
100
AcDbEntity
  8
0
  6
CONTINUOUS
 62
    7
370
   18
100
AcDbLine
 10
-7.5
 20
26.34999999999991
 11
0
 21
26.34999999999991
  0
LINE
  5
152
100
AcDbEntity
  8
0
  6
CONTINUOUS
 62
    7
370
   18
100
AcDbLine
 10
-7.5
 20
26.34999999999991
 11
-7.5
 21
25.34999999999991
  0
LINE
  5
153
100
AcDbEntity
  8
0
  6
CONTINUOUS
 62
    7
370
   18
100
AcDbLine
 10
-7.5
 20
25.34999999999991
 11
-9.800000000000182
 21
25.34999999999991
  0
LINE
  5
154
100
AcDbEntity
  8
0
  6
CONTINUOUS
 62
    7
370
   18
100
AcDbLine
 10
-9.800000000000182
 20
25.34999999999991
 11
-9.800000000000182
 21
26.34999999999991
  0
LINE
  5
155
100
AcDbEntity
  8
0
  6
CONTINUOUS
 62
    7
370
   18
100
AcDbLine
 10
-9.800000000000182
 20
29.35000000000105
 11
-9.800000000000182
 21
30.34999999999991
  0
LINE
  5
156
100
AcDbEntity
  8
0
  6
CONTINUOUS
 62
    7
370
   18
100
AcDbLine
 10
-9.800000000000182
 20
30.34999999999991
 11
-7.5
 21
30.34999999999991
  0
LINE
  5
157
100
AcDbEntity
  8
0
  6
CONTINUOUS
 62
    7
370
   18
100
AcDbLine
 10
-7.5
 20
30.34999999999991
 11
-7.5
 21
29.35000000000105
  0
LINE
  5
158
100
AcDbEntity
  8
0
  6
CONTINUOUS
 62
    7
370
   18
100
AcDbLine
 10
-330
 20
26.25000000000091
 11
-322.5
 21
26.25000000000091
  0
LINE
  5
159
100
AcDbEntity
  8
0
  6
CONTINUOUS
 62
    7
370
   18
100
AcDbLine
 10
-320.2
 20
26.25000000000091
 11
-315
 21
26.25000000000091
  0
LINE
  5
15A
100
AcDbEntity
  8
0
  6
CONTINUOUS
 62
    7
370
   18
100
AcDbLine
 10
-315
 20
26.25000000000091
 11
-315
 21
29.25
  0
LINE
  5
15B
100
AcDbEntity
  8
0
  6
CONTINUOUS
 62
    7
370
   18
100
AcDbLine
 10
-315
 20
29.25
 11
-320.2
 21
29.25
  0
LINE
  5
15C
100
AcDbEntity
  8
0
  6
CONTINUOUS
 62
    7
370
   18
100
AcDbLine
 10
-322.5
 20
29.25
 11
-330
 21
29.25
  0
LINE
  5
15D
100
AcDbEntity
  8
0
  6
CONTINUOUS
 62
    7
370
   18
100
AcDbLine
 10
-322.5
 20
29.25
 11
-322.5
 21
30.25000000000091
  0
LINE
  5
15E
100
AcDbEntity
  8
0
  6
CONTINUOUS
 62
    7
370
   18
100
AcDbLine
 10
-322.5
 20
30.25000000000091
 11
-320.2
 21
30.25000000000091
  0
LINE
  5
15F
100
AcDbEntity
  8
0
  6
CONTINUOUS
 62
    7
370
   18
100
AcDbLine
 10
-320.2
 20
30.25000000000091
 11
-320.2
 21
29.25
  0
LINE
  5
160
100
AcDbEntity
  8
0
  6
CONTINUOUS
 62
    7
370
   18
100
AcDbLine
 10
-320.2
 20
26.25000000000091
 11
-320.2
 21
25.25000000000091
  0
LINE
  5
161
100
AcDbEntity
  8
0
  6
CONTINUOUS
 62
    7
370
   18
100
AcDbLine
 10
-320.2
 20
25.25000000000091
 11
-322.5
 21
25.25000000000091
  0
LINE
  5
162
100
AcDbEntity
  8
0
  6
CONTINUOUS
 62
    7
370
   18
100
AcDbLine
 10
-322.5
 20
25.25000000000091
 11
-322.5
 21
26.25000000000091
  0
LINE
  5
163
100
AcDbEntity
  8
0
  6
CONTINUOUS
 62
    7
370
   18
100
AcDbLine
 10
-123
 20
49.49999999999997
 11
-123
 21
182.5000000000009
  0
LINE
  5
164
100
AcDbEntity
  8
0
  6
CONTINUOUS
 62
    7
370
   18
100
AcDbLine
 10
-123
 20
215.600000000001
 11
-123
 21
348.9999999999999
  0
LINE
  5
165
100
AcDbEntity
  8
0
  6
CONTINUOUS
 62
    7
370
   18
100
AcDbLine
 10
-123
 20
382.100000000001
 11
-123
 21
399.4999999999998
  0
LINE
  5
166
100
AcDbEntity
  8
0
  6
CONTINUOUS
 62
    7
370
   18
100
AcDbLine
 10
-123
 20
399.4999999999998
 11
-111.7500000000012
 21
399.4999999999998
  0
LINE
  5
167
100
AcDbEntity
  8
0
  6
CONTINUOUS
 62
    7
370
   18
100
AcDbLine
 10
-108.7500000000012
 20
399.4999999999998
 11
-97.5
 21
399.4999999999998
  0
LINE
  5
168
100
AcDbEntity
  8
0
  6
CONTINUOUS
 62
    7
370
   18
100
AcDbLine
 10
-97.5
 20
399.4999999999998
 11
-91.10134520225989
 21
367.0801490247859
  0
LINE
  5
169
100
AcDbEntity
  8
0
  6
CONTINUOUS
 62
    7
370
   18
100
AcDbLine
 10
-123
 20
191.5999999999999
 11
-123
 21
197.4999999999999
  0
LINE
  5
16A
100
AcDbEntity
  8
0
  6
CONTINUOUS
 62
    7
370
   18
100
AcDbLine
 10
-123
 20
200.5000000000009
 11
-123
 21
206.4999999999999
  0
LINE
  5
16B
100
AcDbEntity
  8
0
  6
CONTINUOUS
 62
    7
370
   18
100
AcDbLine
 10
-123
 20
206.4999999999999
 11
-129
 21
206.4999999999999
  0
LINE
  5
16C
100
AcDbEntity
  8
0
  6
CONTINUOUS
 62
    7
370
   18
100
AcDbLine
 10
-123
 20
191.5999999999999
 11
-129
 21
191.5999999999999
  0
LINE
  5
16D
100
AcDbEntity
  8
0
  6
CONTINUOUS
 62
    7
370
   18
100
AcDbLine
 10
-129
 20
182.5000000000009
 11
-123
 21
182.5000000000009
  0
LINE
  5
16E
100
AcDbEntity
  8
0
  6
CONTINUOUS
 62
    7
370
   18
100
AcDbLine
 10
-129
 20
206.4999999999999
 11
-129
 21
215.600000000001
  0
LINE
  5
16F
100
AcDbEntity
  8
0
  6
CONTINUOUS
 62
    7
370
   18
100
AcDbLine
 10
-129
 20
182.5000000000009
 11
-129
 21
191.5999999999999
  0
LINE
  5
170
100
AcDbEntity
  8
0
  6
CONTINUOUS
 62
    7
370
   18
100
AcDbLine
 10
-123
 20
215.600000000001
 11
-129
 21
215.600000000001
  0
LINE
  5
171
100
AcDbEntity
  8
0
  6
CONTINUOUS
 62
    7
370
   18
100
AcDbLine
 10
-123
 20
358.100000000001
 11
-123
 21
363.9999999999999
  0
LINE
  5
172
100
AcDbEntity
  8
0
  6
CONTINUOUS
 62
    7
370
   18
100
AcDbLine
 10
-123
 20
366.9999999999999
 11
-123
 21
372.9999999999999
  0
LINE
  5
173
100
AcDbEntity
  8
0
  6
CONTINUOUS
 62
    7
370
   18
100
AcDbLine
 10
-123
 20
372.9999999999999
 11
-129
 21
372.9999999999999
  0
LINE
  5
174
100
AcDbEntity
  8
0
  6
CONTINUOUS
 62
    7
370
   18
100
AcDbLine
 10
-123
 20
358.100000000001
 11
-129
 21
358.100000000001
  0
LINE
  5
175
100
AcDbEntity
  8
0
  6
CONTINUOUS
 62
    7
370
   18
100
AcDbLine
 10
-129
 20
348.9999999999999
 11
-123
 21
348.9999999999999
  0
LINE
  5
176
100
AcDbEntity
  8
0
  6
CONTINUOUS
 62
    7
370
   18
100
AcDbLine
 10
-129
 20
372.9999999999999
 11
-129
 21
382.100000000001
  0
LINE
  5
177
100
AcDbEntity
  8
0
  6
CONTINUOUS
 62
    7
370
   18
100
AcDbLine
 10
-129
 20
348.9999999999999
 11
-129
 21
358.100000000001
  0
LINE
  5
178
100
AcDbEntity
  8
0
  6
CONTINUOUS
 62
    7
370
   18
100
AcDbLine
 10
-123
 20
382.100000000001
 11
-129
 21
382.100000000001
  0
LINE
  5
179
100
AcDbEntity
  8
0
  6
CONTINUOUS
 62
    7
370
   18
100
AcDbLine
 10
-96.83536370565116
 20
365.958487776121
 11
-91.2317689449701
 21
336.0153131771661
  0
LINE
  5
17A
100
AcDbEntity
  8
0
  6
CONTINUOUS
 62
    7
370
   18
100
AcDbLine
 10
-91.03107300757296
 20
367.094018536895
 11
-96.83354940320305
 21
365.9487929324951
  0
LINE
  5
17B
100
AcDbEntity
  8
0
  6
CONTINUOUS
 62
    7
370
   18
100
AcDbLine
 10
-85.19316767383998
 20
337.145382880796
 11
-91.2317689449701
 21
336.0153131771661
  0
LINE
  5
17C
100
AcDbEntity
  8
0
  6
CONTINUOUS
 62
    7
370
   18
100
AcDbLine
 10
-123
 20
197.4999999999999
 11
-115.5
 21
197.4999999999999
  0
LINE
  5
17D
100
AcDbEntity
  8
0
  6
CONTINUOUS
 62
    7
370
   18
100
AcDbLine
 10
-113.1999999999992
 20
197.4999999999999
 11
-108
 21
197.4999999999999
  0
LINE
  5
17E
100
AcDbEntity
  8
0
  6
CONTINUOUS
 62
    7
370
   18
100
AcDbLine
 10
-108
 20
197.4999999999999
 11
-108
 21
200.5000000000009
  0
LINE
  5
17F
100
AcDbEntity
  8
0
  6
CONTINUOUS
 62
    7
370
   18
100
AcDbLine
 10
-108
 20
200.5000000000009
 11
-113.1999999999992
 21
200.5000000000009
  0
LINE
  5
180
100
AcDbEntity
  8
0
  6
CONTINUOUS
 62
    7
370
   18
100
AcDbLine
 10
-115.5
 20
200.5000000000009
 11
-123
 21
200.5000000000009
  0
LINE
  5
181
100
AcDbEntity
  8
0
  6
CONTINUOUS
 62
    7
370
   18
100
AcDbLine
 10
-115.5
 20
200.5000000000009
 11
-115.5
 21
201.4999999999999
  0
LINE
  5
182
100
AcDbEntity
  8
0
  6
CONTINUOUS
 62
    7
370
   18
100
AcDbLine
 10
-115.5
 20
201.4999999999999
 11
-113.1999999999992
 21
201.4999999999999
  0
LINE
  5
183
100
AcDbEntity
  8
0
  6
CONTINUOUS
 62
    7
370
   18
100
AcDbLine
 10
-113.1999999999992
 20
201.4999999999999
 11
-113.1999999999992
 21
200.5000000000009
  0
LINE
  5
184
100
AcDbEntity
  8
0
  6
CONTINUOUS
 62
    7
370
   18
100
AcDbLine
 10
-113.1999999999992
 20
197.4999999999999
 11
-113.1999999999992
 21
196.5000000000009
  0
LINE
  5
185
100
AcDbEntity
  8
0
  6
CONTINUOUS
 62
    7
370
   18
100
AcDbLine
 10
-113.1999999999992
 20
196.5000000000009
 11
-115.5
 21
196.5000000000009
  0
LINE
  5
186
100
AcDbEntity
  8
0
  6
CONTINUOUS
 62
    7
370
   18
100
AcDbLine
 10
-115.5
 20
196.5000000000009
 11
-115.5
 21
197.4999999999999
  0
LINE
  5
187
100
AcDbEntity
  8
0
  6
CONTINUOUS
 62
    7
370
   18
100
AcDbLine
 10
-123
 20
363.9999999999999
 11
-115.5
 21
363.9999999999999
  0
LINE
  5
188
100
AcDbEntity
  8
0
  6
CONTINUOUS
 62
    7
370
   18
100
AcDbLine
 10
-113.1999999999992
 20
363.9999999999999
 11
-108
 21
363.9999999999999
  0
LINE
  5
189
100
AcDbEntity
  8
0
  6
CONTINUOUS
 62
    7
370
   18
100
AcDbLine
 10
-108
 20
363.9999999999999
 11
-108
 21
366.9999999999999
  0
LINE
  5
18A
100
AcDbEntity
  8
0
  6
CONTINUOUS
 62
    7
370
   18
100
AcDbLine
 10
-108
 20
366.9999999999999
 11
-113.1999999999992
 21
366.9999999999999
  0
LINE
  5
18B
100
AcDbEntity
  8
0
  6
CONTINUOUS
 62
    7
370
   18
100
AcDbLine
 10
-115.5
 20
366.9999999999999
 11
-123
 21
366.9999999999999
  0
LINE
  5
18C
100
AcDbEntity
  8
0
  6
CONTINUOUS
 62
    7
370
   18
100
AcDbLine
 10
-115.5
 20
366.9999999999999
 11
-115.5
 21
367.9999999999999
  0
LINE
  5
18D
100
AcDbEntity
  8
0
  6
CONTINUOUS
 62
    7
370
   18
100
AcDbLine
 10
-115.5
 20
367.9999999999999
 11
-113.1999999999992
 21
367.9999999999999
  0
LINE
  5
18E
100
AcDbEntity
  8
0
  6
CONTINUOUS
 62
    7
370
   18
100
AcDbLine
 10
-113.1999999999992
 20
367.9999999999999
 11
-113.1999999999992
 21
366.9999999999999
  0
LINE
  5
18F
100
AcDbEntity
  8
0
  6
CONTINUOUS
 62
    7
370
   18
100
AcDbLine
 10
-113.1999999999992
 20
363.9999999999999
 11
-113.1999999999992
 21
362.9999999999999
  0
LINE
  5
190
100
AcDbEntity
  8
0
  6
CONTINUOUS
 62
    7
370
   18
100
AcDbLine
 10
-113.1999999999992
 20
362.9999999999999
 11
-115.5
 21
363.0000000000009
  0
LINE
  5
191
100
AcDbEntity
  8
0
  6
CONTINUOUS
 62
    7
370
   18
100
AcDbLine
 10
-115.5
 20
363.0000000000009
 11
-115.5
 21
363.9999999999999
  0
LINE
  5
192
100
AcDbEntity
  8
0
  6
CONTINUOUS
 62
    7
370
   18
100
AcDbLine
 10
-111.7500000000012
 20
399.4999999999998
 11
-111.7500000000012
 21
392.0000000000012
  0
LINE
  5
193
100
AcDbEntity
  8
0
  6
CONTINUOUS
 62
    7
370
   18
100
AcDbLine
 10
-111.7500000000012
 20
389.7
 11
-111.7500000000012
 21
384.4999999999999
  0
LINE
  5
194
100
AcDbEntity
  8
0
  6
CONTINUOUS
 62
    7
370
   18
100
AcDbLine
 10
-111.7500000000012
 20
384.4999999999999
 11
-108.7500000000012
 21
384.4999999999999
  0
LINE
  5
195
100
AcDbEntity
  8
0
  6
CONTINUOUS
 62
    7
370
   18
100
AcDbLine
 10
-108.7500000000012
 20
384.4999999999999
 11
-108.7500000000012
 21
389.7
  0
LINE
  5
196
100
AcDbEntity
  8
0
  6
CONTINUOUS
 62
    7
370
   18
100
AcDbLine
 10
-108.7500000000012
 20
392.0000000000012
 11
-108.7500000000012
 21
399.4999999999998
  0
LINE
  5
197
100
AcDbEntity
  8
0
  6
CONTINUOUS
 62
    7
370
   18
100
AcDbLine
 10
-108.7500000000012
 20
392.0000000000012
 11
-107.75
 21
392.0000000000012
  0
LINE
  5
198
100
AcDbEntity
  8
0
  6
CONTINUOUS
 62
    7
370
   18
100
AcDbLine
 10
-107.75
 20
392.0000000000012
 11
-107.75
 21
389.7
  0
LINE
  5
199
100
AcDbEntity
  8
0
  6
CONTINUOUS
 62
    7
370
   18
100
AcDbLine
 10
-107.75
 20
389.7
 11
-108.7500000000012
 21
389.7
  0
LINE
  5
19A
100
AcDbEntity
  8
0
  6
CONTINUOUS
 62
    7
370
   18
100
AcDbLine
 10
-111.7500000000012
 20
389.7
 11
-112.7500000000012
 21
389.7
  0
LINE
  5
19B
100
AcDbEntity
  8
0
  6
CONTINUOUS
 62
    7
370
   18
100
AcDbLine
 10
-112.7500000000012
 20
389.7
 11
-112.7500000000012
 21
392.0000000000012
  0
LINE
  5
19C
100
AcDbEntity
  8
0
  6
CONTINUOUS
 62
    7
370
   18
100
AcDbLine
 10
-112.7500000000012
 20
392.0000000000012
 11
-111.7500000000012
 21
392.0000000000012
  0
CIRCLE
  5
19D
100
AcDbEntity
  8
holes
  6
CONTINUOUS
 62
    1
370
   18
100
AcDbCircle
 10
-70
 20
3
 40
1.5
  0
CIRCLE
  5
19E
100
AcDbEntity
  8
holes
  6
CONTINUOUS
 62
    1
370
   18
100
AcDbCircle
 10
-164.849999999999
 20
3
 40
1.5
  0
CIRCLE
  5
19F
100
AcDbEntity
  8
holes
  6
CONTINUOUS
 62
    1
370
   18
100
AcDbCircle
 10
-260
 20
3
 40
1.5
  0
LINE
  5
1A0
100
AcDbEntity
  8
holes
  6
CONTINUOUS
 62
    3
370
   18
100
AcDbLine
 10
-113
 20
17.5
 11
-113
 21
11.50000000000091
  0
LINE
  5
1A1
100
AcDbEntity
  8
holes
  6
CONTINUOUS
 62
    3
370
   18
100
AcDbLine
 10
-111
 20
9.500000000000909
 11
-113
 21
11.50000000000091
  0
LINE
  5
1A2
100
AcDbEntity
  8
holes
  6
CONTINUOUS
 62
    3
370
   18
100
AcDbLine
 10
-111
 20
19.5
 11
-113
 21
17.5
  0
LINE
  5
1A3
100
AcDbEntity
  8
holes
  6
CONTINUOUS
 62
    3
370
   18
100
AcDbLine
 10
-111
 20
9.500000000000909
 11
-95
 21
9.500000000000909
  0
LINE
  5
1A4
100
AcDbEntity
  8
holes
  6
CONTINUOUS
 62
    3
370
   18
100
AcDbLine
 10
-93
 20
11.50000000000091
 11
-95
 21
9.500000000000909
  0
LINE
  5
1A5
100
AcDbEntity
  8
holes
  6
CONTINUOUS
 62
    3
370
   18
100
AcDbLine
 10
-93
 20
11.50000000000091
 11
-93
 21
17.5
  0
LINE
  5
1A6
100
AcDbEntity
  8
holes
  6
CONTINUOUS
 62
    3
370
   18
100
AcDbLine
 10
-95
 20
19.5
 11
-93
 21
17.5
  0
LINE
  5
1A7
100
AcDbEntity
  8
holes
  6
CONTINUOUS
 62
    3
370
   18
100
AcDbLine
 10
-95
 20
19.5
 11
-111
 21
19.5
  0
CIRCLE
  5
1A8
100
AcDbEntity
  8
holes
  6
CONTINUOUS
 62
    1
370
   18
100
AcDbCircle
 10
-96.10905673674915
 20
375.668245521094
 40
1.5
  0
CIRCLE
  5
1A9
100
AcDbEntity
  8
holes
  6
CONTINUOUS
 62
    1
370
   18
100
AcDbCircle
 10
-86.68307240733105
 20
327.9099249187121
 40
1.5
  0
CIRCLE
  5
1AA
100
AcDbEntity
  8
holes
  6
CONTINUOUS
 62
    1
370
   18
100
AcDbCircle
 10
-78.99387568135307
 20
55.54033873243407
 40
4
  0
ENDSEC
  0
SECTION
  2
OBJECTS
  0
DICTIONARY
  5
C
330
0
100
AcDbDictionary
281
    1
  3
ACAD_GROUP
350
D
  0
DICTIONARY
  5
D
330
C
100
AcDbDictionary
281
    1
  0
ENDSEC
  0
EOF
